<?xml version="1.0" encoding="UTF-8" standalone="no"?>
<!-- Created with Inkscape (http://www.inkscape.org/) -->

<svg
   width="13.645599mm"
   height="14.13958mm"
   viewBox="0 0 13.645599 14.13958"
   version="1.1"
   id="svg6779"
   inkscape:version="1.1.1 (3bf5ae0d25, 2021-09-20)"
   sodipodi:docname="facebook-icon.svg"
   xmlns:inkscape="http://www.inkscape.org/namespaces/inkscape"
   xmlns:sodipodi="http://sodipodi.sourceforge.net/DTD/sodipodi-0.dtd"
   xmlns="http://www.w3.org/2000/svg"
   xmlns:svg="http://www.w3.org/2000/svg">
  <sodipodi:namedview
     id="namedview6781"
     pagecolor="#ffffff"
     bordercolor="#999999"
     borderopacity="1"
     inkscape:pageshadow="0"
     inkscape:pageopacity="0"
     inkscape:pagecheckerboard="0"
     inkscape:document-units="mm"
     showgrid="false"
     inkscape:zoom="0.66368547"
     inkscape:cx="273.47292"
     inkscape:cy="94.171115"
     inkscape:window-width="1920"
     inkscape:window-height="1002"
     inkscape:window-x="-8"
     inkscape:window-y="-8"
     inkscape:window-maximized="1"
     inkscape:current-layer="layer1"
     fit-margin-top="0"
     fit-margin-left="0"
     fit-margin-right="0"
     fit-margin-bottom="0" />
  <defs
     id="defs6776" />
  <g
     inkscape:label="Ebene 1"
     inkscape:groupmode="layer"
     id="layer1"
     transform="translate(-32.752405,-123.68992)">
    <path
       id="path34486"
       style="vector-effect:none;fill:#666666;fill-opacity:1;fill-rule:evenodd;stroke:none;stroke-width:0.543689;stop-color:#000000"
       d="m 42.474819,123.69003 -7.386618,5.2e-4 c -1.293991,0 -2.335796,1.0418 -2.335796,2.33578 v 7.88014 c 0,1.06617 0.707581,1.96024 1.680534,2.24225 -0.06023,-0.20769 -0.09308,-0.42717 -0.09308,-0.65475 v -7.88014 c 0,-1.29398 1.041805,-2.33578 2.335796,-2.33578 l 7.386618,-5.2e-4 c 0.227729,0 0.447457,0.0328 0.655262,0.0929 -0.281965,-0.97289 -1.17653,-1.68051 -2.242762,-1.68051 z"
       sodipodi:nodetypes="ccsscssccccccc" />
    <path
       id="rect39548"
       style="vector-effect:none;fill:#bb4077;fill-opacity:1;fill-rule:evenodd;stroke:none;stroke-width:0.543691;stop-color:#000000"
       d="m 36.675863,125.27818 c -1.293991,0 -2.336055,1.04158 -2.336055,2.33555 v 7.88022 c 0,1.29396 1.042064,2.33555 2.336055,2.33555 h 2.932001 v -2.18216 -2.23044 h -0.739293 -0.739293 v -1.10893 -1.10894 h 0.737787 0.737772 l 0.0091,-0.9304 c 0.0091,-0.86869 0.01217,-0.94344 0.06327,-1.12754 0.21728,-0.78519 0.806959,-1.3751 1.594253,-1.59475 0.190557,-0.0531 0.240672,-0.0549 1.497187,-0.0628 l 1.300044,-0.009 v 1.11046 1.11043 h -1.121502 -1.121503 v 0.75135 0.75186 h 1.123525 1.12351 l -0.01369,0.068 c -0.0076,0.0373 -0.08654,0.50561 -0.175013,1.04104 -0.08852,0.5354 -0.1668,1.00425 -0.174512,1.04155 l -0.01369,0.0674 h -0.934413 -0.93493 v 2.23197 2.18064 h 2.235978 c 1.293961,0 2.335553,-1.04157 2.335553,-2.33555 v -7.88022 c 0,-1.29398 -1.041592,-2.33555 -2.335553,-2.33555 z"
       inkscape:export-filename="D:\Web- &amp; Grafikdesign gewerbliche Aufträge\Kundenaufträge\Silke Künzel (Pineapplewake)\Grafik\PineapplePark\Flyer\Flyer 2022\text6217.png"
       inkscape:export-xdpi="300"
       inkscape:export-ydpi="300" />
  </g>
</svg>
