<?xml version="1.0" encoding="UTF-8" standalone="no"?>
<!-- Created with Inkscape (http://www.inkscape.org/) -->

<svg
   width="29.051771mm"
   height="13.892345mm"
   viewBox="0 0 29.051772 13.892346"
   version="1.1"
   id="svg301"
   inkscape:version="1.1.1 (3bf5ae0d25, 2021-09-20)"
   sodipodi:docname="follow-us.svg"
   xmlns:inkscape="http://www.inkscape.org/namespaces/inkscape"
   xmlns:sodipodi="http://sodipodi.sourceforge.net/DTD/sodipodi-0.dtd"
   xmlns="http://www.w3.org/2000/svg"
   xmlns:svg="http://www.w3.org/2000/svg">
  <sodipodi:namedview
     id="namedview303"
     pagecolor="#ffffff"
     bordercolor="#999999"
     borderopacity="1"
     inkscape:pageshadow="0"
     inkscape:pageopacity="0"
     inkscape:pagecheckerboard="0"
     inkscape:document-units="mm"
     showgrid="false"
     inkscape:zoom="1.8771859"
     inkscape:cx="204.82788"
     inkscape:cy="34.892655"
     inkscape:window-width="1920"
     inkscape:window-height="1002"
     inkscape:window-x="-8"
     inkscape:window-y="-8"
     inkscape:window-maximized="1"
     inkscape:current-layer="text3389"
     fit-margin-top="0"
     fit-margin-left="0"
     fit-margin-right="0"
     fit-margin-bottom="0"
     showguides="true"
     inkscape:guide-bbox="true"
     inkscape:object-paths="true"
     inkscape:snap-intersection-paths="true"
     inkscape:snap-smooth-nodes="true"
     inkscape:snap-midpoints="true"
     inkscape:snap-global="false">
    <sodipodi:guide
       position="29.059812,8.1153814"
       orientation="1,0"
       id="guide1554" />
    <sodipodi:guide
       position="1.6773237e-09,13.725965"
       orientation="1,0"
       id="guide1556" />
  </sodipodi:namedview>
  <defs
     id="defs298">
    <rect
       x="0.84575808"
       y="85.884056"
       width="109.83236"
       height="61.776253"
       id="rect3391" />
    <rect
       x="1158.1165"
       y="973.79803"
       width="200.2998"
       height="74.57972"
       id="rect24866-4" />
  </defs>
  <g
     inkscape:label="Ebene 1"
     inkscape:groupmode="layer"
     id="layer1"
     transform="translate(-104.62677,-134.9696)">
    <g
       aria-label="FOLGEN  SIE UNS"
       transform="matrix(0.58671604,0,0,0.58671604,-575.52174,-438.23497)"
       id="text24864-6"
       style="font-size:14.6667px;line-height:125%;font-family:'Times New Roman';-inkscape-font-specification:'Times New Roman, ';font-variant-ligatures:no-common-ligatures;letter-spacing:0px;word-spacing:0px;white-space:pre;shape-inside:url(#rect24866-4);fill:#666666;stroke:#000000;stroke-width:1px">
      <g
         aria-label="FOLGEN  SIE UNS!"
         transform="matrix(0.45095637,0,0,0.45095637,1158.8651,977.07861)"
         id="text3389"
         style="line-height:125%;text-align:center;text-anchor:middle;shape-inside:url(#rect3391);fill:none">
        <path
           d="M 14.561875,11.923974 H 6.8595482 l -1.435558,8.213054 H 1.3795792 L 4.8718523,0.03920037 H 17.598637 L 17.005087,3.3934414 H 8.3365192 l -0.911029,5.190097 h 7.7299368 z"
           style="font-style:italic;font-weight:bold;font-family:Roboto;-inkscape-font-specification:'Roboto Bold Italic';fill:#666666;fill-opacity:1;stroke:none;stroke-width:1.92746px"
           id="path14691" />
        <path
           d="m 25.942572,20.413098 q -2.001501,-0.0413 -3.533684,-0.938637 -1.51838,-0.911031 -2.415605,-2.608852 -0.883421,-1.711632 -1.021455,-3.92018 -0.151845,-2.263767 0.483122,-4.8312076 0.634959,-2.567442 2.04291,-4.513728 1.407953,-1.946288 3.299026,-2.91253003 1.904876,-0.966243 4.113428,-0.924831 2.029108,0.04141 3.547487,0.966241 1.518381,0.91102803 2.387998,2.63646003 0.869618,1.711627 0.993848,3.892574 0.138045,2.429407 -0.52453,4.9968486 -0.662565,2.567445 -2.056715,4.444709 -1.394147,1.877276 -3.271418,2.815909 -1.863466,0.938634 -4.044412,0.897224 z M 31.671005,9.5359764 31.78143,8.2246494 q 0.138045,-2.457016 -0.662566,-3.726933 -0.786795,-1.269918 -2.401802,-1.325132 -2.526029,-0.08282 -4.016804,2.236159 -1.476966,2.318982 -1.670217,6.4876246 -0.138024,2.443213 0.648762,3.768339 0.786797,1.311327 2.443212,1.366546 2.167142,0.09661 3.588898,-1.684023 1.421756,-1.794449 1.863465,-5.065869 z"
           style="font-style:italic;font-weight:bold;font-family:Roboto;-inkscape-font-specification:'Roboto Bold Italic';fill:#666666;fill-opacity:1;stroke:none;stroke-width:1.92746px"
           id="path14693" />
        <path
           d="m 42.367149,16.81039 h 8.530533 l -0.579745,3.326638 H 37.742992 L 41.235265,0.03920037 h 4.044413 z"
           style="font-style:italic;font-weight:bold;font-family:Roboto;-inkscape-font-specification:'Roboto Bold Italic';fill:#666666;fill-opacity:1;stroke:none;stroke-width:1.92746px"
           id="path14695" />
        <path
           d="m 68.757819,17.59719 q -1.076669,1.366545 -3.160991,2.111935 -2.070517,0.731583 -4.679371,0.690163 -2.056713,-0.0139 -3.616504,-0.897215 -1.559791,-0.897223 -2.457015,-2.567446 -0.897222,-1.670213 -1.021456,-3.809753 -0.138043,-1.987698 0.414104,-4.6655656 0.565941,-2.691675 1.91868,-4.706978 1.366541,-2.029109 3.27142,-3.02295703 1.904876,-1.007653 4.223855,-0.966241 3.147189,0.05522 4.927834,1.78064503 1.780645,1.711629 2.029107,4.914029 l -3.892574,-0.01388 q -0.151844,-1.68402 -0.897223,-2.484622 -0.745388,-0.800599 -2.222358,-0.855814 -2.553638,-0.08282 -4.030608,2.249963 -1.463166,2.31898 -1.670217,6.7360846 -0.138027,2.360398 0.71778,3.657914 0.869616,1.297529 2.636459,1.325139 2.056713,0.05524 3.506077,-0.980052 l 0.67637,-3.464667 h -3.671721 l 0.538336,-3.0505626 h 7.674722 z"
           style="font-style:italic;font-weight:bold;font-family:Roboto;-inkscape-font-specification:'Roboto Bold Italic';fill:#666666;fill-opacity:1;stroke:none;stroke-width:1.92746px"
           id="path14697" />
        <path
           d="M 86.326552,11.427049 H 78.624224 L 77.68559,16.81039 h 9.055066 l -0.579745,3.326638 H 73.061433 L 76.553706,0.03920037 H 89.625578 L 89.032029,3.3934414 h -9.013655 l -0.842011,4.789797 h 7.729933 z"
           style="font-style:italic;font-weight:bold;font-family:Roboto;-inkscape-font-specification:'Roboto Bold Italic';fill:#666666;fill-opacity:1;stroke:none;stroke-width:1.92746px"
           id="path14699" />
        <path
           d="m 107.16926,20.137028 h -3.92018 L 97.658674,6.7338744 95.325899,20.137028 H 91.281483 L 94.773761,0.03920037 h 3.906372 L 104.28435,13.46996 106.61712,0.03920037 h 4.0306 z"
           style="font-style:italic;font-weight:bold;font-family:Roboto;-inkscape-font-specification:'Roboto Bold Italic';fill:#666666;fill-opacity:1;stroke:none;stroke-width:1.92746px"
           id="path14701" />
        <path
           d="m 11.671162,46.606198 q 0.289872,-1.64263 -1.615004,-2.51224 l -2.664066,-1.06286 q -4.6379591,-2.07052 -4.4033006,-5.70082 0.096626,-1.68403 1.1042757,-2.98156 1.0076504,-1.29752 2.8297078,-2.02911 1.8220561,-0.74539 3.9339831,-0.71776 2.91253,0.0551 4.706979,1.73921 1.794448,1.67023 1.766841,4.48614 H 13.29997 q 0.06901,-1.36654 -0.607351,-2.12576 -0.662567,-0.75917 -2.070519,-0.78678 -1.380345,-0.0275 -2.4018,0.63497 -1.0214562,0.64877 -1.2147044,1.79445 -0.2622655,1.50456 2.0153031,2.38797 l 1.8220563,0.6902 1.049063,0.48312 q 4.072018,2.0153 3.809753,5.6594 -0.124226,1.78067 -1.145687,3.07817 -1.007653,1.28373 -2.760691,1.97389 -1.739235,0.69019 -3.8373584,0.64876 -2.1395366,-0.0415 -3.8097536,-0.89721 -1.6702183,-0.85581 -2.5398366,-2.4156 -0.81440339,-1.44936 -0.75918961,-3.31282 l 4.04441091,0.0135 q -0.1932468,3.27142 3.2162056,3.32661 1.4769699,0 2.4294077,-0.64876 0.952437,-0.64876 1.131883,-1.72541 z"
           style="font-style:italic;font-weight:bold;font-family:Roboto;-inkscape-font-specification:'Roboto Bold Italic';fill:#666666;fill-opacity:1;stroke:none;stroke-width:1.92746px"
           id="path14703" />
        <path
           d="m 21.913325,51.975718 h -4.044411 l 3.478471,-20.09781 h 4.044411 z"
           style="font-style:italic;font-weight:bold;font-family:Roboto;-inkscape-font-specification:'Roboto Bold Italic';fill:#666666;fill-opacity:1;stroke:none;stroke-width:1.92746px"
           id="path14705" />
        <path
           d="m 39.001998,43.265748 h -7.702324 l -0.938637,5.38336 h 9.055066 l -0.579744,3.32661 H 25.736881 l 3.492274,-20.09781 h 13.07187 l -0.593549,3.35423 H 32.69382 l -0.842011,4.78981 h 7.729935 z"
           style="font-style:italic;font-weight:bold;font-family:Roboto;-inkscape-font-specification:'Roboto Bold Italic';fill:#666666;fill-opacity:1;stroke:none;stroke-width:1.92746px"
           id="path14707" />
        <path
           d="m 65.967769,31.877908 -2.263764,13.25131 q -0.469319,3.32664 -2.76069,5.25911 -2.291375,1.93248 -5.687023,1.87726 -2.125733,-0.0415 -3.699325,-0.92481 -1.559792,-0.89723 -2.305179,-2.51223 -0.745386,-1.62881 -0.510727,-3.68553 l 2.249962,-13.26511 h 4.044412 l -2.249962,13.27892 q -0.09663,0.77299 -0.01388,1.44937 0.276069,2.23615 2.664067,2.31897 1.711628,0.0551 2.802101,-0.93864 1.090472,-0.99384 1.407951,-2.84351 l 2.263767,-13.26511 z"
           style="font-style:italic;font-weight:bold;font-family:Roboto;-inkscape-font-specification:'Roboto Bold Italic';fill:#666666;fill-opacity:1;stroke:none;stroke-width:1.92746px"
           id="path14709" />
        <path
           d="m 81.717514,51.975718 h -3.920181 l -5.590397,-13.40315 -2.332785,13.40315 h -4.044413 l 3.492276,-20.09781 h 3.906377 l 5.604202,13.43076 2.332783,-13.43076 h 4.030609 z"
           style="font-style:italic;font-weight:bold;font-family:Roboto;-inkscape-font-specification:'Roboto Bold Italic';fill:#666666;fill-opacity:1;stroke:none;stroke-width:1.92746px"
           id="path14711" />
        <path
           d="m 96.390578,46.606198 q 0.28988,-1.64263 -1.615005,-2.51224 l -2.664062,-1.06286 q -4.637958,-2.07052 -4.403299,-5.70082 0.09663,-1.68403 1.104277,-2.98156 1.007655,-1.29752 2.829713,-2.02911 1.822044,-0.74539 3.933981,-0.71776 2.912525,0.0551 4.706967,1.73921 1.79445,1.67023 1.76686,4.48614 h -4.030612 q 0.069,-1.36654 -0.60736,-2.12576 -0.66256,-0.75917 -2.070517,-0.78678 -1.380345,-0.0275 -2.401803,0.63497 -1.02146,0.64877 -1.214701,1.79445 -0.262269,1.50456 2.015297,2.38797 l 1.822058,0.6902 1.049066,0.48312 q 4.072022,2.0153 3.809752,5.6594 -0.12423,1.78067 -1.145692,3.07817 -1.00765,1.28373 -2.76069,1.97389 -1.739235,0.69019 -3.837348,0.64876 -2.139546,-0.0415 -3.809757,-0.89721 -1.67022,-0.85581 -2.539838,-2.4156 -0.814402,-1.44936 -0.759189,-3.31282 l 4.044416,0.0135 q -0.193254,3.27142 3.216201,3.32661 1.47697,0 2.429401,-0.64876 0.952444,-0.64876 1.131884,-1.72541 z"
           style="font-style:italic;font-weight:bold;font-family:Roboto;-inkscape-font-specification:'Roboto Bold Italic';fill:#666666;fill-opacity:1;stroke:none;stroke-width:1.92746px"
           id="path14713" />
        <path
           d="m 107.75699,45.805578 h -3.24382 l 1.96009,-13.92767 h 4.15486 z m -4.52753,4.3619 q -0.0276,-0.91103 0.57974,-1.53218 0.60737,-0.63496 1.54599,-0.66255 0.88341,-0.0275 1.53218,0.55211 0.64877,0.56594 0.67638,1.49077 0.0276,0.91104 -0.57976,1.54601 -0.60734,0.63495 -1.55979,0.66256 -0.96623,0 -1.58739,-0.60737 -0.60735,-0.60734 -0.60735,-1.44935 z"
           style="font-style:italic;font-weight:bold;font-family:Roboto;-inkscape-font-specification:'Roboto Bold Italic';fill:#666666;fill-opacity:1;stroke:none;stroke-width:1.92746px"
           id="path14715" />
      </g>
    </g>
  </g>
</svg>
