<?xml version="1.0" encoding="UTF-8" standalone="no"?>
<!-- Created with Inkscape (http://www.inkscape.org/) -->

<svg
   width="29.283585mm"
   height="13.651879mm"
   viewBox="0 0 29.283585 13.65188"
   version="1.1"
   id="svg301"
   inkscape:version="1.1.1 (3bf5ae0d25, 2021-09-20)"
   sodipodi:docname="follow-us.svg"
   xmlns:inkscape="http://www.inkscape.org/namespaces/inkscape"
   xmlns:sodipodi="http://sodipodi.sourceforge.net/DTD/sodipodi-0.dtd"
   xmlns="http://www.w3.org/2000/svg"
   xmlns:svg="http://www.w3.org/2000/svg">
  <sodipodi:namedview
     id="namedview303"
     pagecolor="#ffffff"
     bordercolor="#999999"
     borderopacity="1"
     inkscape:pageshadow="0"
     inkscape:pageopacity="0"
     inkscape:pagecheckerboard="0"
     inkscape:document-units="mm"
     showgrid="false"
     inkscape:zoom="1.3273709"
     inkscape:cx="331.85901"
     inkscape:cy="56.879353"
     inkscape:window-width="1920"
     inkscape:window-height="1002"
     inkscape:window-x="-8"
     inkscape:window-y="-8"
     inkscape:window-maximized="1"
     inkscape:current-layer="text24864-6"
     fit-margin-top="0"
     fit-margin-left="0"
     fit-margin-right="0"
     fit-margin-bottom="0"
     showguides="true"
     inkscape:guide-bbox="true"
     inkscape:object-paths="true"
     inkscape:snap-intersection-paths="true"
     inkscape:snap-smooth-nodes="true">
    <sodipodi:guide
       position="29.283586,7.9380342"
       orientation="1,0"
       id="guide1554" />
    <sodipodi:guide
       position="0.22377351,13.548618"
       orientation="1,0"
       id="guide1556" />
  </sodipodi:namedview>
  <defs
     id="defs298">
    <rect
       x="1158.1165"
       y="973.79803"
       width="200.2998"
       height="74.57972"
       id="rect24866-4" />
  </defs>
  <g
     inkscape:label="Ebene 1"
     inkscape:groupmode="layer"
     id="layer1"
     transform="translate(-104.403,-135.03272)">
    <g
       aria-label="FOLGEN 
SIE UNS"
       transform="matrix(0.58671604,0,0,0.58671604,-575.52174,-438.23497)"
       id="text24864-6"
       style="font-size:14.6667px;line-height:125%;font-family:'Times New Roman';-inkscape-font-specification:'Times New Roman, ';font-variant-ligatures:no-common-ligatures;letter-spacing:0px;word-spacing:0px;white-space:pre;shape-inside:url(#rect24866-4);fill:#666666;stroke:#000000;stroke-width:1px">
      <path
         d="m 1159.2465,986.8173 v -9.56269 h 6.028 v 1.81867 h -3.872 v 2.21467 h 3.3147 v 1.81867 h -3.3147 v 3.71068 z"
         style="font-weight:bold;font-family:'Source Sans Pro';-inkscape-font-specification:'Source Sans Pro Bold';stroke:none"
         id="path1430" />
      <path
         d="m 1170.4317,986.9933 q -1.2907,0 -2.2734,-0.60134 -0.968,-0.60133 -1.5253,-1.716 -0.5427,-1.12934 -0.5427,-2.68401 0,-1.56933 0.5427,-2.65467 0.5573,-1.1 1.5253,-1.672 0.9827,-0.58667 2.2734,-0.58667 1.2906,0 2.2586,0.58667 0.9827,0.572 1.5254,1.672 0.5573,1.1 0.5573,2.65467 0,1.55467 -0.5573,2.68401 -0.5427,1.11467 -1.5254,1.716 -0.968,0.60134 -2.2586,0.60134 z m 0,-1.86267 q 0.9826,0 1.5546,-0.85067 0.572,-0.85067 0.572,-2.28801 0,-1.43733 -0.572,-2.244 -0.572,-0.80667 -1.5546,-0.80667 -0.9827,0 -1.5547,0.80667 -0.572,0.80667 -0.572,2.244 0,1.43734 0.572,2.28801 0.572,0.85067 1.5547,0.85067 z"
         style="font-weight:bold;font-family:'Source Sans Pro';-inkscape-font-specification:'Source Sans Pro Bold';stroke:none"
         id="path1432" />
      <path
         d="m 1176.3367,986.8173 v -9.56269 h 2.156 v 7.74402 h 3.784 v 1.81867 z"
         style="font-weight:bold;font-family:'Source Sans Pro';-inkscape-font-specification:'Source Sans Pro Bold';stroke:none"
         id="path1434" />
      <path
         d="m 1187.6901,986.9933 q -1.3053,0 -2.376,-0.55734 -1.056,-0.55733 -1.6867,-1.64267 -0.616,-1.1 -0.616,-2.69867 0,-1.584 0.6307,-2.69867 0.6453,-1.12934 1.7013,-1.71601 1.056,-0.60133 2.332,-0.60133 1.0414,0 1.7894,0.38133 0.748,0.38134 1.2173,0.86534 l -1.1293,1.37867 q -0.3667,-0.32267 -0.7774,-0.54267 -0.4106,-0.22 -1.0266,-0.22 -1.1147,0 -1.8187,0.82133 -0.704,0.82134 -0.704,2.25868 0,1.46667 0.6747,2.288 0.6746,0.82134 2.0093,0.82134 0.2933,0 0.572,-0.0733 0.2787,-0.0733 0.4547,-0.22 v -1.64267 h -1.584 v -1.76 h 3.4907 v 4.40001 q -0.4987,0.484 -1.3347,0.82133 -0.8214,0.33734 -1.8187,0.33734 z"
         style="font-weight:bold;font-family:'Source Sans Pro';-inkscape-font-specification:'Source Sans Pro Bold';stroke:none"
         id="path1436" />
      <path
         d="m 1192.7633,986.8173 v -9.56269 h 5.984 v 1.81867 h -3.828 v 1.92134 h 3.256 v 1.804 h -3.256 v 2.20001 h 3.9747 v 1.81867 z"
         style="font-weight:bold;font-family:'Source Sans Pro';-inkscape-font-specification:'Source Sans Pro Bold';stroke:none"
         id="path1438" />
      <path
         d="m 1201.2812,986.8173 v -9.56269 h 2.2146 l 2.4934,4.75201 0.9386,2.112 h 0.059 q -0.059,-0.76266 -0.1613,-1.70133 -0.1027,-0.93867 -0.1027,-1.78934 v -3.37334 h 2.0533 v 9.56269 h -2.2146 l -2.4934,-4.76668 -0.9386,-2.08267 h -0.059 q 0.073,0.792 0.1613,1.70134 0.1027,0.90933 0.1027,1.76 v 3.38801 z"
         style="font-weight:bold;font-family:'Source Sans Pro';-inkscape-font-specification:'Source Sans Pro Bold';stroke:none"
         id="path1440" />
      <path
         d="m 1162.3998,1000.3469 q -0.9387,0 -1.8773,-0.35204 -0.924,-0.352 -1.6574,-1.0267 l 1.232,-1.4813 q 0.5134,0.44 1.144,0.7187 0.6307,0.2786 1.2174,0.2786 0.6746,0 0.9973,-0.2493 0.3373,-0.2493 0.3373,-0.6747 0,-0.4546 -0.3813,-0.66 -0.3667,-0.22 -0.9973,-0.484 l -1.2467,-0.528 q -0.484,-0.2053 -0.924,-0.5427 -0.44,-0.352 -0.7187,-0.86529 -0.2786,-0.51333 -0.2786,-1.20267 0,-0.792 0.4253,-1.43734 0.44,-0.64533 1.2027,-1.02666 0.7773,-0.38134 1.7746,-0.38134 0.8214,0 1.6427,0.32267 0.8213,0.32267 1.4373,0.93867 l -1.1,1.364 q -0.4693,-0.36667 -0.9386,-0.55733 -0.4694,-0.20534 -1.0414,-0.20534 -0.5573,0 -0.8946,0.23467 -0.3227,0.22 -0.3227,0.63067 0,0.44 0.4107,0.66 0.4253,0.22 1.0413,0.46933 l 1.232,0.49867 q 0.8653,0.35199 1.3787,0.96799 0.5133,0.616 0.5133,1.628 0,0.792 -0.4253,1.4667 -0.4254,0.6747 -1.232,1.0853 -0.8067,0.41074 -1.9507,0.41074 z"
         style="font-weight:bold;font-family:'Source Sans Pro';-inkscape-font-specification:'Source Sans Pro Bold';stroke:none"
         id="path1442" />
      <path
         d="m 1167.4012,1000.1709 v -9.56274 h 2.156 v 9.56274 z"
         style="font-weight:bold;font-family:'Source Sans Pro';-inkscape-font-specification:'Source Sans Pro Bold';stroke:none"
         id="path1444" />
      <path
         d="m 1171.6357,1000.1709 v -9.56274 h 5.984 v 1.81867 h -3.828 v 1.92134 h 3.256 v 1.80399 h -3.256 v 2.2 h 3.9746 v 1.81874 z"
         style="font-weight:bold;font-family:'Source Sans Pro';-inkscape-font-specification:'Source Sans Pro Bold';stroke:none"
         id="path1446" />
      <path
         d="m 1187.3967,1000.3469 q -1.8627,0 -2.8454,-1.10004 -0.9827,-1.1 -0.9827,-3.5054 v -5.1333 h 2.1707 v 5.3533 q 0,1.4081 0.4254,1.9654 0.4253,0.5573 1.232,0.5573 0.8066,0 1.2466,-0.5573 0.44,-0.5573 0.44,-1.9654 v -5.3533 h 2.0827 v 5.1333 q 0,2.4054 -0.968,3.5054 -0.9533,1.10004 -2.8013,1.10004 z"
         style="font-weight:bold;font-family:'Source Sans Pro';-inkscape-font-specification:'Source Sans Pro Bold';stroke:none"
         id="path1448" />
      <path
         d="m 1192.8402,1000.1709 v -9.56274 h 2.2146 l 2.4934,4.752 0.9386,2.112 h 0.059 q -0.059,-0.7627 -0.1613,-1.7013 -0.1027,-0.93869 -0.1027,-1.78936 v -3.37334 h 2.0533 v 9.56274 h -2.2146 l -2.4934,-4.76674 -0.9386,-2.08266 h -0.059 q 0.073,0.792 0.1613,1.70136 0.1027,0.9093 0.1027,1.76 v 3.38804 z"
         style="font-weight:bold;font-family:'Source Sans Pro';-inkscape-font-specification:'Source Sans Pro Bold';stroke:none"
         id="path1450" />
      <path
         d="m 1205.1681,1000.3469 q -0.9387,0 -1.8774,-0.35204 -0.924,-0.352 -1.6573,-1.0267 l 1.232,-1.4813 q 0.5133,0.44 1.144,0.7187 0.6307,0.2786 1.2173,0.2786 0.6747,0 0.9974,-0.2493 0.3373,-0.2493 0.3373,-0.6747 0,-0.4546 -0.3813,-0.66 -0.3667,-0.22 -0.9974,-0.484 l -1.2466,-0.528 q -0.484,-0.2053 -0.924,-0.5427 -0.44,-0.352 -0.7187,-0.86529 -0.2787,-0.51333 -0.2787,-1.20267 0,-0.792 0.4254,-1.43734 0.44,-0.64533 1.2026,-1.02666 0.7774,-0.38134 1.7747,-0.38134 0.8213,0 1.6427,0.32267 0.8213,0.32267 1.4373,0.93867 l -1.1,1.364 q -0.4693,-0.36667 -0.9387,-0.55733 -0.4693,-0.20534 -1.0413,-0.20534 -0.5573,0 -0.8947,0.23467 -0.3226,0.22 -0.3226,0.63067 0,0.44 0.4106,0.66 0.4254,0.22 1.0414,0.46933 l 1.232,0.49867 q 0.8653,0.35199 1.3786,0.96799 0.5134,0.616 0.5134,1.628 0,0.792 -0.4254,1.4667 -0.4253,0.6747 -1.232,1.0853 -0.8066,0.41074 -1.9506,0.41074 z"
         style="font-weight:bold;font-family:'Source Sans Pro';-inkscape-font-specification:'Source Sans Pro Bold';stroke:none"
         id="path1452" />
    </g>
  </g>
</svg>
