<?xml version="1.0" encoding="UTF-8" standalone="no"?>
<!-- Created with Inkscape (http://www.inkscape.org/) -->

<svg
   width="178.17159mm"
   height="69.740768mm"
   viewBox="0 0 178.17159 69.740768"
   version="1.1"
   id="svg993"
   inkscape:version="1.1.1 (3bf5ae0d25, 2021-09-20)"
   sodipodi:docname="FZ-Logo_WortBildmarke.svg"
   inkscape:export-filename="C:\Users\Laura\OneDrive\Metallbau Zeilbeck\Logo\FZ-Logo_WortBildmarke.png"
   inkscape:export-xdpi="300"
   inkscape:export-ydpi="300"
   xmlns:inkscape="http://www.inkscape.org/namespaces/inkscape"
   xmlns:sodipodi="http://sodipodi.sourceforge.net/DTD/sodipodi-0.dtd"
   xmlns="http://www.w3.org/2000/svg"
   xmlns:svg="http://www.w3.org/2000/svg">
  <sodipodi:namedview
     id="namedview995"
     pagecolor="#ffffff"
     bordercolor="#999999"
     borderopacity="1"
     inkscape:pageshadow="0"
     inkscape:pageopacity="0"
     inkscape:pagecheckerboard="0"
     inkscape:document-units="mm"
     showgrid="false"
     inkscape:zoom="0.66368547"
     inkscape:cx="925.89039"
     inkscape:cy="104.71828"
     inkscape:window-width="1920"
     inkscape:window-height="1002"
     inkscape:window-x="-8"
     inkscape:window-y="-8"
     inkscape:window-maximized="1"
     inkscape:current-layer="g57533"
     fit-margin-top="0"
     fit-margin-left="0"
     fit-margin-right="0"
     fit-margin-bottom="0" />
  <defs
     id="defs990" />
  <g
     inkscape:label="Ebene 1"
     inkscape:groupmode="layer"
     id="layer1"
     transform="translate(12.543511,-120.60612)">
    <g
       id="g57533"
       transform="matrix(0.4866878,0,0,0.47371075,95.62037,-42.264353)"
       style="font-style:italic;font-variant:normal;font-size:94.9564px;font-family:Arial;-inkscape-font-specification:'Arial Italic';writing-mode:lr-tb;fill:#ff1dc7;fill-opacity:1;fill-rule:nonzero;stroke:none;stroke-width:0.5;stroke-linecap:butt;stroke-linejoin:miter;stroke-miterlimit:10;stroke-dasharray:none;stroke-opacity:1">
      <path
         d="m 128.27164,464.61402 v 20.29969 h 1.7011 v -20.29969 z"
         style="font-style:normal;font-variant:normal;font-weight:normal;font-stretch:normal;font-size:15px;line-height:125%;font-family:'Arial MT Std';-inkscape-font-specification:'Arial MT Std';font-variant-ligatures:no-common-ligatures;letter-spacing:0px;word-spacing:0px;writing-mode:lr-tb;white-space:pre;fill:#898d8d;fill-opacity:1;stroke:none;stroke-width:1.41981;stroke-linecap:butt;stroke-linejoin:miter;stroke-miterlimit:4;stroke-dasharray:none;stroke-opacity:1"
         id="path919" />
      <path
         d="m 134.58428,464.61402 v 20.29969 h 1.7011 v -20.29969 z"
         style="font-style:normal;font-variant:normal;font-weight:normal;font-stretch:normal;font-size:15px;line-height:125%;font-family:'Arial MT Std';-inkscape-font-specification:'Arial MT Std';font-variant-ligatures:no-common-ligatures;letter-spacing:0px;word-spacing:0px;writing-mode:lr-tb;white-space:pre;fill:#898d8d;fill-opacity:1;stroke:none;stroke-width:1.41981;stroke-linecap:butt;stroke-linejoin:miter;stroke-miterlimit:4;stroke-dasharray:none;stroke-opacity:1"
         id="path921" />
      <path
         d="m -97.724677,437.89587 7.541778,0.77132 q -1.628366,5.61348 -7.49893,10.6699 -5.827771,5.05642 -13.926581,5.05642 -5.05644,0 -9.29869,-2.31396 -4.19941,-2.3568 -6.42766,-6.81331 -2.1854,-4.4565 -2.1854,-10.15569 0,-7.45607 3.42807,-14.44079 3.47098,-7.02756 8.9559,-10.4128 5.48493,-3.42807 11.86973,-3.42807 8.141665,0 12.983859,5.05641 4.884985,5.05642 4.884985,13.79803 0,3.34238 -0.599883,6.85616 h -33.509491 q -0.17139,1.32838 -0.17139,2.39966 0,6.3848 2.91388,9.77003 2.95674,3.34238 7.19899,3.34238 3.98516,0 7.84172,-2.61392 3.856618,-2.61391 5.999169,-7.54177 z m -22.539643,-11.26982 h 25.539226 q 0.0451,-1.19983 0.0451,-1.71404 0,-5.82774 -2.913829,-8.91301 -2.913887,-3.12812 -7.498927,-3.12812 -4.97074,0 -9.08445,3.42808 -4.0708,3.42808 -6.0848,10.32709 z"
         id="path920"
         style="font-style:italic;font-variant:normal;font-size:44.123px;font-family:Arial;-inkscape-font-specification:'Arial Italic';writing-mode:lr-tb;fill:#898d8d;fill-opacity:1;fill-rule:nonzero;stroke:none;stroke-width:0.99448;stroke-linecap:butt;stroke-linejoin:miter;stroke-miterlimit:10;stroke-dasharray:none;stroke-opacity:1"
         inkscape:connector-curvature="0" />
      <path
         d="m -71.327128,399.32996 1.84261,-8.78446 h 7.713174 l -1.84261,8.78446 z m -11.312639,54.03512 9.512878,-45.50777 h 7.756079 l -9.512935,45.50777 z"
         style="font-style:italic;font-variant:normal;font-size:44.123px;font-family:Arial;-inkscape-font-specification:'Arial Italic';writing-mode:lr-tb;fill:#898d8d;fill-opacity:1;fill-rule:nonzero;stroke:none;stroke-width:0.99448;stroke-linecap:butt;stroke-linejoin:miter;stroke-miterlimit:10;stroke-dasharray:none;stroke-opacity:1"
         id="path922"
         inkscape:connector-curvature="0" />
      <path
         d="m -63.442559,453.36508 13.112401,-62.81958 h 7.756022 l -13.112401,62.81958 z"
         style="font-style:italic;font-variant:normal;font-size:44.123px;font-family:Arial;-inkscape-font-specification:'Arial Italic';writing-mode:lr-tb;fill:#898d8d;fill-opacity:1;fill-rule:nonzero;stroke:none;stroke-width:0.99448;stroke-linecap:butt;stroke-linejoin:miter;stroke-miterlimit:10;stroke-dasharray:none;stroke-opacity:1"
         id="path924"
         inkscape:connector-curvature="0" />
      <path
         d="m -43.34547,453.36508 13.1124,-62.81958 h 7.756079 l -4.670798,22.45393 q 3.68522,-3.38523 6.684747,-4.75646 2.999583,-1.41408 6.256259,-1.41408 6.384805,0 10.627059,4.75646 4.28510266,4.75646 4.28510266,13.84087 0,6.042 -1.71406366,11.05556 -1.7140072,5.01357 -4.2421975,8.44166 -2.5282467,3.38522 -5.2278325,5.44207 -2.699641,2.014 -5.527773,2.99957 -2.828188,1.02843 -5.442132,1.02843 -4.499347,0 -7.927418,-2.35681 -3.428071,-2.39966 -5.356378,-7.28467 l -1.799761,8.61305 z m 11.484091,-18.68304 -0.0451,1.45693 q 0,5.82774 2.785283,8.87016 2.785339,3.04243 6.941895,3.04243 4.070803,0 7.456081,-2.82817 3.428071,-2.87102 5.6134713,-8.91301 2.1854001,-6.04199 2.1854001,-11.14127 0,-5.74203 -2.7853393,-8.913 -2.7424341,-3.17098 -6.8132931,-3.17098 -4.199405,0 -7.713173,3.25668 -3.513825,3.21382 -5.87062,9.94143 -1.756856,5.01357 -1.756856,8.3988 z"
         style="font-style:italic;font-variant:normal;font-size:44.123px;font-family:Arial;-inkscape-font-specification:'Arial Italic';writing-mode:lr-tb;fill:#898d8d;fill-opacity:1;fill-rule:nonzero;stroke:none;stroke-width:0.99448;stroke-linecap:butt;stroke-linejoin:miter;stroke-miterlimit:10;stroke-dasharray:none;stroke-opacity:1"
         id="path926"
         inkscape:connector-curvature="0" />
      <path
         d="m 38.886961,437.89587 7.541778,0.77132 q -1.62831,5.61348 -7.498873,10.6699 -5.827771,5.05642 -13.926584,5.05642 -5.056437,0 -9.298691,-2.31396 -4.199405,-2.3568 -6.4276538,-6.81331 -2.1854002,-4.4565 -2.1854002,-10.15569 0,-7.45607 3.428071,-14.44079 3.47092,-7.02756 8.955844,-10.4128 5.484981,-3.42807 11.86973,-3.42807 8.141718,0 12.983855,5.05641 4.885041,5.05642 4.885041,13.79803 0,3.34238 -0.599939,6.85616 H 15.104652 q -0.171395,1.32838 -0.171395,2.39966 0,6.3848 2.913886,9.77003 2.956734,3.34238 7.198988,3.34238 3.985105,0 7.84172,-2.61392 3.856558,-2.61391 5.99911,-7.54177 z M 16.347379,426.62605 h 25.539165 q 0.0451,-1.19983 0.0451,-1.71404 0,-5.82774 -2.913829,-8.91301 -2.913886,-3.12812 -7.49893,-3.12812 -4.97074,0 -9.084447,3.42808 -4.070803,3.42808 -6.084808,10.32709 z"
         style="font-style:italic;font-variant:normal;font-size:44.123px;font-family:Arial;-inkscape-font-specification:'Arial Italic';writing-mode:lr-tb;fill:#898d8d;fill-opacity:1;fill-rule:nonzero;stroke:none;stroke-width:0.99448;stroke-linecap:butt;stroke-linejoin:miter;stroke-miterlimit:10;stroke-dasharray:none;stroke-opacity:1"
         id="path928"
         inkscape:connector-curvature="0" />
      <path
         d="m 85.548484,437.89587 7.756022,0.77132 c -1.942571,5.6849 -4.580477,8.84159 -8.179943,11.61262 -3.570881,2.74247 -7.64174,4.1137 -12.21252,4.1137 -4.942155,0 -8.955845,-1.59978 -12.041125,-4.79932 -3.056696,-3.19954 -4.585101,-7.67033 -4.585101,-13.41236 0,-4.97072 0.985578,-9.85574 2.956735,-14.65505 1.971156,-4.79931 4.785023,-8.44165 8.441659,-10.92701 3.68522,-2.51392 7.884568,-3.77088 12.598215,-3.77088 4.884986,0 8.755865,1.38551 11.612581,4.15654 2.856773,2.74246 4.285159,6.3848 4.285159,10.92701 l -7.627476,0.51418 c -0.02819,-2.8853 -0.871296,-5.14211 -2.528247,-6.77046 -1.628366,-1.62834 -3.785181,-2.4425 -6.470502,-2.4425 -3.113866,0 -5.813451,0.98557 -8.098813,2.95672 -2.285418,1.97114 -4.085179,4.97071 -5.399227,8.99871 -1.285576,3.99943 -1.928308,7.85602 -1.928308,11.56977 0,3.88516 0.857032,6.79903 2.57104,8.74161 1.714063,1.94258 3.82803,2.91387 6.341956,2.91387 2.513926,0 4.91357,-0.95701 7.198988,-2.87102 2.313947,-1.91401 3.994803,-3.71375 5.308907,-7.62748 z"
         id="path930"
         inkscape:connector-curvature="0"
         sodipodi:nodetypes="cccscsscsccccsccscscc"
         style="font-style:italic;font-variant:normal;font-size:44.123px;font-family:Arial;-inkscape-font-specification:'Arial Italic';writing-mode:lr-tb;fill:#898d8d;fill-opacity:1;fill-rule:nonzero;stroke:none;stroke-width:0.99448;stroke-linecap:butt;stroke-linejoin:miter;stroke-miterlimit:10;stroke-dasharray:none;stroke-opacity:1" />
      <path
         d="M 98.251735,453.36508 111.40698,390.5455 h 7.71318 l -8.14172,38.95157 22.62534,-21.63976 h 10.24142 l -19.41151,16.969 11.74118,28.53877 h -8.48451 l -9.08444,-23.3538 -9.42718,8.14169 -3.17098,15.21211 z"
         style="font-style:italic;font-variant:normal;font-size:44.123px;font-family:Arial;-inkscape-font-specification:'Arial Italic';writing-mode:lr-tb;fill:#898d8d;fill-opacity:1;fill-rule:nonzero;stroke:none;stroke-width:0.99448;stroke-linecap:butt;stroke-linejoin:miter;stroke-miterlimit:10;stroke-dasharray:none;stroke-opacity:1"
         id="path932"
         inkscape:connector-curvature="0" />
      <path
         d="m -222.2449,479.01145 1.75218,-13.55619 89.91352,-106.23627 h -72.48416 l 3.22769,-15.40058 h 93.2334 l -1.56775,14.10951 -89.54463,105.68297 78.93944,-10e-6 -3.22764,15.40057 z"
         id="path973"
         inkscape:connector-curvature="0"
         sodipodi:nodetypes="ccccccccccc"
         style="font-style:italic;font-variant:normal;font-size:94.9564px;font-family:Arial;-inkscape-font-specification:'Arial Italic';writing-mode:lr-tb;fill:#898d8d;fill-opacity:1;fill-rule:nonzero;stroke:none;stroke-width:0.99448;stroke-linecap:butt;stroke-linejoin:miter;stroke-miterlimit:10;stroke-dasharray:none;stroke-opacity:1" />
      <path
         d="m -218.3199,430.5561 11.713,-56.11521 h 36.47874 l -1.33976,6.39239 h -28.97626 l -3.71296,17.87571 h 26.52875 l -1.33976,6.39239 h -26.52869 l -5.32063,25.45472 z"
         id="path905"
         inkscape:connector-curvature="0"
         sodipodi:nodetypes="ccccccccccc"
         style="font-style:italic;font-variant:normal;font-size:39.414px;font-family:Arial;-inkscape-font-specification:'Arial Italic';writing-mode:lr-tb;fill:#898d8d;fill-opacity:1;fill-rule:nonzero;stroke:none;stroke-width:0.99448;stroke-linecap:butt;stroke-linejoin:miter;stroke-miterlimit:10;stroke-dasharray:none;stroke-opacity:1" />
      <path
         d="m -97.511561,464.61402 v 20.29969 h 1.927913 V 476.3232 H -90.452 c 5.074873,0 6.549152,-3.40219 6.549152,-5.89712 0,-2.21142 -1.077308,-3.96921 -2.523285,-4.90482 -1.417561,-0.90724 -3.742389,-0.90724 -4.025867,-0.90724 z m 6.52085,1.70109 c 1.389202,0 5.103289,0.0282 5.103289,4.13932 0,3.54394 -2.94856,4.16768 -5.103289,4.16768 h -4.592937 v -8.307 z"
         style="font-style:normal;font-variant:normal;font-weight:normal;font-stretch:normal;font-size:15px;line-height:125%;font-family:'Arial MT Std';-inkscape-font-specification:'Arial MT Std';font-variant-ligatures:no-common-ligatures;letter-spacing:0px;word-spacing:0px;writing-mode:lr-tb;white-space:pre;fill:#898d8d;fill-opacity:1;stroke:none;stroke-width:1.41981;stroke-linecap:butt;stroke-linejoin:miter;stroke-miterlimit:4;stroke-dasharray:none;stroke-opacity:1"
         id="path886" />
      <path
         d="m -70.453182,477.76913 c -0.02819,-1.47428 -0.05694,-7.88173 -6.435829,-7.88173 -4.309403,0 -6.690949,3.06197 -6.690949,7.68327 0,4.70635 2.438265,7.68326 6.662646,7.68326 4.621297,0 5.783682,-3.28877 6.294034,-4.70635 l -1.701096,-0.28354 c -0.339972,0.9356 -1.275823,3.57229 -4.507917,3.57229 -3.260397,0 -4.876472,-2.52328 -4.933134,-6.06723 z m -11.283942,-1.41758 c 0.56707,-4.81975 3.912544,-5.04657 4.791451,-5.04657 2.098011,0 4.337762,1.13406 4.678015,5.04657 z"
         style="font-style:normal;font-variant:normal;font-weight:normal;font-stretch:normal;font-size:15px;line-height:125%;font-family:'Arial MT Std';-inkscape-font-specification:'Arial MT Std';font-variant-ligatures:no-common-ligatures;letter-spacing:0px;word-spacing:0px;writing-mode:lr-tb;white-space:pre;fill:#898d8d;fill-opacity:1;stroke:none;stroke-width:1.41981;stroke-linecap:butt;stroke-linejoin:miter;stroke-miterlimit:4;stroke-dasharray:none;stroke-opacity:1"
         id="path888" />
      <path
         d="m -68.244948,470.22762 v 14.68609 h 1.701153 v -6.71931 c 0,-0.36855 0.02819,-1.33252 0.113323,-2.06966 0.113324,-0.9356 0.255402,-1.9279 0.510239,-2.46659 0.850548,-1.9279 2.069652,-1.95625 2.608363,-1.95625 0.595372,0 1.049005,0.1701 1.984574,0.56703 l 0.652091,-1.50263 c -0.623731,-0.39691 -1.389202,-0.8789 -2.608306,-0.8789 -2.324828,0 -3.061996,2.21143 -3.373834,3.28878 h -0.05694 v -2.94856 z"
         style="font-style:normal;font-variant:normal;font-weight:normal;font-stretch:normal;font-size:15px;line-height:125%;font-family:'Arial MT Std';-inkscape-font-specification:'Arial MT Std';font-variant-ligatures:no-common-ligatures;letter-spacing:0px;word-spacing:0px;writing-mode:lr-tb;white-space:pre;fill:#898d8d;fill-opacity:1;stroke:none;stroke-width:1.41981;stroke-linecap:butt;stroke-linejoin:miter;stroke-miterlimit:4;stroke-dasharray:none;stroke-opacity:1"
         id="path890" />
      <path
         d="m -58.767927,470.22762 v 1.27582 h 2.353187 v 13.41027 h 1.701096 v -13.41027 h 3.090298 v -1.27582 h -3.090298 v -1.30417 c 0,-1.78615 0.170267,-3.06196 2.268109,-3.06196 0.311782,0 0.595373,0.0282 1.445977,0.14174 l 0.311782,-1.38923 c -1.190745,-0.28353 -1.616019,-0.34019 -2.15473,-0.34019 -1.105724,0 -2.098011,0.36855 -2.778461,1.13406 -0.510238,0.56703 -0.79383,1.24746 -0.79383,3.26043 v 1.55933 z"
         style="font-style:normal;font-variant:normal;font-weight:normal;font-stretch:normal;font-size:15px;line-height:125%;font-family:'Arial MT Std';-inkscape-font-specification:'Arial MT Std';font-variant-ligatures:no-common-ligatures;letter-spacing:0px;word-spacing:0px;writing-mode:lr-tb;white-space:pre;fill:#898d8d;fill-opacity:1;stroke:none;stroke-width:1.41981;stroke-linecap:butt;stroke-linejoin:miter;stroke-miterlimit:4;stroke-dasharray:none;stroke-opacity:1"
         id="path892" />
      <path
         d="m -37.450663,477.76913 c -0.02819,-1.47428 -0.05694,-7.88173 -6.435773,-7.88173 -4.309459,0 -6.691005,3.06197 -6.691005,7.68327 0,4.70635 2.438264,7.68326 6.662646,7.68326 4.621296,0 5.783682,-3.28877 6.294033,-4.70635 l -1.701096,-0.28354 c -0.339971,0.9356 -1.275822,3.57229 -4.507916,3.57229 -3.260397,0 -4.876416,-2.52328 -4.933134,-6.06723 z m -11.283886,-1.41758 c 0.567013,-4.81975 3.912488,-5.04657 4.791395,-5.04657 2.098011,0 4.337761,1.13406 4.678014,5.04657 z"
         style="font-style:normal;font-variant:normal;font-weight:normal;font-stretch:normal;font-size:15px;line-height:125%;font-family:'Arial MT Std';-inkscape-font-specification:'Arial MT Std';font-variant-ligatures:no-common-ligatures;letter-spacing:0px;word-spacing:0px;writing-mode:lr-tb;white-space:pre;fill:#898d8d;fill-opacity:1;stroke:none;stroke-width:1.41981;stroke-linecap:butt;stroke-linejoin:miter;stroke-miterlimit:4;stroke-dasharray:none;stroke-opacity:1"
         id="path894" />
      <path
         d="m -34.717024,464.61402 v 20.29969 h 1.701096 v -6.06722 l 2.239807,-1.98461 5.585224,8.05183 h 2.239807 l -6.577568,-9.21425 6.123935,-5.47184 h -2.409905 l -7.2013,6.80437 v -12.41797 z"
         style="font-style:normal;font-variant:normal;font-weight:normal;font-stretch:normal;font-size:15px;line-height:125%;font-family:'Arial MT Std';-inkscape-font-specification:'Arial MT Std';font-variant-ligatures:no-common-ligatures;letter-spacing:0px;word-spacing:0px;writing-mode:lr-tb;white-space:pre;fill:#898d8d;fill-opacity:1;stroke:none;stroke-width:1.41981;stroke-linecap:butt;stroke-linejoin:miter;stroke-miterlimit:4;stroke-dasharray:none;stroke-opacity:1"
         id="path896" />
      <path
         d="m -17.2588,465.35116 -1.701096,1.10571 v 3.77075 h -2.041293 v 1.27582 h 2.041293 v 9.86633 c 0,1.64439 -0.05694,3.77076 3.118658,3.77076 0.510238,0 0.907266,-0.0567 1.814532,-0.22682 l -0.226647,-1.38923 c -0.878907,0.1701 -1.134083,0.19846 -1.3609,0.19846 -1.44592,0 -1.644378,-0.76549 -1.644378,-2.57999 v -9.63952 h 2.750102 v -1.27582 h -2.750102 z"
         style="font-style:normal;font-variant:normal;font-weight:normal;font-stretch:normal;font-size:15px;line-height:125%;font-family:'Arial MT Std';-inkscape-font-specification:'Arial MT Std';font-variant-ligatures:no-common-ligatures;letter-spacing:0px;word-spacing:0px;writing-mode:lr-tb;white-space:pre;fill:#898d8d;fill-opacity:1;stroke:none;stroke-width:1.41981;stroke-linecap:butt;stroke-linejoin:miter;stroke-miterlimit:4;stroke-dasharray:none;stroke-opacity:1"
         id="path898" />
      <path
         d="m -10.495854,470.22762 v 14.68609 h 1.7010962 v -14.68609 z m 0,-5.6136 v 2.60834 h 1.7010962 v -2.60834 z"
         style="font-style:normal;font-variant:normal;font-weight:normal;font-stretch:normal;font-size:15px;line-height:125%;font-family:'Arial MT Std';-inkscape-font-specification:'Arial MT Std';font-variant-ligatures:no-common-ligatures;letter-spacing:0px;word-spacing:0px;writing-mode:lr-tb;white-space:pre;fill:#898d8d;fill-opacity:1;stroke:none;stroke-width:1.41981;stroke-linecap:butt;stroke-linejoin:miter;stroke-miterlimit:4;stroke-dasharray:none;stroke-opacity:1"
         id="path900" />
      <path
         d="m 7.9512751,477.65572 c 0,-5.07493 -2.6083626,-7.76832 -6.5775684,-7.76832 -4.025924,0 -6.5208501,2.69339 -6.5492092,7.76832 -0.02819,4.42284 2.4099051,7.59821 6.5492092,7.59821 4.5645782,0 6.5775684,-3.26042 6.5775684,-7.59821 z m -1.8145327,0 c 0,3.94087 -1.8711946,6.18064 -4.6779583,6.18064 -2.8068201,0 -4.8197539,-2.15472 -4.8197539,-6.18064 0,-3.62899 1.5593007,-6.35074 4.7913948,-6.35074 2.9769184,0 4.7063174,2.32483 4.7063174,6.35074 z"
         style="font-style:normal;font-variant:normal;font-weight:normal;font-stretch:normal;font-size:15px;line-height:125%;font-family:'Arial MT Std';-inkscape-font-specification:'Arial MT Std';font-variant-ligatures:no-common-ligatures;letter-spacing:0px;word-spacing:0px;writing-mode:lr-tb;white-space:pre;fill:#898d8d;fill-opacity:1;stroke:none;stroke-width:1.41981;stroke-linecap:butt;stroke-linejoin:miter;stroke-miterlimit:4;stroke-dasharray:none;stroke-opacity:1"
         id="path902" />
      <path
         d="m 10.990211,470.22762 v 14.68609 h 1.70104 v -6.37909 c 0,-2.49493 0.08513,-3.629 0.510239,-4.53625 0.765471,-1.64439 2.466567,-2.60834 4.054283,-2.60834 1.190745,0 2.239751,0.51035 2.835123,1.38923 0.510239,0.73714 0.567013,1.8145 0.567013,3.00526 v 9.12919 h 1.701096 v -9.58281 c 0,-0.8789 0.02819,-2.66504 -1.048949,-3.88417 -0.482048,-0.53865 -1.672793,-1.55933 -3.884185,-1.55933 -2.77846,0 -3.884184,1.41758 -4.678014,2.49494 h -0.05638 v -2.15472 z"
         style="font-style:normal;font-variant:normal;font-weight:normal;font-stretch:normal;font-size:15px;line-height:125%;font-family:'Arial MT Std';-inkscape-font-specification:'Arial MT Std';font-variant-ligatures:no-common-ligatures;letter-spacing:0px;word-spacing:0px;writing-mode:lr-tb;white-space:pre;fill:#898d8d;fill-opacity:1;stroke:none;stroke-width:1.41981;stroke-linecap:butt;stroke-linejoin:miter;stroke-miterlimit:4;stroke-dasharray:none;stroke-opacity:1"
         id="path904" />
      <path
         d="m 35.24318,470.22762 v 14.68609 h 1.701096 v -14.68609 z m 0,-5.6136 v 2.60834 h 1.701096 v -2.60834 z"
         style="font-style:normal;font-variant:normal;font-weight:normal;font-stretch:normal;font-size:15px;line-height:125%;font-family:'Arial MT Std';-inkscape-font-specification:'Arial MT Std';font-variant-ligatures:no-common-ligatures;letter-spacing:0px;word-spacing:0px;writing-mode:lr-tb;white-space:pre;fill:#898d8d;fill-opacity:1;stroke:none;stroke-width:1.41981;stroke-linecap:butt;stroke-linejoin:miter;stroke-miterlimit:4;stroke-dasharray:none;stroke-opacity:1"
         id="path906" />
      <path
         d="m 41.52746,470.22762 v 14.68609 h 1.701096 v -6.37909 c 0,-2.49493 0.08513,-3.629 0.510239,-4.53625 0.765471,-1.64439 2.466567,-2.60834 4.054227,-2.60834 1.190801,0 2.239806,0.51035 2.835179,1.38923 0.510238,0.73714 0.567013,1.8145 0.567013,3.00526 v 9.12919 h 1.701096 v -9.58281 c 0,-0.8789 0.02819,-2.66504 -1.049005,-3.88417 -0.482049,-0.53865 -1.672737,-1.55933 -3.884185,-1.55933 -2.778405,0 -3.884129,1.41758 -4.677958,2.49494 h -0.05694 v -2.15472 z"
         style="font-style:normal;font-variant:normal;font-weight:normal;font-stretch:normal;font-size:15px;line-height:125%;font-family:'Arial MT Std';-inkscape-font-specification:'Arial MT Std';font-variant-ligatures:no-common-ligatures;letter-spacing:0px;word-spacing:0px;writing-mode:lr-tb;white-space:pre;fill:#898d8d;fill-opacity:1;stroke:none;stroke-width:1.41981;stroke-linecap:butt;stroke-linejoin:miter;stroke-miterlimit:4;stroke-dasharray:none;stroke-opacity:1"
         id="path908" />
      <path
         d="m 65.427377,464.61402 v 20.29969 h 1.757758 v -18.34344 h 0.08513 l 6.577568,18.34344 h 1.616019 l 6.690949,-18.34344 h 0.08513 v 18.34344 h 1.757759 v -20.29969 h -2.863482 l -6.464132,17.57795 -6.379111,-17.57795 z"
         style="font-style:normal;font-variant:normal;font-weight:normal;font-stretch:normal;font-size:15px;line-height:125%;font-family:'Arial MT Std';-inkscape-font-specification:'Arial MT Std';font-variant-ligatures:no-common-ligatures;letter-spacing:0px;word-spacing:0px;writing-mode:lr-tb;white-space:pre;fill:#898d8d;fill-opacity:1;stroke:none;stroke-width:1.41981;stroke-linecap:butt;stroke-linejoin:miter;stroke-miterlimit:4;stroke-dasharray:none;stroke-opacity:1"
         id="path911" />
      <path
         d="m 99.982036,477.76913 c -0.02819,-1.47428 -0.05694,-7.88173 -6.435773,-7.88173 -4.309458,0 -6.691004,3.06197 -6.691004,7.68327 0,4.70635 2.438264,7.68326 6.662645,7.68326 4.621297,0 5.783682,-3.28877 6.294034,-4.70635 l -1.701096,-0.28354 c -0.339972,0.9356 -1.275823,3.57229 -4.507917,3.57229 -3.260397,0 -4.876472,-2.52328 -4.933134,-6.06723 z M 88.69815,476.35155 c 0.567014,-4.81975 3.912488,-5.04657 4.791395,-5.04657 2.098011,0 4.337762,1.13406 4.678015,5.04657 z"
         style="font-style:normal;font-variant:normal;font-weight:normal;font-stretch:normal;font-size:15px;line-height:125%;font-family:'Arial MT Std';-inkscape-font-specification:'Arial MT Std';font-variant-ligatures:no-common-ligatures;letter-spacing:0px;word-spacing:0px;writing-mode:lr-tb;white-space:pre;fill:#898d8d;fill-opacity:1;stroke:none;stroke-width:1.41981;stroke-linecap:butt;stroke-linejoin:miter;stroke-miterlimit:4;stroke-dasharray:none;stroke-opacity:1"
         id="path913" />
      <path
         d="m 105.40782,465.35116 -1.7011,1.10571 v 3.77075 h -2.04129 v 1.27582 h 2.04129 v 9.86633 c 0,1.64439 -0.0569,3.77076 3.11872,3.77076 0.51023,0 0.90721,-0.0567 1.81447,-0.22682 l -0.22665,-1.38923 c -0.8789,0.1701 -1.13408,0.19846 -1.36084,0.19846 -1.44598,0 -1.64443,-0.76549 -1.64443,-2.57999 v -9.63952 h 2.7501 v -1.27582 h -2.7501 z"
         style="font-style:normal;font-variant:normal;font-weight:normal;font-stretch:normal;font-size:15px;line-height:125%;font-family:'Arial MT Std';-inkscape-font-specification:'Arial MT Std';font-variant-ligatures:no-common-ligatures;letter-spacing:0px;word-spacing:0px;writing-mode:lr-tb;white-space:pre;fill:#898d8d;fill-opacity:1;stroke:none;stroke-width:1.41981;stroke-linecap:butt;stroke-linejoin:miter;stroke-miterlimit:4;stroke-dasharray:none;stroke-opacity:1"
         id="path915" />
      <path
         d="m 113.74123,474.48035 c 0.2554,-1.07736 0.73717,-3.26043 4.56463,-3.26043 3.85577,0 3.85577,2.12637 3.85577,3.94087 v 0.51035 c -1.36084,0.48199 -2.9202,0.68044 -4.39448,0.87889 -3.2604,0.45364 -3.94084,0.90725 -4.47956,1.33253 -1.3892,1.049 -1.64437,2.32482 -1.64437,3.28878 0,1.95625 1.30418,4.08262 4.67801,4.08262 3.60065,0 5.33011,-1.8712 5.98214,-2.58 0.11332,0.99231 0.19846,1.36088 0.53899,2.23978 h 1.89956 c -0.65209,-1.36087 -0.90727,-2.04131 -0.90727,-4.64965 0,-0.62374 0.0569,-3.82746 0.0569,-4.13933 0,-3.45888 -0.0282,-6.23734 -5.58528,-6.23734 -3.85582,0 -5.75538,1.27582 -6.32239,4.33779 z m 8.4204,3.48724 c 0,2.32482 -0.48205,3.48724 -1.531,4.33778 -1.2191,0.99231 -2.7784,1.53099 -3.9692,1.53099 -1.67274,0 -3.20374,-1.13406 -3.20374,-2.80681 0,-2.21142 2.09801,-2.57998 4.02598,-2.9202 1.41756,-0.25518 3.45886,-0.65209 4.67796,-1.10571 z"
         style="font-style:normal;font-variant:normal;font-weight:normal;font-stretch:normal;font-size:15px;line-height:125%;font-family:'Arial MT Std';-inkscape-font-specification:'Arial MT Std';font-variant-ligatures:no-common-ligatures;letter-spacing:0px;word-spacing:0px;writing-mode:lr-tb;white-space:pre;fill:#898d8d;fill-opacity:1;stroke:none;stroke-width:1.41981;stroke-linecap:butt;stroke-linejoin:miter;stroke-miterlimit:4;stroke-dasharray:none;stroke-opacity:1"
         id="path917" />
      <path
         style="font-style:italic;font-variant:normal;font-size:94.9564px;font-family:Arial;-inkscape-font-specification:'Arial Italic';writing-mode:lr-tb;fill:#bb4077;fill-opacity:1;fill-rule:nonzero;stroke:none;stroke-width:0.994481;stroke-linecap:butt;stroke-linejoin:miter;stroke-miterlimit:10;stroke-dasharray:none;stroke-opacity:1"
         sodipodi:nodetypes="ccccccccccc"
         inkscape:connector-curvature="0"
         id="path971"
         d="m -214.71664,491.04068 1.75218,-13.55622 89.91352,-106.23626 h -72.48411 l 3.22764,-15.40058 h 93.233403 l -1.567703,14.10953 -89.54463,105.68295 h 78.93944 l -3.22769,15.40058 z"
         inkscape:label="Z pink" />
    </g>
  </g>
</svg>
