<?xml version="1.0" encoding="UTF-8" standalone="no"?>
<!-- Created with Inkscape (http://www.inkscape.org/) -->

<svg
   width="13.567396mm"
   height="14.0399mm"
   viewBox="0 0 13.567396 14.0399"
   version="1.1"
   id="svg7031"
   inkscape:version="1.1.1 (3bf5ae0d25, 2021-09-20)"
   sodipodi:docname="instagram-icon.svg"
   xmlns:inkscape="http://www.inkscape.org/namespaces/inkscape"
   xmlns:sodipodi="http://sodipodi.sourceforge.net/DTD/sodipodi-0.dtd"
   xmlns="http://www.w3.org/2000/svg"
   xmlns:svg="http://www.w3.org/2000/svg">
  <sodipodi:namedview
     id="namedview7033"
     pagecolor="#ffffff"
     bordercolor="#999999"
     borderopacity="1"
     inkscape:pageshadow="0"
     inkscape:pageopacity="0"
     inkscape:pagecheckerboard="0"
     inkscape:document-units="mm"
     showgrid="false"
     inkscape:zoom="10.618967"
     inkscape:cx="8.7108285"
     inkscape:cy="21.894785"
     inkscape:window-width="1920"
     inkscape:window-height="1002"
     inkscape:window-x="-8"
     inkscape:window-y="-8"
     inkscape:window-maximized="1"
     inkscape:current-layer="layer1"
     fit-margin-top="0"
     fit-margin-left="0"
     fit-margin-right="0"
     fit-margin-bottom="0" />
  <defs
     id="defs7028" />
  <g
     inkscape:label="Ebene 1"
     inkscape:groupmode="layer"
     id="layer1"
     transform="translate(-38.214792,-171.52888)">
    <path
       id="path36131"
       style="vector-effect:none;fill:#666666;fill-opacity:1;fill-rule:evenodd;stroke:none;stroke-width:0.543689;stop-color:#000000"
       d="m 47.937207,171.52899 -7.386618,5.2e-4 c -1.293991,0 -2.335797,1.0418 -2.335797,2.33578 v 7.88014 c 0,1.06617 0.707582,1.96024 1.680535,2.24225 -0.06023,-0.20769 -0.09308,-0.42717 -0.09308,-0.65475 v -7.88014 c 0,-1.29398 1.041806,-2.33578 2.335797,-2.33578 l 7.386618,-5.2e-4 c 0.227728,0 0.447457,0.0328 0.655261,0.0929 -0.281965,-0.97289 -1.176529,-1.68051 -2.242761,-1.68051 z"
       sodipodi:nodetypes="ccsscssccccccc" />
    <path
       id="path86172"
       style="fill:#bb4077;fill-opacity:1;stroke:none;stroke-width:0.0246452"
       d="m 42.060468,173.01725 h 7.386031 c 1.293971,0 2.335689,1.04172 2.335689,2.3357 v 7.88015 c 0,1.29397 -1.041718,2.33568 -2.335689,2.33568 h -7.386031 c -1.293975,0 -2.335693,-1.04171 -2.335693,-2.33568 v -7.88015 c 0,-1.29398 1.041718,-2.3357 2.335693,-2.3357 z m 3.675645,2.84753 c -0.207134,0 -0.414126,0.0122 -0.559733,0.0358 -0.267565,0.0434 -0.744637,0.19516 -0.969356,0.30843 -0.663953,0.33466 -1.240917,0.91162 -1.575577,1.57558 -0.113268,0.22472 -0.265034,0.7018 -0.30843,0.96936 -0.04723,0.29121 -0.04723,0.82826 0,1.11946 0.0434,0.26756 0.195162,0.74464 0.30843,0.96936 0.498185,0.98838 1.459815,1.7036 2.534283,1.88449 0.264346,0.0445 0.854916,0.0444 1.130113,0 0.267561,-0.0434 0.745121,-0.19564 0.969844,-0.30892 0.663953,-0.33465 1.240912,-0.91162 1.575576,-1.57557 0.113265,-0.22472 0.265034,-0.7018 0.308431,-0.96936 0.04723,-0.2912 0.04723,-0.82825 0,-1.11946 -0.0434,-0.26756 -0.195166,-0.74464 -0.308431,-0.96936 -0.334664,-0.66396 -0.911623,-1.24092 -1.575576,-1.57558 -0.224723,-0.11327 -0.702283,-0.26504 -0.969844,-0.30843 -0.145603,-0.0236 -0.352595,-0.0358 -0.55973,-0.0358 z m -0.0078,1.27053 c 0.34835,-0.002 0.70293,0.0792 1.03279,0.25711 1.179014,0.63576 1.515108,2.15079 0.71564,3.22475 -0.482464,0.6481 -1.328202,0.98374 -2.11642,0.84007 -1.318457,-0.24031 -2.113009,-1.58541 -1.683061,-2.84949 0.309056,-0.90867 1.160807,-1.46576 2.051051,-1.47244 z m 3.855213,-0.45908 c 0.299432,-0.0568 0.615781,-0.2801 0.739016,-0.52166 0.176323,-0.34562 0.162979,-0.7629 -0.03423,-1.07007 -0.06826,-0.10631 -0.2381,-0.27312 -0.346411,-0.34022 -0.206192,-0.12773 -0.564833,-0.17768 -0.807178,-0.11242 -0.396713,0.10682 -0.695979,0.44622 -0.765988,0.86872 -0.08524,0.5144 0.283123,1.05137 0.797904,1.16314 0.1944,0.0422 0.251265,0.0439 0.416875,0.0125 z" />
  </g>
</svg>
