<?xml version="1.0" encoding="UTF-8" standalone="no"?>
<!-- Created with Inkscape (http://www.inkscape.org/) -->

<svg
   width="87.693169mm"
   height="75.781494mm"
   viewBox="0 0 87.693169 75.781494"
   version="1.1"
   id="svg5"
   inkscape:version="1.1.1 (3bf5ae0d25, 2021-09-20)"
   sodipodi:docname="isocert.svg"
   xmlns:inkscape="http://www.inkscape.org/namespaces/inkscape"
   xmlns:sodipodi="http://sodipodi.sourceforge.net/DTD/sodipodi-0.dtd"
   xmlns="http://www.w3.org/2000/svg"
   xmlns:svg="http://www.w3.org/2000/svg">
  <sodipodi:namedview
     id="namedview7"
     pagecolor="#ffffff"
     bordercolor="#999999"
     borderopacity="1"
     inkscape:pageshadow="0"
     inkscape:pageopacity="0"
     inkscape:pagecheckerboard="0"
     inkscape:document-units="mm"
     showgrid="false"
     inkscape:zoom="1.877186"
     inkscape:cx="320.42643"
     inkscape:cy="196.30447"
     inkscape:window-width="1920"
     inkscape:window-height="1002"
     inkscape:window-x="-8"
     inkscape:window-y="-8"
     inkscape:window-maximized="1"
     inkscape:current-layer="g34141"
     showguides="true"
     inkscape:guide-bbox="true"
     inkscape:snap-intersection-paths="true"
     fit-margin-top="0"
     fit-margin-left="0"
     fit-margin-right="0"
     fit-margin-bottom="0">
    <inkscape:grid
       type="xygrid"
       id="grid1345"
       originx="-0.77693897"
       originy="-173.99831" />
    <sodipodi:guide
       position="23.74051,64.603294"
       orientation="0,-1"
       id="guide18314" />
    <sodipodi:guide
       position="23.740509,64.603294"
       orientation="0,-1"
       id="guide18316" />
    <sodipodi:guide
       position="24.936483,63.606654"
       orientation="0,-1"
       id="guide18318" />
  </sodipodi:namedview>
  <defs
     id="defs2">
    <rect
       x="-446.41287"
       y="894.9566"
       width="292.99176"
       height="114.00043"
       id="rect24794" />
    <rect
       x="41.435291"
       y="613.24231"
       width="296.82736"
       height="92.664375"
       id="rect1789" />
    <filter
       inkscape:collect="always"
       style="color-interpolation-filters:sRGB"
       id="filter34291"
       x="-0.011166798"
       y="-0.012967566"
       width="1.0223336"
       height="1.0259351">
      <feGaussianBlur
         inkscape:collect="always"
         stdDeviation="0.39910807"
         id="feGaussianBlur34293" />
    </filter>
  </defs>
  <g
     inkscape:label="Ebene 1"
     inkscape:groupmode="layer"
     id="layer1"
     transform="translate(-0.77693897,-173.99831)">
    <path
       id="circle21184"
       style="display:none;fill:none;fill-opacity:0.619608;fill-rule:evenodd;stroke:#000000;stroke-width:1.22005;stroke-linejoin:round;paint-order:markers stroke fill;stop-color:#000000"
       d="M 8.1325898,221.4849 A 31.234937,31.434266 0.12681495 0 0 39.297876,252.98822 31.234937,31.434266 0.12681495 0 0 70.602303,221.62316 31.234937,31.434266 0.12681495 0 0 39.437018,190.11984 31.234937,31.434266 0.12681495 0 0 8.1325898,221.4849 Z" />
    <path
       style="display:none;fill:none;stroke:#000000;stroke-width:0.393842"
       d="m -11.497295,323.2783 c 1.9071978,-3.97188 7.4792853,-11.75593 10.84707695,-16.05333 7.72528945,-9.85769 15.49438905,-16.20044 22.77919505,-19.71819 4.222078,-2.03879 11.307193,-5.73671 14.695543,-6.91843 1.573464,-0.54875 2.071979,-0.91432 2.085669,-1.52946"
       id="path23815"
       sodipodi:nodetypes="csssc" />
    <g
       id="g32169"
       style="mix-blend-mode:normal;filter:url(#filter34291)">
      <path
         style="fill:#000000;stroke-width:0.393842"
         d="m 32.134978,230.22164 c -3.557947,-5.62577 -6.608962,-9.53957 -10.142769,-13.01098 l -3.339904,-3.28095 0.495523,-5.18668 c 0.272536,-2.85266 0.622809,-5.33014 0.778381,-5.50551 0.526036,-0.59293 6.325672,4.47501 8.980424,7.84745 1.450669,1.84284 3.533217,4.91157 4.627884,6.81938 l 1.990301,3.46878 1.723609,-3.36607 c 6.768151,-13.21765 18.412068,-25.52632 32.559058,-34.41788 3.84808,-2.41857 14.818733,-7.92896 16.698969,-8.38765 l 1.005791,-0.24536 -0.495493,5.43863 c -0.27252,2.99125 -0.50359,5.8024 -0.513488,6.24698 -0.01369,0.61514 -0.512205,0.98071 -2.085669,1.52946 -3.38835,1.18172 -11.25704,5.04003 -15.259329,7.48222 -8.162668,4.98085 -16.409096,12.11915 -22.779196,19.71819 -3.507486,4.18416 -8.376092,11.51766 -10.28329,15.48954 -0.745845,1.55328 -1.454761,2.81546 -1.575372,2.80483 -0.120616,-0.0104 -1.194055,-1.56059 -2.38543,-3.44438 z"
         id="path145" />
      <g
         id="g23774"
         transform="rotate(69.705152,42.439497,215.58932)">
        <path
           style="color:#000000;fill:#000000;fill-rule:evenodd;stroke-linejoin:round;-inkscape-stroke:none;paint-order:markers stroke fill"
           d="m 140.17969,683.20508 c -16.88168,-0.65017 -33.7249,2.03089 -49.570315,7.89062 -66.610142,24.63367 -100.67161,98.66874 -76.039062,165.2793 24.632855,66.61093 98.668237,100.67352 165.279297,76.04102 61.19339,-22.62907 94.92867,-86.93292 80.90234,-148.90625 a 2.4569407,2.4569407 0 0 0 -3.49414,-1.65625 c -0.80642,0.40313 -1.65164,0.98268 -2.90429,1.8496 -1.25266,0.86693 -2.80449,1.98156 -4.55469,3.26172 -3.50041,2.56034 -7.79008,5.78049 -11.96094,8.94141 -8.34173,6.32184 -16.20312,12.40234 -16.20312,12.40234 a 2.4569407,2.4569407 0 0 0 -0.95313,1.98243 c 0.56913,35.39813 -20.98402,68.68971 -55.82422,81.57812 -44.2734,16.37251 -93.369122,-6.21313 -109.742186,-50.48633 -16.372511,-44.2734 6.213126,-93.36912 50.486326,-109.74219 9.89727,-3.66026 20.3883,-5.45475 30.93946,-5.29296 17.97159,0.29932 35.39425,6.26004 49.84179,16.97851 a 2.4569407,2.4569407 0 0 0 3.22656,-0.26367 c 8.86582,-9.13894 18.24694,-17.84897 28.13086,-26.11914 a 2.4569407,2.4569407 0 0 0 0.002,-3.76758 c -21.82248,-18.29979 -49.10114,-28.84111 -77.5586,-29.9707 a 2.4569407,2.4569407 0 0 0 -0.004,0 z m -0.19141,4.91015 c 26.40975,1.04832 51.71538,10.59518 72.31836,27.07032 -8.62729,7.33693 -16.88426,15.00035 -24.73633,23.0039 -14.92121,-10.54558 -32.64717,-16.45106 -50.94726,-16.75586 a 2.4569407,2.4569407 0 0 0 -0.004,0 c -11.15942,-0.17162 -22.25288,1.72639 -32.7207,5.59766 -46.763721,17.2941 -70.686101,69.29076 -53.392581,116.05469 17.294103,46.76371 69.290761,70.68609 116.054691,53.39258 36.38488,-13.45984 59.07196,-48.02739 59.0039,-84.99024 0.82296,-0.63613 7.39824,-5.7229 15.24024,-11.66601 4.15866,-3.15168 8.43496,-6.36213 11.89453,-8.89258 1.51393,-1.10735 2.77917,-2.00871 3.89453,-2.78907 11.44892,58.49577 -20.70867,118.31452 -78.44727,139.66602 -64.1205,23.71151 -135.254943,-9.01437 -158.966793,-73.13477 -23.7115528,-64.12003 9.01318,-135.25416 73.132813,-158.96679 15.23906,-5.6355 31.44012,-8.21462 47.67578,-7.58985 z"
           id="path30045"
           transform="matrix(0.09177108,-0.24815803,0.24815803,0.09177108,-174.48626,180.61674)" />
        <g
           aria-label="ISO 1090-2 "
           id="text1787"
           style="font-size:8.46667px;line-height:125%;font-family:'Times New Roman';-inkscape-font-specification:'Times New Roman, ';font-variant-ligatures:no-common-ligatures;text-align:center;letter-spacing:0px;word-spacing:0px;text-anchor:middle;white-space:pre;stroke-width:1px">
          <path
             d="m 21.782748,240.13774 0.921061,0.83056 -4.030978,4.47022 -0.921062,-0.83056 z"
             style="font-weight:bold;font-family:Roboto;-inkscape-font-specification:'Roboto Bold'"
             id="path23605" />
          <path
             d="m 17.706605,237.96924 q -0.271492,0.2231 -0.25774,0.53285 0.01056,0.31238 0.260312,0.94188 0.246561,0.63213 0.328903,1.0514 0.222931,1.14383 -0.502112,1.73964 -0.376895,0.30971 -0.843976,0.34038 -0.4729,0.0301 -0.964454,-0.22947 -0.494179,-0.26277 -0.90101,-0.75784 -0.409456,-0.49827 -0.547612,-1.03755 -0.14135,-0.53665 0.01178,-1.021 0.150503,-0.48754 0.56892,-0.83138 l 0.787415,0.95821 q -0.319402,0.26247 -0.329716,0.60805 -0.01351,0.34821 0.28571,0.71233 0.288719,0.35134 0.598945,0.42282 0.307033,0.0741 0.549779,-0.12538 0.226775,-0.18636 0.193734,-0.53912 -0.03567,-0.35596 -0.266354,-0.91016 -0.425987,-1.01978 -0.368961,-1.69269 0.05703,-0.67292 0.600011,-1.11912 0.60367,-0.49608 1.323959,-0.3228 0.717095,0.1759 1.352276,0.94885 0.440953,0.5366 0.608328,1.13748 0.164182,0.60351 0.01403,1.11752 -0.152781,0.51081 -0.603138,0.8809 l -0.79004,-0.9614 q 0.769759,-0.63256 0.01384,-1.55244 -0.280845,-0.34176 -0.575671,-0.42054 -0.29802,-0.0762 -0.547153,0.12858 z"
             style="font-weight:bold;font-family:Roboto;-inkscape-font-specification:'Roboto Bold'"
             id="path23607" />
          <path
             d="m 12.851723,232.19775 q 0.791629,-0.40416 1.530981,-0.42887 0.739352,-0.0247 1.330305,0.33272 0.589074,0.35373 0.933086,1.02754 0.340252,0.66644 0.286856,1.35283 -0.0534,0.68639 -0.499569,1.27624 -0.449856,0.59173 -1.221195,0.99018 l -0.265104,0.13535 q -0.79163,0.40417 -1.536543,0.42707 -0.750475,0.0211 -1.335867,-0.33452 -0.590954,-0.35742 -0.933086,-1.02754 -0.342132,-0.67012 -0.283174,-1.35471 0.0534,-0.68639 0.512495,-1.2782 0.453538,-0.59361 1.241485,-0.9959 z m 0.328461,1.2434 q -0.843177,0.43049 -1.127188,0.95611 -0.28401,0.52563 0.0017,1.08529 0.283857,0.55598 0.87248,0.63608 0.584941,0.082 1.422634,-0.34106 l 0.261422,-0.13347 q 0.821085,-0.4192 1.119823,-0.95235 0.298739,-0.53314 0.0092,-1.10017 -0.283856,-0.55598 -0.870599,-0.6324 -0.590425,-0.0745 -1.428118,0.3485 z"
             style="font-weight:bold;font-family:Roboto;-inkscape-font-specification:'Roboto Bold'"
             id="path23609" />
          <path
             d="m 14.041132,225.25854 0.212356,1.17574 -4.5320764,0.81856 0.6888114,1.32494 -0.9560481,0.17267 -1.3218327,-2.29446 -0.022779,-0.12612 z"
             style="font-weight:bold;font-family:Roboto;-inkscape-font-specification:'Roboto Bold'"
             id="path23611" />
          <path
             d="m 11.323466,219.2363 q 1.24844,0.0126 1.90467,0.53594 0.65623,0.52338 0.646214,1.51966 -0.0099,0.98387 -0.664151,1.49821 -0.65426,0.51435 -1.86562,0.51457 l -1.107887,-0.0111 q -1.2608416,-0.0127 -1.9087624,-0.54012 -0.6478791,-0.53157 -0.6379877,-1.51544 0.00989,-0.98387 0.6641515,-1.49822 0.6501261,-0.51439 1.8614856,-0.51461 z m -1.22738,1.18248 q -0.7482368,-0.008 -1.0892952,0.19576 -0.3451508,0.19911 -0.3495146,0.63317 -0.00424,0.42166 0.320303,0.62751 0.3204499,0.20167 1.0106877,0.22101 l 1.4634031,0.0147 q 0.735836,0.007 1.09748,-0.18741 0.357553,-0.19899 0.362,-0.64132 0.0044,-0.43819 -0.336756,-0.63594 -0.341161,-0.19774 -1.047976,-0.21311 z"
             style="font-weight:bold;font-family:Roboto;-inkscape-font-specification:'Roboto Bold'"
             id="path23613" />
          <path
             d="m 12.090609,215.23347 q 0.357409,0.5487 0.233923,1.16062 -0.157833,0.78211 -0.787616,1.14425 -0.633836,0.36131 -1.5456316,0.17731 -0.5794966,-0.11694 -1.0110323,-0.46551 -0.4347702,-0.35344 -0.610638,-0.86128 -0.1799202,-0.50867 -0.06543,-1.07601 0.1177614,-0.58355 0.5011282,-0.97854 0.3833667,-0.39499 0.9811468,-0.53584 0.5977799,-0.14085 1.3037199,-0.003 l 0.433609,0.0875 q 1.475083,0.29768 2.169967,1.20126 0.694885,0.90359 0.480113,2.26045 l -0.05401,0.28854 -0.976634,-0.19709 0.04829,-0.26017 q 0.239414,-1.54167 -1.100901,-1.94289 z m -0.6036,0.69216 q 0.05724,-0.28367 -0.04775,-0.51573 -0.10418,-0.23611 -0.289591,-0.38318 l -0.482238,-0.0973 q -0.595707,-0.12021 -0.9697491,0.0405 -0.3740424,0.16069 -0.4509145,0.54162 -0.071148,0.35256 0.2072503,0.64492 0.2743454,0.29154 0.7606363,0.38968 0.482238,0.0973 0.838436,-0.0585 0.352962,-0.16073 0.433923,-0.56192 z"
             style="font-weight:bold;font-family:Roboto;-inkscape-font-specification:'Roboto Bold'"
             id="path23615" />
          <path
             d="m 14.176009,209.00198 q 1.154606,0.47503 1.569704,1.20459 0.415097,0.72957 0.03602,1.65096 -0.374353,0.90992 -1.172783,1.1447 -0.79843,0.23477 -1.923346,-0.21462 l -1.024617,-0.42154 q -1.166076,-0.47974 -1.571954,-1.20999 -0.4043055,-0.73406 -0.02995,-1.64399 0.374354,-0.90992 1.172784,-1.14469 0.794606,-0.23635 1.919523,0.21304 z m -1.578593,0.64247 q -0.691999,-0.2847 -1.084147,-0.22251 -0.394399,0.0568 -0.559555,0.45822 -0.160437,0.38996 0.06452,0.70156 0.222709,0.3062 0.856465,0.58035 l 1.353412,0.55681 q 0.68053,0.27998 1.088648,0.23331 0.405868,-0.0521 0.57417,-0.46115 0.166729,-0.40526 -0.07667,-0.7155 -0.243399,-0.31024 -0.89402,-0.58686 z"
             style="font-weight:bold;font-family:Roboto;-inkscape-font-specification:'Roboto Bold'"
             id="path23617" />
          <path
             d="m 16.356264,206.13535 -1.216537,1.98427 -0.821199,-0.50347 1.216538,-1.98427 z"
             style="font-weight:bold;font-family:Roboto;-inkscape-font-specification:'Roboto Bold'"
             id="path23619" />
          <path
             d="m 21.310976,203.31765 -2.68505,3.13259 -0.621496,-0.53271 -0.308519,-2.829 q -0.07175,-0.58966 -0.19596,-0.94659 -0.12152,-0.36007 -0.34438,-0.55109 -0.30447,-0.26097 -0.608939,-0.25514 -0.307608,0.003 -0.552437,0.28878 -0.263662,0.30761 -0.203574,0.66947 0.05964,0.35604 0.404916,0.65198 l -0.780225,0.91028 q -0.417469,-0.35783 -0.593248,-0.85153 -0.173088,-0.49683 -0.05561,-1.02775 0.114341,-0.5336 0.509835,-0.99502 0.605347,-0.70624 1.277958,-0.8049 0.675302,-0.10179 1.293659,0.42823 0.338998,0.29056 0.539887,0.76767 0.200889,0.4771 0.302682,1.30486 l 0.204933,1.97793 1.684209,-1.96493 z"
             style="font-weight:bold;font-family:Roboto;-inkscape-font-specification:'Roboto Bold'"
             id="path23621" />
        </g>
        <circle
           style="fill:none;fill-opacity:0.619608;fill-rule:evenodd;stroke:none;stroke-width:1.43011;stroke-linejoin:round;stroke-miterlimit:4;stroke-dasharray:none;stroke-opacity:1;paint-order:markers stroke fill;stop-color:#000000"
           id="circle10936"
           cx="39.367447"
           cy="221.55403"
           r="25.577099" />
        <g
           aria-label="zertifiziert"
           id="text18312"
           style="font-size:8.46667px;line-height:125%;font-family:'Times New Roman';-inkscape-font-specification:'Times New Roman, ';font-variant-ligatures:no-common-ligatures;text-align:center;letter-spacing:0.529167px;word-spacing:0px;text-anchor:middle;white-space:pre;display:inline;stroke-width:1px">
          <path
             d="m 62.93384,240.68242 1.352215,-1.71879 0.757049,0.59558 -2.295442,2.91773 -0.571849,-0.44989 -0.882329,-3.37156 -1.262749,1.60508 -0.760298,-0.59815 2.216201,-2.817 0.555603,0.43711 z"
             style="font-weight:bold;font-family:Roboto;-inkscape-font-specification:'Roboto Bold'"
             id="path23624" />
          <path
             d="m 66.791449,236.78676 q -0.480167,0.8588 -1.30962,1.1055 -0.827436,0.2431 -1.704278,-0.24716 l -0.101035,-0.0565 q -0.58817,-0.32885 -0.922943,-0.81442 -0.338381,-0.48759 -0.355348,-1.04176 -0.01856,-0.5598 0.280034,-1.09385 0.447887,-0.80106 1.209287,-0.97688 0.763417,-0.17943 1.690777,0.33907 l 0.425792,0.23807 -1.390063,2.48619 q 0.410736,0.16334 0.782899,0.0399 0.374181,-0.12708 0.592072,-0.51678 0.336924,-0.60261 0.08995,-1.18591 l 0.860222,-0.19161 q 0.200835,0.42015 0.164529,0.9256 -0.03992,0.50342 -0.312278,0.99056 z m -3.270841,-1.67247 q -0.173505,0.31032 -0.07316,0.62219 0.102359,0.30826 0.461804,0.58028 l 0.811038,-1.45058 -0.08299,-0.0464 q -0.350442,-0.18647 -0.638954,-0.11096 -0.292121,0.0735 -0.477732,0.40547 z"
             style="font-weight:bold;font-family:Roboto;-inkscape-font-specification:'Roboto Bold'"
             id="path23626" />
          <path
             d="m 65.849633,230.46684 q -0.118509,0.21573 -0.185356,0.38934 -0.243622,0.63272 0.108857,0.99437 l 2.731468,1.05173 -0.429309,1.11496 -4.174363,-1.60731 0.405541,-1.05323 0.509567,0.16076 q -0.445605,-0.55698 -0.216838,-1.15112 0.0713,-0.18518 0.183849,-0.32791 z"
             style="font-weight:bold;font-family:Roboto;-inkscape-font-specification:'Roboto Bold'"
             id="path23628" />
          <path
             d="m 64.320621,227.63829 1.064819,0.27467 0.191033,-0.74057 0.848652,0.21891 -0.191032,0.74057 2.161662,0.55761 q 0.240184,0.062 0.368015,-0.003 0.12783,-0.0652 0.194949,-0.32543 0.04957,-0.19215 0.05975,-0.34749 l 0.876675,0.22614 q 0.01631,0.36711 -0.07663,0.72739 -0.313913,1.21694 -1.549054,0.92394 l -2.333795,-0.60201 -0.163152,0.63249 -0.848652,-0.21891 0.163152,-0.63249 -1.064819,-0.27468 z"
             style="font-weight:bold;font-family:Roboto;-inkscape-font-specification:'Roboto Bold'"
             id="path23630" />
          <path
             d="m 70.316305,225.86707 -0.184439,1.18462 -4.419864,-0.68815 0.184439,-1.18462 z m -5.758888,0.38784 q -0.265519,-0.0413 -0.409737,-0.2437 -0.143582,-0.20645 -0.09588,-0.51282 0.04706,-0.30228 0.246614,-0.45531 0.19955,-0.15302 0.465068,-0.11168 0.269604,0.042 0.41255,0.25251 0.143582,0.20645 0.09715,0.50464 -0.04643,0.2982 -0.246614,0.45531 -0.199549,0.15302 -0.469153,0.11105 z"
             style="font-weight:bold;font-family:Roboto;-inkscape-font-specification:'Roboto Bold'"
             id="path23632" />
          <path
             d="m 70.51453,224.03767 -3.591305,-0.19658 -0.03638,0.66459 -0.875122,-0.0479 0.03638,-0.6646 -0.37977,-0.0208 q -0.751284,-0.0411 -1.140579,-0.49303 -0.393196,-0.45625 -0.350716,-1.23231 0.01356,-0.24767 0.115774,-0.60228 l 0.92398,0.063 q -0.04529,0.14658 -0.05704,0.36123 -0.03683,0.67285 0.594744,0.70742 l 0.35913,0.0197 0.04858,-0.8875 0.875122,0.0479 -0.04858,0.8875 3.591305,0.19659 z"
             style="font-weight:bold;font-family:Roboto;-inkscape-font-specification:'Roboto Bold'"
             id="path23634" />
          <path
             d="m 70.545154,219.54254 0.05269,1.19773 -4.468792,0.19659 -0.05269,-1.19774 z m -5.569446,1.51541 q -0.268458,0.0118 -0.449736,-0.15816 -0.18146,-0.17409 -0.195086,-0.48385 -0.01345,-0.30563 0.152025,-0.49499 0.165471,-0.18935 0.433929,-0.20116 0.272588,-0.012 0.454229,0.16623 0.18146,0.17409 0.194723,0.47559 0.01326,0.3015 -0.152026,0.49499 -0.16547,0.18935 -0.438058,0.20135 z"
             style="font-weight:bold;font-family:Roboto;-inkscape-font-specification:'Roboto Bold'"
             id="path23636" />
          <path
             d="m 69.27987,216.83158 -0.356833,-2.15764 0.950341,-0.15717 0.605738,3.66268 -0.717853,0.11872 -3.084238,-1.62277 0.333224,2.01488 -0.95442,0.15785 -0.584828,-3.53625 0.697461,-0.11535 z"
             style="font-weight:bold;font-family:Roboto;-inkscape-font-specification:'Roboto Bold'"
             id="path23638" />
          <path
             d="m 69.16349,212.07518 0.337082,1.15054 -4.292671,1.25766 -0.337082,-1.15053 z m -5.046687,2.8011 q -0.257877,0.0756 -0.474487,-0.0462 -0.217772,-0.12575 -0.304948,-0.4233 -0.08601,-0.29358 0.02947,-0.51696 0.115485,-0.22338 0.373362,-0.29894 0.261845,-0.0767 0.48078,0.053 0.217772,0.12574 0.302624,0.41536 0.08485,0.28962 -0.02947,0.51697 -0.115486,0.22338 -0.377331,0.30009 z"
             style="font-weight:bold;font-family:Roboto;-inkscape-font-specification:'Roboto Bold'"
             id="path23640" />
          <path
             d="m 67.973424,208.70373 q 0.392849,0.90209 0.08706,1.71162 -0.30744,0.80575 -1.228482,1.20685 l -0.106128,0.0462 q -0.617819,0.26905 -1.206966,0.24154 -0.592938,-0.0259 -1.04429,-0.34785 -0.456794,-0.32413 -0.701087,-0.88509 -0.366439,-0.84145 -0.04543,-1.5539 0.319361,-0.71625 1.293468,-1.14046 l 0.447255,-0.19477 1.137282,2.61151 q 0.378662,-0.22803 0.505697,-0.59899 0.125385,-0.37475 -0.05288,-0.7841 -0.275655,-0.63298 -0.889439,-0.78955 l 0.368268,-0.80067 q 0.455998,0.0945 0.836313,0.4294 0.376524,0.33655 0.599359,0.84824 z m -3.311313,1.59083 q 0.141954,0.32597 0.450925,0.43491 0.307321,0.10515 0.741432,-0.0163 l -0.663552,-1.5237 -0.08718,0.038 q -0.360567,0.16604 -0.475131,0.44139 -0.118354,0.27699 0.0335,0.6257 z"
             style="font-weight:bold;font-family:Roboto;-inkscape-font-specification:'Roboto Bold'"
             id="path23642" />
          <path
             d="m 62.372798,205.62686 q 0.09993,0.22494 0.197622,0.38326 0.356018,0.577 0.857261,0.51547 l 2.490948,-1.53695 0.627374,1.01678 -3.806788,2.34885 -0.59264,-0.96049 0.436492,-0.30818 q -0.713088,0.0174 -1.047398,-0.52446 -0.104201,-0.16887 -0.149638,-0.34486 z"
             style="font-weight:bold;font-family:Roboto;-inkscape-font-specification:'Roboto Bold'"
             id="path23644" />
          <path
             d="m 59.194953,205.12748 0.863802,-0.68054 -0.473306,-0.60076 0.688444,-0.54238 0.473306,0.60076 1.753584,-1.38154 q 0.194842,-0.1535 0.220431,-0.29471 0.02559,-0.14121 -0.140709,-0.35229 -0.122803,-0.15587 -0.240196,-0.25812 l 0.711175,-0.56029 q 0.301897,0.20951 0.532154,0.50177 0.777756,0.9872 -0.203838,1.79212 l -1.89322,1.49155 0.404228,0.51309 -0.688444,0.54238 -0.404228,-0.51308 -0.863802,0.68053 z"
             style="font-weight:bold;font-family:Roboto;-inkscape-font-specification:'Roboto Bold'"
             id="path23646" />
        </g>
      </g>
      <g
         aria-label="www.isocert.de"
         transform="matrix(1.349064,0,0,1.349064,47.621255,-188.64418)"
         id="text24792"
         style="font-size:6.35px;line-height:125%;font-family:'Times New Roman';-inkscape-font-specification:'Times New Roman, ';font-variant-ligatures:no-common-ligatures;text-align:center;letter-spacing:0px;word-spacing:0px;text-anchor:middle;white-space:pre;fill:none;stroke:#000000;stroke-width:1px">
        <path
           d="m -3.9688758,309.57073 -1.4612573,-1.61938 0.5120415,-0.69724 2.197469,2.67551 -0.4441363,0.60478 -2.0781048,-0.73751 1.3256423,1.76213 -0.442301,0.60228 -3.2105404,-1.29602 0.5120415,-0.69724 1.9781408,0.91029 -1.3559829,-1.75748 0.3835724,-0.52231 z"
           style="font-weight:bold;font-size:6.35px;font-family:Roboto;-inkscape-font-specification:'Roboto Bold';fill:#000000;stroke:none"
           id="path33803" />
        <path
           d="m -1.1070601,305.83248 -1.40998,-1.66421 0.5335632,-0.68092 2.11285487,2.74283 -0.4628039,0.59061 -2.05406277,-0.80204 1.2699735,1.80267 -0.4608915,0.58817 -3.1685067,-1.39564 0.5335632,-0.68091 1.9487522,0.97162 -1.3004443,-1.79897 0.3996943,-0.51008 z"
           style="font-weight:bold;font-size:6.35px;font-family:Roboto;-inkscape-font-specification:'Roboto Bold';fill:#000000;stroke:none"
           id="path33805" />
        <path
           d="m 1.9120615,302.20992 -1.33648861,-1.72378 0.56258781,-0.65714 1.9919305,2.83186 -0.4879794,0.56999 -2.01735186,-0.89035 1.19060996,1.85604 -0.4859629,0.56763 -3.1050074,-1.53172 0.5625877,-0.65713 1.90478686,1.05521 -1.22121241,-1.85367 0.42143673,-0.49227 z"
           style="font-weight:bold;font-size:6.35px;font-family:Roboto;-inkscape-font-specification:'Roboto Bold';fill:#000000;stroke:none"
           id="path33807" />
        <path
           d="m 3.4550818,301.65408 q -0.1578035,-0.14446 -0.1598385,-0.33969 5.87e-5,-0.19752 0.1466119,-0.35761 0.1486467,-0.16237 0.3432944,-0.17755 0.1967413,-0.0175 0.3545448,0.12699 0.1555165,0.14237 0.1575515,0.3376 -2.521e-4,0.19313 -0.1509925,0.3578 -0.1486468,0.16237 -0.3410074,0.17965 -0.1946477,0.0152 -0.3501642,-0.12719 z"
           style="font-weight:bold;font-size:6.35px;font-family:Roboto;-inkscape-font-specification:'Roboto Bold';fill:#000000;stroke:none"
           id="path33809" />
        <path
           d="m 5.652322,299.94606 -0.6206416,0.65062 -2.4274976,-2.31564 0.6206415,-0.65062 z m -3.7127096,-2.22612 q -0.1458294,-0.13911 -0.1480314,-0.32546 -6.19e-5,-0.1886 0.1604489,-0.35687 0.1583706,-0.16602 0.3467651,-0.17485 0.1883945,-0.009 0.3342238,0.13028 0.1480729,0.14125 0.1459946,0.3321 6.19e-5,0.1886 -0.1561685,0.35237 -0.1562305,0.16378 -0.3467651,0.17485 -0.1883945,0.009 -0.3364674,-0.13242 z"
           style="font-weight:bold;font-size:6.35px;font-family:Roboto;-inkscape-font-specification:'Roboto Bold';fill:#000000;stroke:none"
           id="path33811" />
        <path
           d="m 6.803364,297.47454 q -0.1153658,-0.11703 -0.2976946,-0.0679 -0.1822975,0.0447 -0.4906742,0.24425 -1.0286267,0.66135 -1.5662751,0.11596 -0.3134468,-0.31796 -0.2596516,-0.78896 0.053826,-0.47539 0.4799829,-0.8955 0.4548613,-0.4484 0.9375945,-0.50195 0.4849412,-0.0557 0.8223319,0.28652 l -0.6381306,0.62907 q -0.1349563,-0.1369 -0.3103474,-0.13816 -0.1775679,-0.003 -0.3652534,0.18156 -0.1611887,0.1589 -0.1776797,0.31884 -0.016491,0.15993 0.094521,0.27254 0.1044823,0.10599 0.2691466,0.0743 0.1646957,-0.0361 0.4510543,-0.2226 0.284182,-0.18872 0.50635,-0.29018 0.6884908,-0.31299 1.1390706,0.14408 0.3221537,0.3268 0.2419872,0.80638 -0.082343,0.47738 -0.5261642,0.9149 -0.3002968,0.29603 -0.6388339,0.42077 -0.3385058,0.12036 -0.6538336,0.0655 -0.3175046,-0.0571 -0.5308226,-0.27347 l 0.6050097,-0.59642 q 0.1764393,0.16131 0.382712,0.13648 0.2062726,-0.0248 0.4027904,-0.21857 0.1832693,-0.18066 0.2085299,-0.34054 0.025292,-0.16425 -0.08572,-0.27686 z"
           style="font-weight:bold;font-size:6.35px;font-family:Roboto;-inkscape-font-specification:'Roboto Bold';fill:#000000;stroke:none"
           id="path33813" />
        <path
           d="m 7.2467049,295.94802 q -0.3336159,-0.37134 -0.451705,-0.79043 -0.1180891,-0.41909 0.00648,-0.81861 0.1268795,-0.40158 0.4820769,-0.72069 0.5051184,-0.45381 1.10108,-0.43069 0.5982682,0.021 1.1117659,0.51837 l 0.1579519,0.16654 q 0.5159644,0.57431 0.5082594,1.21061 -0.0098,0.634 -0.5494938,1.11889 -0.5397155,0.48488 -1.1734445,0.42901 -0.6314225,-0.0579 -1.1660368,-0.65301 z m 0.7100869,-0.55041 q 0.3191108,0.35519 0.6228026,0.42414 0.3016197,0.0666 0.5507191,-0.15715 0.2421801,-0.21758 0.2124903,-0.52435 -0.031762,-0.30908 -0.3985321,-0.71733 -0.3128944,-0.34828 -0.6209648,-0.41746 -0.3080705,-0.0692 -0.5548635,0.15254 -0.2444865,0.21965 -0.2062738,0.53127 0.036141,0.30932 0.3946222,0.70834 z"
           style="font-weight:bold;font-size:6.35px;font-family:Roboto;-inkscape-font-specification:'Roboto Bold';fill:#000000;stroke:none"
           id="path33815" />
        <path
           d="m 11.845623,293.34895 q 0.192846,-0.156 0.227573,-0.35957 0.03473,-0.20357 -0.102807,-0.38344 l 0.653267,-0.52847 q 0.212096,0.26712 0.249278,0.60394 0.03523,0.33442 -0.113606,0.65822 -0.148376,0.31943 -0.447288,0.56124 -0.559255,0.45241 -1.168932,0.35936 -0.611626,-0.0954 -1.118642,-0.7222 l -0.037051,-0.0458 q -0.4875149,-0.60264 -0.4574666,-1.22118 0.030048,-0.61853 0.5893036,-1.07094 0.489347,-0.39587 1.009645,-0.35415 0.520759,0.0374 0.899991,0.4963 l -0.653267,0.52846 q -0.168626,-0.19859 -0.390559,-0.22643 -0.223882,-0.0303 -0.421549,0.12964 -0.243469,0.19696 -0.224515,0.47674 0.01942,0.27543 0.341175,0.67318 l 0.0585,0.0723 q 0.32566,0.40257 0.590954,0.47909 0.265293,0.0765 0.515994,-0.12629 z"
           style="font-weight:bold;font-size:6.35px;font-family:Roboto;-inkscape-font-specification:'Roboto Bold';fill:#000000;stroke:none"
           id="path33817" />
        <path
           d="m 15.050606,291.81696 q -0.599011,0.43098 -1.240919,0.33514 -0.639392,-0.0977 -1.079421,-0.70924 l -0.0507,-0.0705 q -0.295164,-0.41024 -0.368387,-0.84648 -0.07503,-0.43876 0.08946,-0.82067 0.165197,-0.38623 0.537692,-0.65423 0.558742,-0.40201 1.131897,-0.27962 0.575673,0.12058 1.041054,0.76741 l 0.213677,0.29699 -1.734114,1.24765 q 0.227183,0.24144 0.519256,0.27576 0.294589,0.0325 0.566409,-0.16306 0.420315,-0.30241 0.43779,-0.77716 l 0.645314,0.14304 q 0.003,0.34925 -0.182208,0.68113 -0.187019,0.32936 -0.526795,0.57382 z m -1.691065,-2.17521 q -0.216449,0.15573 -0.247332,0.39949 -0.02837,0.24196 0.12945,0.54094 l 1.011776,-0.72795 -0.04165,-0.0579 q -0.178872,-0.238 -0.398878,-0.27833 -0.221816,-0.0428 -0.453367,0.12374 z"
           style="font-weight:bold;font-size:6.35px;font-family:Roboto;-inkscape-font-specification:'Roboto Bold';fill:#000000;stroke:none"
           id="path33819" />
        <path
           d="m 16.797239,287.55484 q -0.167484,0.0777 -0.285035,0.15281 -0.428408,0.27393 -0.376231,0.64907 l 1.182556,1.84947 -0.754938,0.48271 -1.80724,-2.82645 0.713142,-0.45598 0.236364,0.32361 q -0.02161,-0.53454 0.380679,-0.79176 0.125387,-0.0802 0.256815,-0.11636 z"
           style="font-weight:bold;font-size:6.35px;font-family:Roboto;-inkscape-font-specification:'Roboto Bold';fill:#000000;stroke:none"
           id="path33821" />
        <path
           d="m 17.50231,285.21539 0.411173,0.71495 0.497243,-0.28596 0.327702,0.56981 -0.497242,0.28597 0.834712,1.45141 q 0.09275,0.16126 0.194755,0.19559 0.102009,0.0343 0.276716,-0.0661 0.129014,-0.0742 0.217642,-0.15021 l 0.338523,0.58863 q -0.188273,0.20127 -0.430175,0.34039 -0.817089,0.46992 -1.307766,-0.34596 l -0.90118,-1.56699 -0.424672,0.24423 -0.327702,-0.56981 0.424672,-0.24423 -0.411174,-0.71495 z"
           style="font-weight:bold;font-size:6.35px;font-family:Roboto;-inkscape-font-specification:'Roboto Bold';fill:#000000;stroke:none"
           id="path33823" />
        <path
           d="m 20.363977,287.90636 q -0.09843,-0.18995 -0.03314,-0.37395 0.06804,-0.18543 0.260746,-0.28529 0.195456,-0.10129 0.383433,-0.0485 0.190729,0.0513 0.289165,0.24127 0.09701,0.1872 0.03172,0.3712 -0.06672,0.18124 -0.264925,0.28396 -0.195456,0.10128 -0.382006,0.0513 -0.187977,-0.0528 -0.284986,-0.23995 z"
           style="font-weight:bold;font-size:6.35px;font-family:Roboto;-inkscape-font-specification:'Roboto Bold';fill:#000000;stroke:none"
           id="path33825" />
        <path
           d="m 21.276583,286.03343 q -0.346056,-0.70399 -0.236796,-1.27594 0.112042,-0.57332 0.660209,-0.84278 0.439647,-0.21611 0.887654,-0.0287 l -0.755031,-1.53599 0.806947,-0.39666 2.100956,4.27404 -0.726252,0.35699 -0.196254,-0.30084 q -0.115864,0.52337 -0.588902,0.7559 -0.531472,0.26125 -1.059422,0.003 -0.526536,-0.26287 -0.893109,-1.0086 z m 0.832889,-0.33687 q 0.207907,0.42296 0.466176,0.57585 0.258269,0.1529 0.539309,0.0147 0.372865,-0.18329 0.371345,-0.57295 L 22.902247,284.526 q -0.304822,-0.24057 -0.674905,-0.0587 -0.581558,0.28587 -0.11787,1.22916 z"
           style="font-weight:bold;font-size:6.35px;font-family:Roboto;-inkscape-font-specification:'Roboto Bold';fill:#000000;stroke:none"
           id="path33827" />
        <path
           d="m 26.781134,285.27856 q -0.660988,0.3281 -1.278849,0.1294 -0.615083,-0.20007 -0.950075,-0.87495 l -0.0386,-0.0778 q -0.224707,-0.45269 -0.226196,-0.89503 -0.0029,-0.44512 0.221396,-0.79528 0.225662,-0.35433 0.636697,-0.55836 0.616552,-0.30604 1.162264,-0.0923 0.548489,0.21236 0.902781,0.92612 l 0.162671,0.32771 -1.913533,0.94984 q 0.18501,0.27509 0.467647,0.35633 0.285414,0.0799 0.585358,-0.069 0.463803,-0.23022 0.558059,-0.69585 l 0.613563,0.24583 q -0.05369,0.34511 -0.290284,0.64255 -0.237969,0.29466 -0.612899,0.48077 z m -1.315819,-2.42072 q -0.238845,0.11856 -0.30886,0.35408 -0.06724,0.23415 0.03999,0.55477 l 1.116459,-0.55418 -0.03171,-0.0639 q -0.137897,-0.26386 -0.348446,-0.33935 -0.211927,-0.0783 -0.467435,0.0486 z"
           style="font-weight:bold;font-size:6.35px;font-family:Roboto;-inkscape-font-specification:'Roboto Bold';fill:#000000;stroke:none"
           id="path33829" />
      </g>
    </g>
    <g
       id="g34173"
       style="fill:#ffffff">
      <path
         style="fill:#ffffff;stroke-width:0.393842"
         d="m 32.134978,230.22164 c -3.557947,-5.62577 -6.608962,-9.53957 -10.142769,-13.01098 l -3.339904,-3.28095 0.495523,-5.18668 c 0.272536,-2.85266 0.622809,-5.33014 0.778381,-5.50551 0.526036,-0.59293 6.325672,4.47501 8.980424,7.84745 1.450669,1.84284 3.533217,4.91157 4.627884,6.81938 l 1.990301,3.46878 1.723609,-3.36607 c 6.768151,-13.21765 18.412068,-25.52632 32.559058,-34.41788 3.84808,-2.41857 14.818733,-7.92896 16.698969,-8.38765 l 1.005791,-0.24536 -0.495493,5.43863 c -0.27252,2.99125 -0.50359,5.8024 -0.513488,6.24698 -0.01369,0.61514 -0.512205,0.98071 -2.085669,1.52946 -3.38835,1.18172 -11.25704,5.04003 -15.259329,7.48222 -8.162668,4.98085 -16.409096,12.11915 -22.779196,19.71819 -3.507486,4.18416 -8.376092,11.51766 -10.28329,15.48954 -0.745845,1.55328 -1.454761,2.81546 -1.575372,2.80483 -0.120616,-0.0104 -1.194055,-1.56059 -2.38543,-3.44438 z"
         id="path34089" />
      <g
         id="g34141"
         transform="rotate(69.705152,42.439497,215.58932)"
         style="fill:#ffffff">
        <path
           style="color:#000000;fill:#ffffff;fill-rule:evenodd;stroke-linejoin:round;-inkscape-stroke:none;paint-order:markers stroke fill"
           d="m 140.17969,683.20508 c -16.88168,-0.65017 -33.7249,2.03089 -49.570315,7.89062 -66.610142,24.63367 -100.67161,98.66874 -76.039062,165.2793 24.632855,66.61093 98.668237,100.67352 165.279297,76.04102 61.19339,-22.62907 94.92867,-86.93292 80.90234,-148.90625 a 2.4569407,2.4569407 0 0 0 -3.49414,-1.65625 c -0.80642,0.40313 -1.65164,0.98268 -2.90429,1.8496 -1.25266,0.86693 -2.80449,1.98156 -4.55469,3.26172 -3.50041,2.56034 -7.79008,5.78049 -11.96094,8.94141 -8.34173,6.32184 -16.20312,12.40234 -16.20312,12.40234 a 2.4569407,2.4569407 0 0 0 -0.95313,1.98243 c 0.56913,35.39813 -20.98402,68.68971 -55.82422,81.57812 -44.2734,16.37251 -93.369122,-6.21313 -109.742186,-50.48633 -16.372511,-44.2734 6.213126,-93.36912 50.486326,-109.74219 9.89727,-3.66026 20.3883,-5.45475 30.93946,-5.29296 17.97159,0.29932 35.39425,6.26004 49.84179,16.97851 a 2.4569407,2.4569407 0 0 0 3.22656,-0.26367 c 8.86582,-9.13894 18.24694,-17.84897 28.13086,-26.11914 a 2.4569407,2.4569407 0 0 0 0.002,-3.76758 c -21.82248,-18.29979 -49.10114,-28.84111 -77.5586,-29.9707 a 2.4569407,2.4569407 0 0 0 -0.004,0 z m -0.19141,4.91015 c 26.40975,1.04832 51.71538,10.59518 72.31836,27.07032 -8.62729,7.33693 -16.88426,15.00035 -24.73633,23.0039 -14.92121,-10.54558 -32.64717,-16.45106 -50.94726,-16.75586 a 2.4569407,2.4569407 0 0 0 -0.004,0 c -11.15942,-0.17162 -22.25288,1.72639 -32.7207,5.59766 -46.763721,17.2941 -70.686101,69.29076 -53.392581,116.05469 17.294103,46.76371 69.290761,70.68609 116.054691,53.39258 36.38488,-13.45984 59.07196,-48.02739 59.0039,-84.99024 0.82296,-0.63613 7.39824,-5.7229 15.24024,-11.66601 4.15866,-3.15168 8.43496,-6.36213 11.89453,-8.89258 1.51393,-1.10735 2.77917,-2.00871 3.89453,-2.78907 11.44892,58.49577 -20.70867,118.31452 -78.44727,139.66602 -64.1205,23.71151 -135.254943,-9.01437 -158.966793,-73.13477 -23.7115528,-64.12003 9.01318,-135.25416 73.132813,-158.96679 15.23906,-5.6355 31.44012,-8.21462 47.67578,-7.58985 z"
           id="path34091"
           transform="matrix(0.09177108,-0.24815803,0.24815803,0.09177108,-174.48626,180.61674)" />
        <g
           aria-label="ISO 1090-2 "
           id="g34111"
           style="font-size:8.46667px;line-height:125%;font-family:'Times New Roman';-inkscape-font-specification:'Times New Roman, ';font-variant-ligatures:no-common-ligatures;text-align:center;letter-spacing:0px;word-spacing:0px;text-anchor:middle;white-space:pre;fill:#ffffff;stroke-width:1px">
          <path
             d="m 21.782748,240.13774 0.921061,0.83056 -4.030978,4.47022 -0.921062,-0.83056 z"
             style="font-weight:bold;font-family:Roboto;-inkscape-font-specification:'Roboto Bold';fill:#ffffff"
             id="path34093" />
          <path
             d="m 17.706605,237.96924 q -0.271492,0.2231 -0.25774,0.53285 0.01056,0.31238 0.260312,0.94188 0.246561,0.63213 0.328903,1.0514 0.222931,1.14383 -0.502112,1.73964 -0.376895,0.30971 -0.843976,0.34038 -0.4729,0.0301 -0.964454,-0.22947 -0.494179,-0.26277 -0.90101,-0.75784 -0.409456,-0.49827 -0.547612,-1.03755 -0.14135,-0.53665 0.01178,-1.021 0.150503,-0.48754 0.56892,-0.83138 l 0.787415,0.95821 q -0.319402,0.26247 -0.329716,0.60805 -0.01351,0.34821 0.28571,0.71233 0.288719,0.35134 0.598945,0.42282 0.307033,0.0741 0.549779,-0.12538 0.226775,-0.18636 0.193734,-0.53912 -0.03567,-0.35596 -0.266354,-0.91016 -0.425987,-1.01978 -0.368961,-1.69269 0.05703,-0.67292 0.600011,-1.11912 0.60367,-0.49608 1.323959,-0.3228 0.717095,0.1759 1.352276,0.94885 0.440953,0.5366 0.608328,1.13748 0.164182,0.60351 0.01403,1.11752 -0.152781,0.51081 -0.603138,0.8809 l -0.79004,-0.9614 q 0.769759,-0.63256 0.01384,-1.55244 -0.280845,-0.34176 -0.575671,-0.42054 -0.29802,-0.0762 -0.547153,0.12858 z"
             style="font-weight:bold;font-family:Roboto;-inkscape-font-specification:'Roboto Bold';fill:#ffffff"
             id="path34095" />
          <path
             d="m 12.851723,232.19775 q 0.791629,-0.40416 1.530981,-0.42887 0.739352,-0.0247 1.330305,0.33272 0.589074,0.35373 0.933086,1.02754 0.340252,0.66644 0.286856,1.35283 -0.0534,0.68639 -0.499569,1.27624 -0.449856,0.59173 -1.221195,0.99018 l -0.265104,0.13535 q -0.79163,0.40417 -1.536543,0.42707 -0.750475,0.0211 -1.335867,-0.33452 -0.590954,-0.35742 -0.933086,-1.02754 -0.342132,-0.67012 -0.283174,-1.35471 0.0534,-0.68639 0.512495,-1.2782 0.453538,-0.59361 1.241485,-0.9959 z m 0.328461,1.2434 q -0.843177,0.43049 -1.127188,0.95611 -0.28401,0.52563 0.0017,1.08529 0.283857,0.55598 0.87248,0.63608 0.584941,0.082 1.422634,-0.34106 l 0.261422,-0.13347 q 0.821085,-0.4192 1.119823,-0.95235 0.298739,-0.53314 0.0092,-1.10017 -0.283856,-0.55598 -0.870599,-0.6324 -0.590425,-0.0745 -1.428118,0.3485 z"
             style="font-weight:bold;font-family:Roboto;-inkscape-font-specification:'Roboto Bold';fill:#ffffff"
             id="path34097" />
          <path
             d="m 14.041132,225.25854 0.212356,1.17574 -4.5320764,0.81856 0.6888114,1.32494 -0.9560481,0.17267 -1.3218327,-2.29446 -0.022779,-0.12612 z"
             style="font-weight:bold;font-family:Roboto;-inkscape-font-specification:'Roboto Bold';fill:#ffffff"
             id="path34099" />
          <path
             d="m 11.323466,219.2363 q 1.24844,0.0126 1.90467,0.53594 0.65623,0.52338 0.646214,1.51966 -0.0099,0.98387 -0.664151,1.49821 -0.65426,0.51435 -1.86562,0.51457 l -1.107887,-0.0111 q -1.2608416,-0.0127 -1.9087624,-0.54012 -0.6478791,-0.53157 -0.6379877,-1.51544 0.00989,-0.98387 0.6641515,-1.49822 0.6501261,-0.51439 1.8614856,-0.51461 z m -1.22738,1.18248 q -0.7482368,-0.008 -1.0892952,0.19576 -0.3451508,0.19911 -0.3495146,0.63317 -0.00424,0.42166 0.320303,0.62751 0.3204499,0.20167 1.0106877,0.22101 l 1.4634031,0.0147 q 0.735836,0.007 1.09748,-0.18741 0.357553,-0.19899 0.362,-0.64132 0.0044,-0.43819 -0.336756,-0.63594 -0.341161,-0.19774 -1.047976,-0.21311 z"
             style="font-weight:bold;font-family:Roboto;-inkscape-font-specification:'Roboto Bold';fill:#ffffff"
             id="path34101" />
          <path
             d="m 12.090609,215.23347 q 0.357409,0.5487 0.233923,1.16062 -0.157833,0.78211 -0.787616,1.14425 -0.633836,0.36131 -1.5456316,0.17731 -0.5794966,-0.11694 -1.0110323,-0.46551 -0.4347702,-0.35344 -0.610638,-0.86128 -0.1799202,-0.50867 -0.06543,-1.07601 0.1177614,-0.58355 0.5011282,-0.97854 0.3833667,-0.39499 0.9811468,-0.53584 0.5977799,-0.14085 1.3037199,-0.003 l 0.433609,0.0875 q 1.475083,0.29768 2.169967,1.20126 0.694885,0.90359 0.480113,2.26045 l -0.05401,0.28854 -0.976634,-0.19709 0.04829,-0.26017 q 0.239414,-1.54167 -1.100901,-1.94289 z m -0.6036,0.69216 q 0.05724,-0.28367 -0.04775,-0.51573 -0.10418,-0.23611 -0.289591,-0.38318 l -0.482238,-0.0973 q -0.595707,-0.12021 -0.9697491,0.0405 -0.3740424,0.16069 -0.4509145,0.54162 -0.071148,0.35256 0.2072503,0.64492 0.2743454,0.29154 0.7606363,0.38968 0.482238,0.0973 0.838436,-0.0585 0.352962,-0.16073 0.433923,-0.56192 z"
             style="font-weight:bold;font-family:Roboto;-inkscape-font-specification:'Roboto Bold';fill:#ffffff"
             id="path34103" />
          <path
             d="m 14.176009,209.00198 q 1.154606,0.47503 1.569704,1.20459 0.415097,0.72957 0.03602,1.65096 -0.374353,0.90992 -1.172783,1.1447 -0.79843,0.23477 -1.923346,-0.21462 l -1.024617,-0.42154 q -1.166076,-0.47974 -1.571954,-1.20999 -0.4043055,-0.73406 -0.02995,-1.64399 0.374354,-0.90992 1.172784,-1.14469 0.794606,-0.23635 1.919523,0.21304 z m -1.578593,0.64247 q -0.691999,-0.2847 -1.084147,-0.22251 -0.394399,0.0568 -0.559555,0.45822 -0.160437,0.38996 0.06452,0.70156 0.222709,0.3062 0.856465,0.58035 l 1.353412,0.55681 q 0.68053,0.27998 1.088648,0.23331 0.405868,-0.0521 0.57417,-0.46115 0.166729,-0.40526 -0.07667,-0.7155 -0.243399,-0.31024 -0.89402,-0.58686 z"
             style="font-weight:bold;font-family:Roboto;-inkscape-font-specification:'Roboto Bold';fill:#ffffff"
             id="path34105" />
          <path
             d="m 16.356264,206.13535 -1.216537,1.98427 -0.821199,-0.50347 1.216538,-1.98427 z"
             style="font-weight:bold;font-family:Roboto;-inkscape-font-specification:'Roboto Bold';fill:#ffffff"
             id="path34107" />
          <path
             d="m 21.310976,203.31765 -2.68505,3.13259 -0.621496,-0.53271 -0.308519,-2.829 q -0.07175,-0.58966 -0.19596,-0.94659 -0.12152,-0.36007 -0.34438,-0.55109 -0.30447,-0.26097 -0.608939,-0.25514 -0.307608,0.003 -0.552437,0.28878 -0.263662,0.30761 -0.203574,0.66947 0.05964,0.35604 0.404916,0.65198 l -0.780225,0.91028 q -0.417469,-0.35783 -0.593248,-0.85153 -0.173088,-0.49683 -0.05561,-1.02775 0.114341,-0.5336 0.509835,-0.99502 0.605347,-0.70624 1.277958,-0.8049 0.675302,-0.10179 1.293659,0.42823 0.338998,0.29056 0.539887,0.76767 0.200889,0.4771 0.302682,1.30486 l 0.204933,1.97793 1.684209,-1.96493 z"
             style="font-weight:bold;font-family:Roboto;-inkscape-font-specification:'Roboto Bold';fill:#ffffff"
             id="path34109" />
        </g>
        <g
           aria-label="zertifiziert"
           id="g34139"
           style="font-size:8.46667px;line-height:125%;font-family:'Times New Roman';-inkscape-font-specification:'Times New Roman, ';font-variant-ligatures:no-common-ligatures;text-align:center;letter-spacing:0.529167px;word-spacing:0px;text-anchor:middle;white-space:pre;display:inline;fill:#ffffff;stroke-width:1px">
          <path
             d="m 62.93384,240.68242 1.352215,-1.71879 0.757049,0.59558 -2.295442,2.91773 -0.571849,-0.44989 -0.882329,-3.37156 -1.262749,1.60508 -0.760298,-0.59815 2.216201,-2.817 0.555603,0.43711 z"
             style="font-weight:bold;font-family:Roboto;-inkscape-font-specification:'Roboto Bold';fill:#ffffff"
             id="path34115" />
          <path
             d="m 66.791449,236.78676 q -0.480167,0.8588 -1.30962,1.1055 -0.827436,0.2431 -1.704278,-0.24716 l -0.101035,-0.0565 q -0.58817,-0.32885 -0.922943,-0.81442 -0.338381,-0.48759 -0.355348,-1.04176 -0.01856,-0.5598 0.280034,-1.09385 0.447887,-0.80106 1.209287,-0.97688 0.763417,-0.17943 1.690777,0.33907 l 0.425792,0.23807 -1.390063,2.48619 q 0.410736,0.16334 0.782899,0.0399 0.374181,-0.12708 0.592072,-0.51678 0.336924,-0.60261 0.08995,-1.18591 l 0.860222,-0.19161 q 0.200835,0.42015 0.164529,0.9256 -0.03992,0.50342 -0.312278,0.99056 z m -3.270841,-1.67247 q -0.173505,0.31032 -0.07316,0.62219 0.102359,0.30826 0.461804,0.58028 l 0.811038,-1.45058 -0.08299,-0.0464 q -0.350442,-0.18647 -0.638954,-0.11096 -0.292121,0.0735 -0.477732,0.40547 z"
             style="font-weight:bold;font-family:Roboto;-inkscape-font-specification:'Roboto Bold';fill:#ffffff"
             id="path34117" />
          <path
             d="m 65.849633,230.46684 q -0.118509,0.21573 -0.185356,0.38934 -0.243622,0.63272 0.108857,0.99437 l 2.731468,1.05173 -0.429309,1.11496 -4.174363,-1.60731 0.405541,-1.05323 0.509567,0.16076 q -0.445605,-0.55698 -0.216838,-1.15112 0.0713,-0.18518 0.183849,-0.32791 z"
             style="font-weight:bold;font-family:Roboto;-inkscape-font-specification:'Roboto Bold';fill:#ffffff"
             id="path34119" />
          <path
             d="m 64.320621,227.63829 1.064819,0.27467 0.191033,-0.74057 0.848652,0.21891 -0.191032,0.74057 2.161662,0.55761 q 0.240184,0.062 0.368015,-0.003 0.12783,-0.0652 0.194949,-0.32543 0.04957,-0.19215 0.05975,-0.34749 l 0.876675,0.22614 q 0.01631,0.36711 -0.07663,0.72739 -0.313913,1.21694 -1.549054,0.92394 l -2.333795,-0.60201 -0.163152,0.63249 -0.848652,-0.21891 0.163152,-0.63249 -1.064819,-0.27468 z"
             style="font-weight:bold;font-family:Roboto;-inkscape-font-specification:'Roboto Bold';fill:#ffffff"
             id="path34121" />
          <path
             d="m 70.316305,225.86707 -0.184439,1.18462 -4.419864,-0.68815 0.184439,-1.18462 z m -5.758888,0.38784 q -0.265519,-0.0413 -0.409737,-0.2437 -0.143582,-0.20645 -0.09588,-0.51282 0.04706,-0.30228 0.246614,-0.45531 0.19955,-0.15302 0.465068,-0.11168 0.269604,0.042 0.41255,0.25251 0.143582,0.20645 0.09715,0.50464 -0.04643,0.2982 -0.246614,0.45531 -0.199549,0.15302 -0.469153,0.11105 z"
             style="font-weight:bold;font-family:Roboto;-inkscape-font-specification:'Roboto Bold';fill:#ffffff"
             id="path34123" />
          <path
             d="m 70.51453,224.03767 -3.591305,-0.19658 -0.03638,0.66459 -0.875122,-0.0479 0.03638,-0.6646 -0.37977,-0.0208 q -0.751284,-0.0411 -1.140579,-0.49303 -0.393196,-0.45625 -0.350716,-1.23231 0.01356,-0.24767 0.115774,-0.60228 l 0.92398,0.063 q -0.04529,0.14658 -0.05704,0.36123 -0.03683,0.67285 0.594744,0.70742 l 0.35913,0.0197 0.04858,-0.8875 0.875122,0.0479 -0.04858,0.8875 3.591305,0.19659 z"
             style="font-weight:bold;font-family:Roboto;-inkscape-font-specification:'Roboto Bold';fill:#ffffff"
             id="path34125" />
          <path
             d="m 70.545154,219.54254 0.05269,1.19773 -4.468792,0.19659 -0.05269,-1.19774 z m -5.569446,1.51541 q -0.268458,0.0118 -0.449736,-0.15816 -0.18146,-0.17409 -0.195086,-0.48385 -0.01345,-0.30563 0.152025,-0.49499 0.165471,-0.18935 0.433929,-0.20116 0.272588,-0.012 0.454229,0.16623 0.18146,0.17409 0.194723,0.47559 0.01326,0.3015 -0.152026,0.49499 -0.16547,0.18935 -0.438058,0.20135 z"
             style="font-weight:bold;font-family:Roboto;-inkscape-font-specification:'Roboto Bold';fill:#ffffff"
             id="path34127" />
          <path
             d="m 69.27987,216.83158 -0.356833,-2.15764 0.950341,-0.15717 0.605738,3.66268 -0.717853,0.11872 -3.084238,-1.62277 0.333224,2.01488 -0.95442,0.15785 -0.584828,-3.53625 0.697461,-0.11535 z"
             style="font-weight:bold;font-family:Roboto;-inkscape-font-specification:'Roboto Bold';fill:#ffffff"
             id="path34129" />
          <path
             d="m 69.16349,212.07518 0.337082,1.15054 -4.292671,1.25766 -0.337082,-1.15053 z m -5.046687,2.8011 q -0.257877,0.0756 -0.474487,-0.0462 -0.217772,-0.12575 -0.304948,-0.4233 -0.08601,-0.29358 0.02947,-0.51696 0.115485,-0.22338 0.373362,-0.29894 0.261845,-0.0767 0.48078,0.053 0.217772,0.12574 0.302624,0.41536 0.08485,0.28962 -0.02947,0.51697 -0.115486,0.22338 -0.377331,0.30009 z"
             style="font-weight:bold;font-family:Roboto;-inkscape-font-specification:'Roboto Bold';fill:#ffffff"
             id="path34131" />
          <path
             d="m 67.973424,208.70373 q 0.392849,0.90209 0.08706,1.71162 -0.30744,0.80575 -1.228482,1.20685 l -0.106128,0.0462 q -0.617819,0.26905 -1.206966,0.24154 -0.592938,-0.0259 -1.04429,-0.34785 -0.456794,-0.32413 -0.701087,-0.88509 -0.366439,-0.84145 -0.04543,-1.5539 0.319361,-0.71625 1.293468,-1.14046 l 0.447255,-0.19477 1.137282,2.61151 q 0.378662,-0.22803 0.505697,-0.59899 0.125385,-0.37475 -0.05288,-0.7841 -0.275655,-0.63298 -0.889439,-0.78955 l 0.368268,-0.80067 q 0.455998,0.0945 0.836313,0.4294 0.376524,0.33655 0.599359,0.84824 z m -3.311313,1.59083 q 0.141954,0.32597 0.450925,0.43491 0.307321,0.10515 0.741432,-0.0163 l -0.663552,-1.5237 -0.08718,0.038 q -0.360567,0.16604 -0.475131,0.44139 -0.118354,0.27699 0.0335,0.6257 z"
             style="font-weight:bold;font-family:Roboto;-inkscape-font-specification:'Roboto Bold';fill:#ffffff"
             id="path34133" />
          <path
             d="m 62.372798,205.62686 q 0.09993,0.22494 0.197622,0.38326 0.356018,0.577 0.857261,0.51547 l 2.490948,-1.53695 0.627374,1.01678 -3.806788,2.34885 -0.59264,-0.96049 0.436492,-0.30818 q -0.713088,0.0174 -1.047398,-0.52446 -0.104201,-0.16887 -0.149638,-0.34486 z"
             style="font-weight:bold;font-family:Roboto;-inkscape-font-specification:'Roboto Bold';fill:#ffffff"
             id="path34135" />
          <path
             d="m 59.194953,205.12748 0.863802,-0.68054 -0.473306,-0.60076 0.688444,-0.54238 0.473306,0.60076 1.753584,-1.38154 q 0.194842,-0.1535 0.220431,-0.29471 0.02559,-0.14121 -0.140709,-0.35229 -0.122803,-0.15587 -0.240196,-0.25812 l 0.711175,-0.56029 q 0.301897,0.20951 0.532154,0.50177 0.777756,0.9872 -0.203838,1.79212 l -1.89322,1.49155 0.404228,0.51309 -0.688444,0.54238 -0.404228,-0.51308 -0.863802,0.68053 z"
             style="font-weight:bold;font-family:Roboto;-inkscape-font-specification:'Roboto Bold';fill:#ffffff"
             id="path34137" />
        </g>
      </g>
      <g
         aria-label="www.isocert.de"
         transform="matrix(1.349064,0,0,1.349064,47.621255,-188.64418)"
         id="g34171"
         style="font-size:6.35px;line-height:125%;font-family:'Times New Roman';-inkscape-font-specification:'Times New Roman, ';font-variant-ligatures:no-common-ligatures;text-align:center;letter-spacing:0px;word-spacing:0px;text-anchor:middle;white-space:pre;fill:#ffffff;stroke:#000000;stroke-width:1px">
        <path
           d="m -3.9688758,309.57073 -1.4612573,-1.61938 0.5120415,-0.69724 2.197469,2.67551 -0.4441363,0.60478 -2.0781048,-0.73751 1.3256423,1.76213 -0.442301,0.60228 -3.2105404,-1.29602 0.5120415,-0.69724 1.9781408,0.91029 -1.3559829,-1.75748 0.3835724,-0.52231 z"
           style="font-weight:bold;font-size:6.35px;font-family:Roboto;-inkscape-font-specification:'Roboto Bold';fill:#ffffff;stroke:none"
           id="path34143" />
        <path
           d="m -1.1070601,305.83248 -1.40998,-1.66421 0.5335632,-0.68092 2.11285487,2.74283 -0.4628039,0.59061 -2.05406277,-0.80204 1.2699735,1.80267 -0.4608915,0.58817 -3.1685067,-1.39564 0.5335632,-0.68091 1.9487522,0.97162 -1.3004443,-1.79897 0.3996943,-0.51008 z"
           style="font-weight:bold;font-size:6.35px;font-family:Roboto;-inkscape-font-specification:'Roboto Bold';fill:#ffffff;stroke:none"
           id="path34145" />
        <path
           d="m 1.9120615,302.20992 -1.33648861,-1.72378 0.56258781,-0.65714 1.9919305,2.83186 -0.4879794,0.56999 -2.01735186,-0.89035 1.19060996,1.85604 -0.4859629,0.56763 -3.1050074,-1.53172 0.5625877,-0.65713 1.90478686,1.05521 -1.22121241,-1.85367 0.42143673,-0.49227 z"
           style="font-weight:bold;font-size:6.35px;font-family:Roboto;-inkscape-font-specification:'Roboto Bold';fill:#ffffff;stroke:none"
           id="path34147" />
        <path
           d="m 3.4550818,301.65408 q -0.1578035,-0.14446 -0.1598385,-0.33969 5.87e-5,-0.19752 0.1466119,-0.35761 0.1486467,-0.16237 0.3432944,-0.17755 0.1967413,-0.0175 0.3545448,0.12699 0.1555165,0.14237 0.1575515,0.3376 -2.521e-4,0.19313 -0.1509925,0.3578 -0.1486468,0.16237 -0.3410074,0.17965 -0.1946477,0.0152 -0.3501642,-0.12719 z"
           style="font-weight:bold;font-size:6.35px;font-family:Roboto;-inkscape-font-specification:'Roboto Bold';fill:#ffffff;stroke:none"
           id="path34149" />
        <path
           d="m 5.652322,299.94606 -0.6206416,0.65062 -2.4274976,-2.31564 0.6206415,-0.65062 z m -3.7127096,-2.22612 q -0.1458294,-0.13911 -0.1480314,-0.32546 -6.19e-5,-0.1886 0.1604489,-0.35687 0.1583706,-0.16602 0.3467651,-0.17485 0.1883945,-0.009 0.3342238,0.13028 0.1480729,0.14125 0.1459946,0.3321 6.19e-5,0.1886 -0.1561685,0.35237 -0.1562305,0.16378 -0.3467651,0.17485 -0.1883945,0.009 -0.3364674,-0.13242 z"
           style="font-weight:bold;font-size:6.35px;font-family:Roboto;-inkscape-font-specification:'Roboto Bold';fill:#ffffff;stroke:none"
           id="path34151" />
        <path
           d="m 6.803364,297.47454 q -0.1153658,-0.11703 -0.2976946,-0.0679 -0.1822975,0.0447 -0.4906742,0.24425 -1.0286267,0.66135 -1.5662751,0.11596 -0.3134468,-0.31796 -0.2596516,-0.78896 0.053826,-0.47539 0.4799829,-0.8955 0.4548613,-0.4484 0.9375945,-0.50195 0.4849412,-0.0557 0.8223319,0.28652 l -0.6381306,0.62907 q -0.1349563,-0.1369 -0.3103474,-0.13816 -0.1775679,-0.003 -0.3652534,0.18156 -0.1611887,0.1589 -0.1776797,0.31884 -0.016491,0.15993 0.094521,0.27254 0.1044823,0.10599 0.2691466,0.0743 0.1646957,-0.0361 0.4510543,-0.2226 0.284182,-0.18872 0.50635,-0.29018 0.6884908,-0.31299 1.1390706,0.14408 0.3221537,0.3268 0.2419872,0.80638 -0.082343,0.47738 -0.5261642,0.9149 -0.3002968,0.29603 -0.6388339,0.42077 -0.3385058,0.12036 -0.6538336,0.0655 -0.3175046,-0.0571 -0.5308226,-0.27347 l 0.6050097,-0.59642 q 0.1764393,0.16131 0.382712,0.13648 0.2062726,-0.0248 0.4027904,-0.21857 0.1832693,-0.18066 0.2085299,-0.34054 0.025292,-0.16425 -0.08572,-0.27686 z"
           style="font-weight:bold;font-size:6.35px;font-family:Roboto;-inkscape-font-specification:'Roboto Bold';fill:#ffffff;stroke:none"
           id="path34153" />
        <path
           d="m 7.2467049,295.94802 q -0.3336159,-0.37134 -0.451705,-0.79043 -0.1180891,-0.41909 0.00648,-0.81861 0.1268795,-0.40158 0.4820769,-0.72069 0.5051184,-0.45381 1.10108,-0.43069 0.5982682,0.021 1.1117659,0.51837 l 0.1579519,0.16654 q 0.5159644,0.57431 0.5082594,1.21061 -0.0098,0.634 -0.5494938,1.11889 -0.5397155,0.48488 -1.1734445,0.42901 -0.6314225,-0.0579 -1.1660368,-0.65301 z m 0.7100869,-0.55041 q 0.3191108,0.35519 0.6228026,0.42414 0.3016197,0.0666 0.5507191,-0.15715 0.2421801,-0.21758 0.2124903,-0.52435 -0.031762,-0.30908 -0.3985321,-0.71733 -0.3128944,-0.34828 -0.6209648,-0.41746 -0.3080705,-0.0692 -0.5548635,0.15254 -0.2444865,0.21965 -0.2062738,0.53127 0.036141,0.30932 0.3946222,0.70834 z"
           style="font-weight:bold;font-size:6.35px;font-family:Roboto;-inkscape-font-specification:'Roboto Bold';fill:#ffffff;stroke:none"
           id="path34155" />
        <path
           d="m 11.845623,293.34895 q 0.192846,-0.156 0.227573,-0.35957 0.03473,-0.20357 -0.102807,-0.38344 l 0.653267,-0.52847 q 0.212096,0.26712 0.249278,0.60394 0.03523,0.33442 -0.113606,0.65822 -0.148376,0.31943 -0.447288,0.56124 -0.559255,0.45241 -1.168932,0.35936 -0.611626,-0.0954 -1.118642,-0.7222 l -0.037051,-0.0458 q -0.4875149,-0.60264 -0.4574666,-1.22118 0.030048,-0.61853 0.5893036,-1.07094 0.489347,-0.39587 1.009645,-0.35415 0.520759,0.0374 0.899991,0.4963 l -0.653267,0.52846 q -0.168626,-0.19859 -0.390559,-0.22643 -0.223882,-0.0303 -0.421549,0.12964 -0.243469,0.19696 -0.224515,0.47674 0.01942,0.27543 0.341175,0.67318 l 0.0585,0.0723 q 0.32566,0.40257 0.590954,0.47909 0.265293,0.0765 0.515994,-0.12629 z"
           style="font-weight:bold;font-size:6.35px;font-family:Roboto;-inkscape-font-specification:'Roboto Bold';fill:#ffffff;stroke:none"
           id="path34157" />
        <path
           d="m 15.050606,291.81696 q -0.599011,0.43098 -1.240919,0.33514 -0.639392,-0.0977 -1.079421,-0.70924 l -0.0507,-0.0705 q -0.295164,-0.41024 -0.368387,-0.84648 -0.07503,-0.43876 0.08946,-0.82067 0.165197,-0.38623 0.537692,-0.65423 0.558742,-0.40201 1.131897,-0.27962 0.575673,0.12058 1.041054,0.76741 l 0.213677,0.29699 -1.734114,1.24765 q 0.227183,0.24144 0.519256,0.27576 0.294589,0.0325 0.566409,-0.16306 0.420315,-0.30241 0.43779,-0.77716 l 0.645314,0.14304 q 0.003,0.34925 -0.182208,0.68113 -0.187019,0.32936 -0.526795,0.57382 z m -1.691065,-2.17521 q -0.216449,0.15573 -0.247332,0.39949 -0.02837,0.24196 0.12945,0.54094 l 1.011776,-0.72795 -0.04165,-0.0579 q -0.178872,-0.238 -0.398878,-0.27833 -0.221816,-0.0428 -0.453367,0.12374 z"
           style="font-weight:bold;font-size:6.35px;font-family:Roboto;-inkscape-font-specification:'Roboto Bold';fill:#ffffff;stroke:none"
           id="path34159" />
        <path
           d="m 16.797239,287.55484 q -0.167484,0.0777 -0.285035,0.15281 -0.428408,0.27393 -0.376231,0.64907 l 1.182556,1.84947 -0.754938,0.48271 -1.80724,-2.82645 0.713142,-0.45598 0.236364,0.32361 q -0.02161,-0.53454 0.380679,-0.79176 0.125387,-0.0802 0.256815,-0.11636 z"
           style="font-weight:bold;font-size:6.35px;font-family:Roboto;-inkscape-font-specification:'Roboto Bold';fill:#ffffff;stroke:none"
           id="path34161" />
        <path
           d="m 17.50231,285.21539 0.411173,0.71495 0.497243,-0.28596 0.327702,0.56981 -0.497242,0.28597 0.834712,1.45141 q 0.09275,0.16126 0.194755,0.19559 0.102009,0.0343 0.276716,-0.0661 0.129014,-0.0742 0.217642,-0.15021 l 0.338523,0.58863 q -0.188273,0.20127 -0.430175,0.34039 -0.817089,0.46992 -1.307766,-0.34596 l -0.90118,-1.56699 -0.424672,0.24423 -0.327702,-0.56981 0.424672,-0.24423 -0.411174,-0.71495 z"
           style="font-weight:bold;font-size:6.35px;font-family:Roboto;-inkscape-font-specification:'Roboto Bold';fill:#ffffff;stroke:none"
           id="path34163" />
        <path
           d="m 20.363977,287.90636 q -0.09843,-0.18995 -0.03314,-0.37395 0.06804,-0.18543 0.260746,-0.28529 0.195456,-0.10129 0.383433,-0.0485 0.190729,0.0513 0.289165,0.24127 0.09701,0.1872 0.03172,0.3712 -0.06672,0.18124 -0.264925,0.28396 -0.195456,0.10128 -0.382006,0.0513 -0.187977,-0.0528 -0.284986,-0.23995 z"
           style="font-weight:bold;font-size:6.35px;font-family:Roboto;-inkscape-font-specification:'Roboto Bold';fill:#ffffff;stroke:none"
           id="path34165" />
        <path
           d="m 21.276583,286.03343 q -0.346056,-0.70399 -0.236796,-1.27594 0.112042,-0.57332 0.660209,-0.84278 0.439647,-0.21611 0.887654,-0.0287 l -0.755031,-1.53599 0.806947,-0.39666 2.100956,4.27404 -0.726252,0.35699 -0.196254,-0.30084 q -0.115864,0.52337 -0.588902,0.7559 -0.531472,0.26125 -1.059422,0.003 -0.526536,-0.26287 -0.893109,-1.0086 z m 0.832889,-0.33687 q 0.207907,0.42296 0.466176,0.57585 0.258269,0.1529 0.539309,0.0147 0.372865,-0.18329 0.371345,-0.57295 L 22.902247,284.526 q -0.304822,-0.24057 -0.674905,-0.0587 -0.581558,0.28587 -0.11787,1.22916 z"
           style="font-weight:bold;font-size:6.35px;font-family:Roboto;-inkscape-font-specification:'Roboto Bold';fill:#ffffff;stroke:none"
           id="path34167" />
        <path
           d="m 26.781134,285.27856 q -0.660988,0.3281 -1.278849,0.1294 -0.615083,-0.20007 -0.950075,-0.87495 l -0.0386,-0.0778 q -0.224707,-0.45269 -0.226196,-0.89503 -0.0029,-0.44512 0.221396,-0.79528 0.225662,-0.35433 0.636697,-0.55836 0.616552,-0.30604 1.162264,-0.0923 0.548489,0.21236 0.902781,0.92612 l 0.162671,0.32771 -1.913533,0.94984 q 0.18501,0.27509 0.467647,0.35633 0.285414,0.0799 0.585358,-0.069 0.463803,-0.23022 0.558059,-0.69585 l 0.613563,0.24583 q -0.05369,0.34511 -0.290284,0.64255 -0.237969,0.29466 -0.612899,0.48077 z m -1.315819,-2.42072 q -0.238845,0.11856 -0.30886,0.35408 -0.06724,0.23415 0.03999,0.55477 l 1.116459,-0.55418 -0.03171,-0.0639 q -0.137897,-0.26386 -0.348446,-0.33935 -0.211927,-0.0783 -0.467435,0.0486 z"
           style="font-weight:bold;font-size:6.35px;font-family:Roboto;-inkscape-font-specification:'Roboto Bold';fill:#ffffff;stroke:none"
           id="path34169" />
      </g>
    </g>
  </g>
</svg>
