<?xml version="1.0" encoding="UTF-8" standalone="no"?>
<!-- Created with Inkscape (http://www.inkscape.org/) -->

<svg
   width="115.30849mm"
   height="100mm"
   viewBox="0 0 115.30848 100"
   version="1.1"
   id="svg5"
   inkscape:version="1.1.1 (3bf5ae0d25, 2021-09-20)"
   sodipodi:docname="isocert.svg"
   xmlns:inkscape="http://www.inkscape.org/namespaces/inkscape"
   xmlns:sodipodi="http://sodipodi.sourceforge.net/DTD/sodipodi-0.dtd"
   xmlns="http://www.w3.org/2000/svg"
   xmlns:svg="http://www.w3.org/2000/svg">
  <sodipodi:namedview
     id="namedview7"
     pagecolor="#ffffff"
     bordercolor="#999999"
     borderopacity="1"
     inkscape:pageshadow="0"
     inkscape:pageopacity="0"
     inkscape:pagecheckerboard="0"
     inkscape:document-units="mm"
     showgrid="false"
     inkscape:zoom="0.6636855"
     inkscape:cx="1166.9684"
     inkscape:cy="268.95269"
     inkscape:window-width="1920"
     inkscape:window-height="1002"
     inkscape:window-x="-8"
     inkscape:window-y="-8"
     inkscape:window-maximized="1"
     inkscape:current-layer="g28905"
     showguides="true"
     inkscape:guide-bbox="true"
     inkscape:snap-intersection-paths="true"
     fit-margin-top="0"
     fit-margin-left="0"
     fit-margin-right="0"
     fit-margin-bottom="0"
     inkscape:snap-global="false">
    <inkscape:grid
       type="xygrid"
       id="grid1345"
       originx="8.7145059"
       originy="-244.4156" />
    <sodipodi:guide
       position="33.231954,159.23907"
       orientation="0,-1"
       id="guide18314" />
    <sodipodi:guide
       position="33.231953,159.23907"
       orientation="0,-1"
       id="guide18316" />
    <sodipodi:guide
       position="34.427927,158.24243"
       orientation="0,-1"
       id="guide18318" />
  </sodipodi:namedview>
  <defs
     id="defs2">
    <rect
       x="101.21533"
       y="370.76773"
       width="396.33792"
       height="163.00995"
       id="rect31018" />
    <rect
       x="-449.60916"
       y="70.318016"
       width="400.59961"
       height="277.01038"
       id="rect3535" />
    <rect
       x="-446.41287"
       y="894.9566"
       width="292.99176"
       height="114.00043"
       id="rect24794" />
    <rect
       x="41.435291"
       y="613.24231"
       width="296.82736"
       height="92.664375"
       id="rect1789" />
    <rect
       x="-449.60916"
       y="70.318016"
       width="400.59961"
       height="277.01038"
       id="rect16194" />
    <filter
       inkscape:collect="always"
       style="color-interpolation-filters:sRGB"
       id="filter886"
       x="-0.018785355"
       y="-0.022033048"
       width="1.0375707"
       height="1.0440661">
      <feGaussianBlur
         inkscape:collect="always"
         stdDeviation="0.55082617"
         id="feGaussianBlur888" />
    </filter>
    <filter
       inkscape:collect="always"
       style="color-interpolation-filters:sRGB"
       id="filter890"
       x="-0.020282771"
       y="-0.020277228"
       width="1.0405655"
       height="1.0405545">
      <feGaussianBlur
         inkscape:collect="always"
         stdDeviation="0.62414201"
         id="feGaussianBlur892" />
    </filter>
    <filter
       inkscape:collect="always"
       style="color-interpolation-filters:sRGB"
       id="filter1902"
       x="-0.016101366"
       y="-0.027387655"
       width="1.0322027"
       height="1.0547753">
      <feGaussianBlur
         inkscape:collect="always"
         stdDeviation="0.29359476"
         id="feGaussianBlur1904" />
    </filter>
    <filter
       inkscape:collect="always"
       style="color-interpolation-filters:sRGB"
       id="filter2385"
       x="-0.018637551"
       y="-0.022239909"
       width="1.0372751"
       height="1.0444798">
      <feGaussianBlur
         inkscape:collect="always"
         stdDeviation="0.44562316"
         id="feGaussianBlur2387" />
    </filter>
  </defs>
  <g
     inkscape:label="Ebene 1"
     inkscape:groupmode="layer"
     id="layer1"
     transform="translate(8.7145068,-244.41559)">
    <g
       id="g28905"
       transform="matrix(1.1808737,0,0,1.1808737,-8.3112094,-52.748036)">
      <path
         style="mix-blend-mode:normal;fill:#000000;stroke-width:0.402496;filter:url(#filter886)"
         d="m 34.15016,309.44911 c -3.636128,-5.74939 -6.754186,-9.7492 -10.365644,-13.29689 l -3.413295,-3.35303 0.506412,-5.30066 c 0.278524,-2.91534 0.636494,-5.44727 0.795485,-5.62648 0.537595,-0.60596 6.464671,4.57334 9.177758,8.01989 1.482546,1.88333 3.610856,5.0195 4.729577,6.96923 l 2.034035,3.545 1.761484,-3.44004 c 6.916873,-13.5081 18.816652,-26.08724 33.274506,-35.17417 3.932637,-2.47172 15.144357,-8.1032 17.065909,-8.57196 l 1.027893,-0.25076 -0.506381,5.55815 c -0.278509,3.05698 -0.514656,5.9299 -0.524772,6.38425 -0.01399,0.62865 -0.52346,1.00226 -2.131499,1.56307 -3.462805,1.20768 -11.5044,5.15077 -15.594635,7.64663 -8.342034,5.0903 -16.769667,12.38545 -23.279743,20.15146 -3.584559,4.27612 -8.560147,11.77076 -10.509254,15.82992 -0.762234,1.58741 -1.486727,2.87733 -1.609989,2.86645 -0.123266,-0.0106 -1.220293,-1.59487 -2.437847,-3.52006 z"
         id="path34089-4"
         transform="matrix(1.056694,0,0,1.056694,0.01936239,-14.266889)" />
      <path
         id="path2438"
         style="color:#000000;fill:#000000;fill-rule:evenodd;stroke-width:1;stroke-linejoin:round;-inkscape-stroke:none;paint-order:markers stroke fill;filter:url(#filter890)"
         d="m 37.877001,256.41668 c -5.666208,0.0274 -11.410067,1.36298 -16.783471,4.1491 -18.0998891,9.38482 -25.1724827,31.68778 -15.7876672,49.78766 9.3848252,18.0999 31.6877632,25.17042 49.7876612,15.7856 12.702905,-6.58648 19.957058,-19.53425 19.91558,-32.92667 h -0.04548 c 0,-3.49554 -0.486693,-6.87697 -0.997413,-8.67239 -0.510717,-1.79542 -0.622668,-2.17249 -0.744596,-2.54812 -0.03154,-0.0988 -0.06376,-0.19721 -0.09612,-0.29559 -0.363585,-1.08872 -0.778073,-2.16934 -1.109837,-2.93587 -0.331766,-0.76653 -0.540496,-1.22086 -0.759288,-1.66953 -3.559162,2.31107 -7.118697,4.99957 -10.507369,7.95662 0.842645,2.41255 1.302245,5.00466 1.302245,7.70341 l -0.0036,-0.004 c 0.228439,8.87861 -4.493776,17.52761 -12.915493,21.89428 -11.765066,6.1002 -26.227015,1.51453 -32.327225,-10.25054 -6.1002,-11.76507 -1.515047,-26.22754 10.250021,-32.32775 3.718841,-1.92822 7.707056,-2.78859 11.615312,-2.69182 5.565616,0 10.678237,1.9492 14.69471,5.2002 2.981746,-3.01544 6.202352,-5.87148 9.614919,-8.54108 -0.377508,-0.34493 -0.762765,-0.68113 -1.154454,-1.01028 -0.0077,0.006 -0.01556,0.012 -0.02326,0.0181 -6.712937,-5.61317 -15.224864,-8.6637 -23.925155,-8.6217 z m 0.968418,1.50275 c 7.911732,0.17558 15.59945,3.01894 21.754746,8.08116 -2.640407,2.14551 -5.152621,4.40826 -7.525639,6.76703 -4.393618,-3.19026 -9.705624,-4.92245 -15.131895,-4.89686 -3.90915,0.0184 -7.871698,0.93955 -11.578105,2.86133 -12.484739,6.47335 -17.3646771,21.86459 -10.891325,34.34932 6.473361,12.48475 21.864072,17.36468 34.34881,10.89133 11.174468,-5.79398 16.229782,-18.72724 12.531534,-30.33097 2.682751,-2.30224 5.464824,-4.44252 8.25531,-6.3407 7.339164,16.93409 0.429572,36.88084 -16.205729,45.50627 -17.380218,9.01167 -38.754405,2.23593 -47.7660783,-15.14429 -9.0116691,-17.38022 -2.2333382,-38.7539 15.1468793,-47.76556 4.960416,-2.57199 10.246132,-3.8575 15.476574,-3.97754 0.529053,-0.0121 1.057468,-0.0122 1.584918,-5.3e-4 z"
         sodipodi:nodetypes="ssssccccccccccssscccccsssccssssccssssss"
         transform="matrix(1.056694,0,0,1.056694,0.01936239,-14.266889)" />
      <g
         id="g1900"
         style="filter:url(#filter1902)"
         transform="matrix(1.056694,0,0,1.056694,0.01936239,-14.266889)">
        <path
           d="m 29.243292,325.10419 2.463802,0.66299 -0.292017,1.08519 -4.182407,-1.12546 0.220581,-0.81971 3.212859,-2.49189 -2.300788,-0.61912 0.293269,-1.08985 4.038021,1.08659 -0.21431,0.79643 z"
           style="font-weight:bold;font-size:9.8778px;line-height:125%;font-family:Roboto;-inkscape-font-specification:'Roboto Bold';font-variant-ligatures:no-common-ligatures;text-align:center;letter-spacing:0.79375px;word-spacing:0px;text-anchor:middle;white-space:pre;mix-blend-mode:normal;fill:#000000;stroke:none;stroke-width:1px"
           id="path23328" />
        <path
           d="m 35.372936,327.44166 q -1.143169,-0.10424 -1.799715,-0.8712 -0.651738,-0.76651 -0.545324,-1.9337 l 0.01226,-0.13449 q 0.07138,-0.78292 0.430042,-1.37014 0.359093,-0.59203 0.941684,-0.87309 0.587833,-0.28542 1.298706,-0.22061 1.066315,0.0972 1.615014,0.82529 0.553498,0.7285 0.44095,1.96292 l -0.05167,0.56679 -3.309419,-0.30174 q 0.02083,0.51528 0.329023,0.85334 0.313,0.3385 0.831749,0.38579 0.80214,0.0731 1.306629,-0.46689 l 0.61243,0.82591 q -0.3525,0.41343 -0.908431,0.61458 -0.555501,0.19634 -1.203926,0.13724 z m 0.230375,-4.27972 q -0.413078,-0.0377 -0.697853,0.21727 -0.279944,0.25543 -0.399315,0.76756 l 1.930896,0.17605 0.01009,-0.11044 q 0.03244,-0.46198 -0.184953,-0.73365 -0.21695,-0.27647 -0.658845,-0.31675 z"
           style="font-weight:bold;font-size:9.8778px;line-height:125%;font-family:Roboto;-inkscape-font-specification:'Roboto Bold';font-variant-ligatures:no-common-ligatures;text-align:center;letter-spacing:0.79375px;word-spacing:0px;text-anchor:middle;white-space:pre;mix-blend-mode:normal;fill:#000000;stroke:none;stroke-width:1px"
           id="path23330" />
        <path
           d="m 41.779138,323.38403 q -0.286492,-0.0197 -0.503059,-0.005 -0.789277,0.0522 -0.999423,0.60257 l 0.225154,3.40736 -1.390857,0.0919 -0.344088,-5.20729 1.313853,-0.0868 0.07953,0.61829 q 0.371318,-0.74475 1.112463,-0.79373 0.231014,-0.0152 0.437276,0.034 z"
           style="font-weight:bold;font-size:9.8778px;line-height:125%;font-family:Roboto;-inkscape-font-specification:'Roboto Bold';font-variant-ligatures:no-common-ligatures;text-align:center;letter-spacing:0.79375px;word-spacing:0px;text-anchor:middle;white-space:pre;mix-blend-mode:normal;fill:#000000;stroke:none;stroke-width:1px"
           id="path23332" />
        <path
           d="m 44.108777,320.33785 0.247764,1.25881 0.875483,-0.17232 0.197466,1.00326 -0.875483,0.17232 0.502972,2.55546 q 0.05589,0.28395 0.18898,0.38555 0.133059,0.10161 0.440667,0.0411 0.227167,-0.0447 0.395747,-0.11226 l 0.203985,1.03639 q -0.377805,0.20265 -0.803947,0.28603 -1.438632,0.28317 -1.752977,-1.16408 l -0.54303,-2.75896 -0.747708,0.14717 -0.197465,-1.00326 0.747708,-0.14717 -0.24776,-1.25881 z"
           style="font-weight:bold;font-size:9.8778px;line-height:125%;font-family:Roboto;-inkscape-font-specification:'Roboto Bold';font-variant-ligatures:no-common-ligatures;text-align:center;letter-spacing:0.79375px;word-spacing:0px;text-anchor:middle;white-space:pre;fill:#000000;stroke:none;stroke-width:1px"
           id="path23334" />
        <path
           d="m 49.15728,325.68027 -1.334298,0.41958 -1.565462,-4.97831 1.334298,-0.41958 z m -3.383086,-5.82242 q -0.09405,-0.29906 0.04303,-0.55453 0.141681,-0.2569 0.486758,-0.36541 0.340487,-0.10704 0.603687,0.0225 0.263213,0.12959 0.357253,0.42865 0.09549,0.30367 -0.05079,0.56201 -0.141676,0.25691 -0.477554,0.36252 -0.335856,0.10566 -0.603687,-0.0225 -0.263208,-0.12958 -0.3587,-0.43325 z"
           style="font-weight:bold;font-size:9.8778px;line-height:125%;font-family:Roboto;-inkscape-font-specification:'Roboto Bold';font-variant-ligatures:no-common-ligatures;text-align:center;letter-spacing:0.79375px;word-spacing:0px;text-anchor:middle;white-space:pre;fill:#000000;stroke:none;stroke-width:1px"
           id="path23336" />
        <path
           d="m 51.333687,324.86774 -1.699352,-3.83663 -0.709982,0.31451 -0.414098,-0.9349 0.709982,-0.31451 -0.179704,-0.40572 q -0.355495,-0.8026 -0.09219,-1.44673 0.265757,-0.6505 1.094826,-1.01771 0.264572,-0.11725 0.687323,-0.19894 l 0.424301,0.99368 q -0.176348,0.0306 -0.405671,0.13217 -0.718805,0.31841 -0.419964,0.99311 l 0.169935,0.38366 0.948128,-0.41997 0.414098,0.9349 -0.948128,0.41997 1.699351,3.83663 z"
           style="font-weight:bold;font-size:9.8778px;line-height:125%;font-family:Roboto;-inkscape-font-specification:'Roboto Bold';font-variant-ligatures:no-common-ligatures;text-align:center;letter-spacing:0.79375px;word-spacing:0px;text-anchor:middle;white-space:pre;fill:#000000;stroke:none;stroke-width:1px"
           id="path23338" />
        <path
           d="m 56.163681,322.4091 -1.208298,0.70456 -2.628687,-4.50823 1.208299,-0.70457 z m -4.588082,-4.92904 q -0.157917,-0.27082 -0.08079,-0.55029 0.08129,-0.28189 0.393789,-0.46411 0.308312,-0.17979 0.593687,-0.11168 0.285365,0.0681 0.443282,0.33893 0.160377,0.27498 0.07489,0.55931 -0.08129,0.2819 -0.385448,0.45925 -0.304181,0.17732 -0.5937,0.11168 -0.285367,-0.0681 -0.445709,-0.34309 z"
           style="font-weight:bold;font-size:9.8778px;line-height:125%;font-family:Roboto;-inkscape-font-specification:'Roboto Bold';font-variant-ligatures:no-common-ligatures;text-align:center;letter-spacing:0.79375px;word-spacing:0px;text-anchor:middle;white-space:pre;fill:#000000;stroke:none;stroke-width:1px"
           id="path23340" />
        <path
           d="m 58.395321,319.52082 2.012864,-1.56787 0.690574,0.88658 -3.416928,2.66153 -0.521637,-0.66969 -0.05494,-4.06559 -1.879686,1.46414 -0.693538,-0.89038 3.298971,-2.56965 0.506817,0.65066 z"
           style="font-weight:bold;font-size:9.8778px;line-height:125%;font-family:Roboto;-inkscape-font-specification:'Roboto Bold';font-variant-ligatures:no-common-ligatures;text-align:center;letter-spacing:0.79375px;word-spacing:0px;text-anchor:middle;white-space:pre;fill:#000000;stroke:none;stroke-width:1px"
           id="path23342" />
        <path
           d="m 63.309436,316.60454 -0.977693,1.00025 -3.731993,-3.64781 0.977693,-1.00025 z m -5.732763,-3.5329 q -0.22423,-0.21912 -0.224071,-0.50906 0.0035,-0.29336 0.256328,-0.55205 0.249485,-0.25523 0.542691,-0.26539 0.293201,-0.0102 0.517403,0.20897 0.22767,0.2225 0.220822,0.5193 -0.0035,0.29336 -0.249586,0.54516 -0.246114,0.25178 -0.542691,0.26539 -0.293201,0.0102 -0.520852,-0.21234 z"
           style="font-weight:bold;font-size:9.8778px;line-height:125%;font-family:Roboto;-inkscape-font-specification:'Roboto Bold';font-variant-ligatures:no-common-ligatures;text-align:center;letter-spacing:0.79375px;word-spacing:0px;text-anchor:middle;white-space:pre;fill:#000000;stroke:none;stroke-width:1px"
           id="path23344" />
        <path
           d="m 66.145933,313.30975 q -0.680369,0.92455 -1.676341,1.08986 -0.993103,0.16144 -1.937071,-0.53322 l -0.108756,-0.0801 q -0.633188,-0.46597 -0.950328,-1.07662 -0.321387,-0.61332 -0.26031,-1.25749 0.05969,-0.65073 0.482782,-1.22566 0.634629,-0.86238 1.541543,-0.95551 0.909763,-0.097 1.908121,0.63767 l 0.458381,0.33733 -1.969655,2.67652 q 0.451796,0.24863 0.900519,0.15967 0.451587,-0.0928 0.760336,-0.51239 0.477398,-0.64873 0.276073,-1.3598 l 1.023599,-0.0971 q 0.171549,0.51552 0.05625,1.09536 -0.119198,0.57699 -0.505128,1.10142 z m -3.543901,-2.41035 q -0.245845,0.33408 -0.174906,0.70965 0.0738,0.3717 0.450485,0.73869 l 1.149204,-1.56162 -0.08939,-0.0657 q -0.378648,-0.26667 -0.723582,-0.22109 -0.348827,0.0427 -0.611816,0.40013 z"
           style="font-weight:bold;font-size:9.8778px;line-height:125%;font-family:Roboto;-inkscape-font-specification:'Roboto Bold';font-variant-ligatures:no-common-ligatures;text-align:center;letter-spacing:0.79375px;word-spacing:0px;text-anchor:middle;white-space:pre;fill:#000000;stroke:none;stroke-width:1px"
           id="path23346" />
        <path
           d="m 65.986201,305.72725 q -0.165108,0.23496 -0.2649,0.4277 -0.363707,0.70241 -0.0014,1.16701 l 3.0324,1.57015 -0.640913,1.23779 -4.634261,-2.39955 0.605431,-1.16927 0.570256,0.25181 q -0.445198,-0.70307 -0.103704,-1.36264 0.106442,-0.2056 0.255263,-0.35665 z"
           style="font-weight:bold;font-size:9.8778px;line-height:125%;font-family:Roboto;-inkscape-font-specification:'Roboto Bold';font-variant-ligatures:no-common-ligatures;text-align:center;letter-spacing:0.79375px;word-spacing:0px;text-anchor:middle;white-space:pre;fill:#000000;stroke:none;stroke-width:1px"
           id="path23348" />
        <path
           d="m 64.591447,302.14982 1.204779,0.44103 0.306721,-0.83791 0.960193,0.35148 -0.30672,0.83792 2.44578,0.89529 q 0.271755,0.0995 0.42765,0.0384 0.155867,-0.0611 0.263662,-0.35546 0.07958,-0.21741 0.109218,-0.39659 l 0.991905,0.3631 q -0.02317,0.42808 -0.172382,0.83571 -0.504024,1.37689 -1.904431,0.89509 l -2.640541,-0.9666 -0.261958,0.71562 -0.960193,-0.35148 0.261949,-0.71562 -1.204766,-0.44102 z"
           style="font-weight:bold;font-size:9.8778px;line-height:125%;font-family:Roboto;-inkscape-font-specification:'Roboto Bold';font-variant-ligatures:no-common-ligatures;text-align:center;letter-spacing:0.79375px;word-spacing:0px;text-anchor:middle;white-space:pre;fill:#000000;stroke:none;stroke-width:1px"
           id="path23350" />
      </g>
      <g
         id="g1353"
         style="fill:#ffffff"
         transform="matrix(1.056694,0,0,1.056694,0.01936239,-14.266889)">
        <path
           d="m 29.243292,325.10419 2.463802,0.66299 -0.292017,1.08519 -4.182407,-1.12546 0.220581,-0.81971 3.212859,-2.49189 -2.300788,-0.61912 0.293269,-1.08985 4.038021,1.08659 -0.21431,0.79643 z"
           style="font-weight:bold;font-size:9.8778px;line-height:125%;font-family:Roboto;-inkscape-font-specification:'Roboto Bold';font-variant-ligatures:no-common-ligatures;text-align:center;letter-spacing:0.79375px;word-spacing:0px;text-anchor:middle;white-space:pre;fill:#ffffff;stroke:none;stroke-width:1px"
           id="path28927" />
        <path
           d="m 35.372936,327.44166 q -1.143169,-0.10424 -1.799715,-0.8712 -0.651738,-0.76651 -0.545324,-1.9337 l 0.01226,-0.13449 q 0.07138,-0.78292 0.430042,-1.37014 0.359093,-0.59203 0.941684,-0.87309 0.587833,-0.28542 1.298706,-0.22061 1.066315,0.0972 1.615014,0.82529 0.553498,0.7285 0.44095,1.96292 l -0.05167,0.56679 -3.309419,-0.30174 q 0.02083,0.51528 0.329023,0.85334 0.313,0.3385 0.831749,0.38579 0.80214,0.0731 1.306629,-0.46689 l 0.61243,0.82591 q -0.3525,0.41343 -0.908431,0.61458 -0.555501,0.19634 -1.203926,0.13724 z m 0.230375,-4.27972 q -0.413078,-0.0377 -0.697853,0.21727 -0.279944,0.25543 -0.399315,0.76756 l 1.930896,0.17605 0.01009,-0.11044 q 0.03244,-0.46198 -0.184953,-0.73365 -0.21695,-0.27647 -0.658845,-0.31675 z"
           style="font-weight:bold;font-size:9.8778px;line-height:125%;font-family:Roboto;-inkscape-font-specification:'Roboto Bold';font-variant-ligatures:no-common-ligatures;text-align:center;letter-spacing:0.79375px;word-spacing:0px;text-anchor:middle;white-space:pre;fill:#ffffff;stroke:none;stroke-width:1px"
           id="path28929" />
        <path
           d="m 41.779138,323.38403 q -0.286492,-0.0197 -0.503059,-0.005 -0.789277,0.0522 -0.999423,0.60257 l 0.225154,3.40736 -1.390857,0.0919 -0.344088,-5.20729 1.313853,-0.0868 0.07953,0.61829 q 0.371318,-0.74475 1.112463,-0.79373 0.231014,-0.0152 0.437276,0.034 z"
           style="font-weight:bold;font-size:9.8778px;line-height:125%;font-family:Roboto;-inkscape-font-specification:'Roboto Bold';font-variant-ligatures:no-common-ligatures;text-align:center;letter-spacing:0.79375px;word-spacing:0px;text-anchor:middle;white-space:pre;fill:#ffffff;stroke:none;stroke-width:1px"
           id="path28931" />
        <path
           d="m 44.108777,320.33785 0.247764,1.25881 0.875483,-0.17232 0.197466,1.00326 -0.875483,0.17232 0.502972,2.55546 q 0.05589,0.28395 0.18898,0.38555 0.133059,0.10161 0.440667,0.0411 0.227167,-0.0447 0.395747,-0.11226 l 0.203985,1.03639 q -0.377805,0.20265 -0.803947,0.28603 -1.438632,0.28317 -1.752977,-1.16408 l -0.54303,-2.75896 -0.747708,0.14717 -0.197465,-1.00326 0.747708,-0.14717 -0.24776,-1.25881 z"
           style="font-weight:bold;font-size:9.8778px;line-height:125%;font-family:Roboto;-inkscape-font-specification:'Roboto Bold';font-variant-ligatures:no-common-ligatures;text-align:center;letter-spacing:0.79375px;word-spacing:0px;text-anchor:middle;white-space:pre;fill:#ffffff;stroke:none;stroke-width:1px"
           id="path28933" />
        <path
           d="m 49.15728,325.68027 -1.334298,0.41958 -1.565462,-4.97831 1.334298,-0.41958 z m -3.383086,-5.82242 q -0.09405,-0.29906 0.04303,-0.55453 0.141681,-0.2569 0.486758,-0.36541 0.340487,-0.10704 0.603687,0.0225 0.263213,0.12959 0.357253,0.42865 0.09549,0.30367 -0.05079,0.56201 -0.141676,0.25691 -0.477554,0.36252 -0.335856,0.10566 -0.603687,-0.0225 -0.263208,-0.12958 -0.3587,-0.43325 z"
           style="font-weight:bold;font-size:9.8778px;line-height:125%;font-family:Roboto;-inkscape-font-specification:'Roboto Bold';font-variant-ligatures:no-common-ligatures;text-align:center;letter-spacing:0.79375px;word-spacing:0px;text-anchor:middle;white-space:pre;fill:#ffffff;stroke:none;stroke-width:1px"
           id="path28935" />
        <path
           d="m 51.333687,324.86774 -1.699352,-3.83663 -0.709982,0.31451 -0.414098,-0.9349 0.709982,-0.31451 -0.179704,-0.40572 q -0.355495,-0.8026 -0.09219,-1.44673 0.265757,-0.6505 1.094826,-1.01771 0.264572,-0.11725 0.687323,-0.19894 l 0.424301,0.99368 q -0.176348,0.0306 -0.405671,0.13217 -0.718805,0.31841 -0.419964,0.99311 l 0.169935,0.38366 0.948128,-0.41997 0.414098,0.9349 -0.948128,0.41997 1.699351,3.83663 z"
           style="font-weight:bold;font-size:9.8778px;line-height:125%;font-family:Roboto;-inkscape-font-specification:'Roboto Bold';font-variant-ligatures:no-common-ligatures;text-align:center;letter-spacing:0.79375px;word-spacing:0px;text-anchor:middle;white-space:pre;fill:#ffffff;stroke:none;stroke-width:1px"
           id="path28937" />
        <path
           d="m 56.163681,322.4091 -1.208298,0.70456 -2.628687,-4.50823 1.208299,-0.70457 z m -4.588082,-4.92904 q -0.157917,-0.27082 -0.08079,-0.55029 0.08129,-0.28189 0.393789,-0.46411 0.308312,-0.17979 0.593687,-0.11168 0.285365,0.0681 0.443282,0.33893 0.160377,0.27498 0.07489,0.55931 -0.08129,0.2819 -0.385448,0.45925 -0.304181,0.17732 -0.5937,0.11168 -0.285367,-0.0681 -0.445709,-0.34309 z"
           style="font-weight:bold;font-size:9.8778px;line-height:125%;font-family:Roboto;-inkscape-font-specification:'Roboto Bold';font-variant-ligatures:no-common-ligatures;text-align:center;letter-spacing:0.79375px;word-spacing:0px;text-anchor:middle;white-space:pre;fill:#ffffff;stroke:none;stroke-width:1px"
           id="path28939" />
        <path
           d="m 58.395321,319.52082 2.012864,-1.56787 0.690574,0.88658 -3.416928,2.66153 -0.521637,-0.66969 -0.05494,-4.06559 -1.879686,1.46414 -0.693538,-0.89038 3.298971,-2.56965 0.506817,0.65066 z"
           style="font-weight:bold;font-size:9.8778px;line-height:125%;font-family:Roboto;-inkscape-font-specification:'Roboto Bold';font-variant-ligatures:no-common-ligatures;text-align:center;letter-spacing:0.79375px;word-spacing:0px;text-anchor:middle;white-space:pre;fill:#ffffff;stroke:none;stroke-width:1px"
           id="path28941" />
        <path
           d="m 63.309436,316.60454 -0.977693,1.00025 -3.731993,-3.64781 0.977693,-1.00025 z m -5.732763,-3.5329 q -0.22423,-0.21912 -0.224071,-0.50906 0.0035,-0.29336 0.256328,-0.55205 0.249485,-0.25523 0.542691,-0.26539 0.293201,-0.0102 0.517403,0.20897 0.22767,0.2225 0.220822,0.5193 -0.0035,0.29336 -0.249586,0.54516 -0.246114,0.25178 -0.542691,0.26539 -0.293201,0.0102 -0.520852,-0.21234 z"
           style="font-weight:bold;font-size:9.8778px;line-height:125%;font-family:Roboto;-inkscape-font-specification:'Roboto Bold';font-variant-ligatures:no-common-ligatures;text-align:center;letter-spacing:0.79375px;word-spacing:0px;text-anchor:middle;white-space:pre;fill:#ffffff;stroke:none;stroke-width:1px"
           id="path28943" />
        <path
           d="m 66.145933,313.30975 q -0.680369,0.92455 -1.676341,1.08986 -0.993103,0.16144 -1.937071,-0.53322 l -0.108756,-0.0801 q -0.633188,-0.46597 -0.950328,-1.07662 -0.321387,-0.61332 -0.26031,-1.25749 0.05969,-0.65073 0.482782,-1.22566 0.634629,-0.86238 1.541543,-0.95551 0.909763,-0.097 1.908121,0.63767 l 0.458381,0.33733 -1.969655,2.67652 q 0.451796,0.24863 0.900519,0.15967 0.451587,-0.0928 0.760336,-0.51239 0.477398,-0.64873 0.276073,-1.3598 l 1.023599,-0.0971 q 0.171549,0.51552 0.05625,1.09536 -0.119198,0.57699 -0.505128,1.10142 z m -3.543901,-2.41035 q -0.245845,0.33408 -0.174906,0.70965 0.0738,0.3717 0.450485,0.73869 l 1.149204,-1.56162 -0.08939,-0.0657 q -0.378648,-0.26667 -0.723582,-0.22109 -0.348827,0.0427 -0.611816,0.40013 z"
           style="font-weight:bold;font-size:9.8778px;line-height:125%;font-family:Roboto;-inkscape-font-specification:'Roboto Bold';font-variant-ligatures:no-common-ligatures;text-align:center;letter-spacing:0.79375px;word-spacing:0px;text-anchor:middle;white-space:pre;fill:#ffffff;stroke:none;stroke-width:1px"
           id="path28945" />
        <path
           d="m 65.986201,305.72725 q -0.165108,0.23496 -0.2649,0.4277 -0.363707,0.70241 -0.0014,1.16701 l 3.0324,1.57015 -0.640913,1.23779 -4.634261,-2.39955 0.605431,-1.16927 0.570256,0.25181 q -0.445198,-0.70307 -0.103704,-1.36264 0.106442,-0.2056 0.255263,-0.35665 z"
           style="font-weight:bold;font-size:9.8778px;line-height:125%;font-family:Roboto;-inkscape-font-specification:'Roboto Bold';font-variant-ligatures:no-common-ligatures;text-align:center;letter-spacing:0.79375px;word-spacing:0px;text-anchor:middle;white-space:pre;fill:#ffffff;stroke:none;stroke-width:1px"
           id="path28947" />
        <path
           d="m 64.591447,302.14982 1.204779,0.44103 0.306721,-0.83791 0.960193,0.35148 -0.30672,0.83792 2.44578,0.89529 q 0.271755,0.0995 0.42765,0.0384 0.155867,-0.0611 0.263662,-0.35546 0.07958,-0.21741 0.109218,-0.39659 l 0.991905,0.3631 q -0.02317,0.42808 -0.172382,0.83571 -0.504024,1.37689 -1.904431,0.89509 l -2.640541,-0.9666 -0.261958,0.71562 -0.960193,-0.35148 0.261949,-0.71562 -1.204766,-0.44102 z"
           style="font-weight:bold;font-size:9.8778px;line-height:125%;font-family:Roboto;-inkscape-font-specification:'Roboto Bold';font-variant-ligatures:no-common-ligatures;text-align:center;letter-spacing:0.79375px;word-spacing:0px;text-anchor:middle;white-space:pre;fill:#ffffff;stroke:none;stroke-width:1px"
           id="path28949" />
      </g>
      <g
         aria-label="DIN EN 1090 "
         id="text31016"
         style="font-size:12.7px;font-family:'Times New Roman';-inkscape-font-specification:'Times New Roman, ';font-variant-ligatures:no-common-ligatures;text-align:center;letter-spacing:0px;word-spacing:0px;text-anchor:middle;white-space:pre;fill:#000000;stroke:none;stroke-width:1px;filter:url(#filter2385)"
         transform="matrix(0.89484083,0,0,0.89484083,7.4565718,32.488287)">
        <path
           d="m 6.326312,300.64455 -8.9657803,1.0658 -0.3279384,-2.7587 q -0.1405451,-1.1823 0.2846521,-2.17581 0.4183074,-0.99895 1.3413375,-1.63948 0.91687228,-0.6398 2.16690895,-0.7884 l 0.41257365,-0.0491 q 1.2500367,-0.14859 2.2844601,0.25301 1.0336914,0.39544 1.6806862,1.26774 0.6469949,0.87231 0.7929657,2.04772 z m -7.6890326,-0.95942 5.9853973,-0.71151 -0.1061408,-0.89288 q -0.128833,-1.08378 -0.9050583,-1.57227 -0.7762254,-0.4885 -2.0954621,-0.34417 l -0.4741518,0.0564 q -1.36703519,0.1625 -2.00168172,0.81247 -0.64080438,0.6507 -0.51123938,1.74063 z"
           style="-inkscape-font-specification:'Roboto Bold';fill:#000000;stroke:none"
           id="path43699" />
        <path
           d="m 5.8743178,290.44905 -0.1385159,1.85519 -9.003844,-0.67227 0.1385159,-1.85518 z"
           style="-inkscape-font-specification:'Roboto Bold';fill:#000000;stroke:none"
           id="path43701" />
        <path
           d="m 7.9187675,281.62965 -0.5103942,1.78897 -6.70633763,1.85267 5.71277033,1.62985 -0.5103941,1.78897 -8.6824569,-2.47711 0.5103942,-1.78897 6.7199654,-1.85522 -5.7246968,-1.63327 0.50869288,-1.783 z"
           style="-inkscape-font-specification:'Roboto Bold';fill:#000000;stroke:none"
           id="path43703" />
        <path
           d="m 10.310296,270.67432 -2.1347251,2.86378 1.9390181,1.44539 2.505337,-3.36096 1.198214,0.89317 -3.617173,4.85252 -7.2390014,-5.39611 3.6097603,-4.84258 1.2081575,0.90059 -2.4979244,3.35102 1.7252291,1.28603 2.1347247,-2.86379 z"
           style="-inkscape-font-specification:'Roboto Bold';fill:#000000;stroke:none"
           id="path43705" />
        <path
           d="m 20.326541,267.11636 -1.458427,1.15494 -6.527196,-2.40895 3.688125,4.65725 -1.458427,1.15494 -5.605334,-7.07823 1.458427,-1.15495 6.539757,2.41483 -3.695824,-4.66697 1.453565,-1.15109 z"
           style="-inkscape-font-specification:'Roboto Bold';fill:#000000;stroke:none"
           id="path43707" />
        <path
           d="m 28.62904,263.72055 -1.708727,0.54039 -2.082999,-6.58658 -1.839757,1.27773 -0.439412,-1.38945 3.161383,-2.40462 0.183289,-0.058 z"
           style="-inkscape-font-specification:'Roboto Bold';fill:#000000;stroke:none"
           id="path43709" />
        <path
           d="m 37.287716,258.82465 q 0.130897,1.86817 -0.573005,2.91211 -0.703902,1.04394 -2.194729,1.1484 -1.47227,0.10316 -2.319755,-0.81344 -0.847486,-0.91659 -0.993039,-2.72779 l -0.11616,-1.65784 q -0.132196,-1.88674 0.578759,-2.91874 0.71714,-1.03243 2.18941,-1.13559 1.472269,-0.10316 2.319754,0.81343 0.847052,0.91041 0.992606,2.72161 z m -1.915184,-1.69343 q -0.07845,-1.11966 -0.423293,-1.60524 -0.339089,-0.4922 -0.98862,-0.44669 -0.630972,0.0442 -0.899845,0.55414 -0.263121,0.50331 -0.209296,1.53768 l 0.153435,2.18984 q 0.07715,1.10111 0.411787,1.61849 0.34039,0.51076 1.002292,0.46438 0.655717,-0.0459 0.910484,-0.57975 0.254768,-0.53381 0.193023,-1.59249 z"
           style="-inkscape-font-specification:'Roboto Bold';fill:#000000;stroke:none"
           id="path43711" />
        <path
           d="m 43.507892,259.73674 q -0.803999,0.56428 -1.727733,0.41093 -1.180668,-0.196 -1.756238,-1.12131 -0.574554,-0.93142 -0.346053,-2.30785 0.145225,-0.87479 0.645358,-1.53981 0.507267,-0.67011 1.259448,-0.96012 0.753197,-0.29612 1.609639,-0.15395 0.880913,0.14624 1.492947,0.70044 0.612033,0.5542 0.854215,1.44302 0.242181,0.88882 0.07159,1.95427 l -0.108665,0.65457 q -0.369664,2.22675 -1.688159,3.31537 -1.318494,1.08861 -3.363705,0.83709 l -0.435354,-0.066 0.24475,-1.47431 0.392532,0.0589 q 2.323542,0.27887 2.855427,-1.75123 z m -1.068956,-0.86892 q 0.428222,0.0711 0.770654,-0.0984 0.34855,-0.16843 0.559397,-0.45402 l 0.120852,-0.72797 q 0.149287,-0.89927 -0.111029,-1.45165 -0.260317,-0.55239 -0.835357,-0.64785 -0.532218,-0.0884 -0.95604,0.34417 -0.422806,0.42641 -0.544674,1.1605 -0.120851,0.72798 0.131293,1.25386 0.259277,0.52078 0.864904,0.62132 z"
           style="-inkscape-font-specification:'Roboto Bold';fill:#000000;stroke:none"
           id="path43713" />
        <path
           d="m 53.011828,262.86932 q -0.727142,1.72583 -1.826714,2.3392 -1.099572,0.61338 -2.476803,0.0331 -1.360088,-0.57305 -1.702117,-1.77362 -0.342029,-1.20058 0.346299,-2.8822 l 0.645277,-1.53152 q 0.734365,-1.74297 1.834836,-2.34251 1.106186,-0.59713 2.466273,-0.0241 1.360088,0.57305 1.702117,1.77363 0.344437,1.19486 -0.343891,2.87648 z m -0.943656,-2.37595 q 0.435803,-1.03435 0.347506,-1.62334 -0.08017,-0.59229 -0.680213,-0.84511 -0.582894,-0.24559 -1.053125,0.0879 -0.462108,0.33017 -0.881346,1.27729 l -0.852345,2.02299 q -0.42858,1.01721 -0.363751,1.62996 0.07295,0.60944 0.684419,0.86707 0.605753,0.25522 1.074186,-0.10593 0.468432,-0.36116 0.891587,-1.33355 z"
           style="-inkscape-font-specification:'Roboto Bold';fill:#000000;stroke:none"
           id="path43715" />
      </g>
      <g
         aria-label="DIN EN 1090 "
         id="g45034"
         style="font-size:12.7px;font-family:'Times New Roman';-inkscape-font-specification:'Times New Roman, ';font-variant-ligatures:no-common-ligatures;text-align:center;letter-spacing:0px;word-spacing:0px;text-anchor:middle;white-space:pre;fill:#ffffff;stroke:none;stroke-width:1px;stroke-opacity:1"
         transform="matrix(0.89484083,0,0,0.89484083,7.4565718,32.488287)">
        <path
           d="m 6.326312,300.64455 -8.9657803,1.0658 -0.3279384,-2.7587 q -0.1405451,-1.1823 0.2846521,-2.17581 0.4183074,-0.99895 1.3413375,-1.63948 0.91687228,-0.6398 2.16690895,-0.7884 l 0.41257365,-0.0491 q 1.2500367,-0.14859 2.2844601,0.25301 1.0336914,0.39544 1.6806862,1.26774 0.6469949,0.87231 0.7929657,2.04772 z m -7.6890326,-0.95942 5.9853973,-0.71151 -0.1061408,-0.89288 q -0.128833,-1.08378 -0.9050583,-1.57227 -0.7762254,-0.4885 -2.0954621,-0.34417 l -0.4741518,0.0564 q -1.36703519,0.1625 -2.00168172,0.81247 -0.64080438,0.6507 -0.51123938,1.74063 z"
           style="-inkscape-font-specification:'Roboto Bold';fill:#ffffff;stroke:none;stroke-opacity:1"
           id="path45016" />
        <path
           d="m 5.8743178,290.44905 -0.1385159,1.85519 -9.003844,-0.67227 0.1385159,-1.85518 z"
           style="-inkscape-font-specification:'Roboto Bold';fill:#ffffff;stroke:none;stroke-opacity:1"
           id="path45018" />
        <path
           d="m 7.9187675,281.62965 -0.5103942,1.78897 -6.70633763,1.85267 5.71277033,1.62985 -0.5103941,1.78897 -8.6824569,-2.47711 0.5103942,-1.78897 6.7199654,-1.85522 -5.7246968,-1.63327 0.50869288,-1.783 z"
           style="-inkscape-font-specification:'Roboto Bold';fill:#ffffff;stroke:none;stroke-opacity:1"
           id="path45020" />
        <path
           d="m 10.310296,270.67432 -2.1347251,2.86378 1.9390181,1.44539 2.505337,-3.36096 1.198214,0.89317 -3.617173,4.85252 -7.2390014,-5.39611 3.6097603,-4.84258 1.2081575,0.90059 -2.4979244,3.35102 1.7252291,1.28603 2.1347247,-2.86379 z"
           style="-inkscape-font-specification:'Roboto Bold';fill:#ffffff;stroke:none;stroke-opacity:1"
           id="path45022" />
        <path
           d="m 20.326541,267.11636 -1.458427,1.15494 -6.527196,-2.40895 3.688125,4.65725 -1.458427,1.15494 -5.605334,-7.07823 1.458427,-1.15495 6.539757,2.41483 -3.695824,-4.66697 1.453565,-1.15109 z"
           style="-inkscape-font-specification:'Roboto Bold';fill:#ffffff;stroke:none;stroke-opacity:1"
           id="path45024" />
        <path
           d="m 28.62904,263.72055 -1.708727,0.54039 -2.082999,-6.58658 -1.839757,1.27773 -0.439412,-1.38945 3.161383,-2.40462 0.183289,-0.058 z"
           style="-inkscape-font-specification:'Roboto Bold';fill:#ffffff;stroke:none;stroke-opacity:1"
           id="path45026" />
        <path
           d="m 37.287716,258.82465 q 0.130897,1.86817 -0.573005,2.91211 -0.703902,1.04394 -2.194729,1.1484 -1.47227,0.10316 -2.319755,-0.81344 -0.847486,-0.91659 -0.993039,-2.72779 l -0.11616,-1.65784 q -0.132196,-1.88674 0.578759,-2.91874 0.71714,-1.03243 2.18941,-1.13559 1.472269,-0.10316 2.319754,0.81343 0.847052,0.91041 0.992606,2.72161 z m -1.915184,-1.69343 q -0.07845,-1.11966 -0.423293,-1.60524 -0.339089,-0.4922 -0.98862,-0.44669 -0.630972,0.0442 -0.899845,0.55414 -0.263121,0.50331 -0.209296,1.53768 l 0.153435,2.18984 q 0.07715,1.10111 0.411787,1.61849 0.34039,0.51076 1.002292,0.46438 0.655717,-0.0459 0.910484,-0.57975 0.254768,-0.53381 0.193023,-1.59249 z"
           style="-inkscape-font-specification:'Roboto Bold';fill:#ffffff;stroke:none;stroke-opacity:1"
           id="path45028" />
        <path
           d="m 43.507892,259.73674 q -0.803999,0.56428 -1.727733,0.41093 -1.180668,-0.196 -1.756238,-1.12131 -0.574554,-0.93142 -0.346053,-2.30785 0.145225,-0.87479 0.645358,-1.53981 0.507267,-0.67011 1.259448,-0.96012 0.753197,-0.29612 1.609639,-0.15395 0.880913,0.14624 1.492947,0.70044 0.612033,0.5542 0.854215,1.44302 0.242181,0.88882 0.07159,1.95427 l -0.108665,0.65457 q -0.369664,2.22675 -1.688159,3.31537 -1.318494,1.08861 -3.363705,0.83709 l -0.435354,-0.066 0.24475,-1.47431 0.392532,0.0589 q 2.323542,0.27887 2.855427,-1.75123 z m -1.068956,-0.86892 q 0.428222,0.0711 0.770654,-0.0984 0.34855,-0.16843 0.559397,-0.45402 l 0.120852,-0.72797 q 0.149287,-0.89927 -0.111029,-1.45165 -0.260317,-0.55239 -0.835357,-0.64785 -0.532218,-0.0884 -0.95604,0.34417 -0.422806,0.42641 -0.544674,1.1605 -0.120851,0.72798 0.131293,1.25386 0.259277,0.52078 0.864904,0.62132 z"
           style="-inkscape-font-specification:'Roboto Bold';fill:#ffffff;stroke:none;stroke-opacity:1"
           id="path45030" />
        <path
           d="m 53.011828,262.86932 q -0.727142,1.72583 -1.826714,2.3392 -1.099572,0.61338 -2.476803,0.0331 -1.360088,-0.57305 -1.702117,-1.77362 -0.342029,-1.20058 0.346299,-2.8822 l 0.645277,-1.53152 q 0.734365,-1.74297 1.834836,-2.34251 1.106186,-0.59713 2.466273,-0.0241 1.360088,0.57305 1.702117,1.77363 0.344437,1.19486 -0.343891,2.87648 z m -0.943656,-2.37595 q 0.435803,-1.03435 0.347506,-1.62334 -0.08017,-0.59229 -0.680213,-0.84511 -0.582894,-0.24559 -1.053125,0.0879 -0.462108,0.33017 -0.881346,1.27729 l -0.852345,2.02299 q -0.42858,1.01721 -0.363751,1.62996 0.07295,0.60944 0.684419,0.86707 0.605753,0.25522 1.074186,-0.10593 0.468432,-0.36116 0.891587,-1.33355 z"
           style="-inkscape-font-specification:'Roboto Bold';fill:#ffffff;stroke:none;stroke-opacity:1"
           id="path45032" />
      </g>
    </g>
    <g
       id="g28951"
       style="fill:#ffffff"
       transform="matrix(1.2478221,0,0,1.2478221,-8.2883449,-69.595429)">
      <path
         style="fill:#ffffff;stroke-width:0.402496"
         d="m 34.15016,309.44911 c -3.636128,-5.74939 -6.754186,-9.7492 -10.365644,-13.29689 l -3.413295,-3.35303 0.506412,-5.30066 c 0.278524,-2.91534 0.636494,-5.44727 0.795485,-5.62648 0.537595,-0.60596 6.464671,4.57334 9.177758,8.01989 1.482546,1.88333 3.610856,5.0195 4.729577,6.96923 l 2.034035,3.545 1.761484,-3.44004 c 6.916873,-13.5081 18.816652,-26.08724 33.274506,-35.17417 3.932637,-2.47172 15.144357,-8.1032 17.065909,-8.57196 l 1.027893,-0.25076 -0.506381,5.55815 c -0.278509,3.05698 -0.514656,5.9299 -0.524772,6.38425 -0.01399,0.62865 -0.52346,1.00226 -2.131499,1.56307 -3.462805,1.20768 -11.5044,5.15077 -15.594635,7.64663 -8.342034,5.0903 -16.769667,12.38545 -23.279743,20.15146 -3.584559,4.27612 -8.560147,11.77076 -10.509254,15.82992 -0.762234,1.58741 -1.486727,2.87733 -1.609989,2.86645 -0.123266,-0.0106 -1.220293,-1.59487 -2.437847,-3.52006 z"
         id="path28907" />
      <path
         id="path28909"
         style="color:#000000;fill:#ffffff;fill-rule:evenodd;stroke-width:1;stroke-linejoin:round;-inkscape-stroke:none;paint-order:markers stroke fill"
         d="m 37.877001,256.41668 c -5.666208,0.0274 -11.410067,1.36298 -16.783471,4.1491 -18.0998891,9.38482 -25.1724827,31.68778 -15.7876672,49.78766 9.3848252,18.0999 31.6877632,25.17042 49.7876612,15.7856 12.702905,-6.58648 19.957058,-19.53425 19.91558,-32.92667 h -0.04548 c 0,-3.49554 -0.486693,-6.87697 -0.997413,-8.67239 -0.510717,-1.79542 -0.622668,-2.17249 -0.744596,-2.54812 -0.03154,-0.0988 -0.06376,-0.19721 -0.09612,-0.29559 -0.363585,-1.08872 -0.778073,-2.16934 -1.109837,-2.93587 -0.331766,-0.76653 -0.540496,-1.22086 -0.759288,-1.66953 -3.559162,2.31107 -7.118697,4.99957 -10.507369,7.95662 0.842645,2.41255 1.302245,5.00466 1.302245,7.70341 l -0.0036,-0.004 c 0.228439,8.87861 -4.493776,17.52761 -12.915493,21.89428 -11.765066,6.1002 -26.227015,1.51453 -32.327225,-10.25054 -6.1002,-11.76507 -1.515047,-26.22754 10.250021,-32.32775 3.718841,-1.92822 7.707056,-2.78859 11.615312,-2.69182 5.565616,0 10.678237,1.9492 14.69471,5.2002 2.981746,-3.01544 6.202352,-5.87148 9.614919,-8.54108 -0.377508,-0.34493 -0.762765,-0.68113 -1.154454,-1.01028 -0.0077,0.006 -0.01556,0.012 -0.02326,0.0181 -6.712937,-5.61317 -15.224864,-8.6637 -23.925155,-8.6217 z m 0.968418,1.50275 c 7.911732,0.17558 15.59945,3.01894 21.754746,8.08116 -2.640407,2.14551 -5.152621,4.40826 -7.525639,6.76703 -4.393618,-3.19026 -9.705624,-4.92245 -15.131895,-4.89686 -3.90915,0.0184 -7.871698,0.93955 -11.578105,2.86133 -12.484739,6.47335 -17.3646771,21.86459 -10.891325,34.34932 6.473361,12.48475 21.864072,17.36468 34.34881,10.89133 11.174468,-5.79398 16.229782,-18.72724 12.531534,-30.33097 2.682751,-2.30224 5.464824,-4.44252 8.25531,-6.3407 7.339164,16.93409 0.429572,36.88084 -16.205729,45.50627 -17.380218,9.01167 -38.754405,2.23593 -47.7660783,-15.14429 -9.0116691,-17.38022 -2.2333382,-38.7539 15.1468793,-47.76556 4.960416,-2.57199 10.246132,-3.8575 15.476574,-3.97754 0.529053,-0.0121 1.057468,-0.0122 1.584918,-5.3e-4 z"
         sodipodi:nodetypes="ssssccccccccccssscccccsssccssssccssssss" />
    </g>
  </g>
</svg>
