<?xml version="1.0" encoding="UTF-8" standalone="no"?>
<!-- Created with Inkscape (http://www.inkscape.org/) -->

<svg
   width="15.995744mm"
   height="14.623753mm"
   viewBox="0 0 15.995744 14.623753"
   version="1.1"
   id="svg5"
   inkscape:version="1.1.1 (3bf5ae0d25, 2021-09-20)"
   sodipodi:docname="isocert-dark-small.svg"
   xmlns:inkscape="http://www.inkscape.org/namespaces/inkscape"
   xmlns:sodipodi="http://sodipodi.sourceforge.net/DTD/sodipodi-0.dtd"
   xmlns:xlink="http://www.w3.org/1999/xlink"
   xmlns="http://www.w3.org/2000/svg"
   xmlns:svg="http://www.w3.org/2000/svg">
  <sodipodi:namedview
     id="namedview7"
     pagecolor="#ffffff"
     bordercolor="#999999"
     borderopacity="1"
     inkscape:pageshadow="0"
     inkscape:pageopacity="0"
     inkscape:pagecheckerboard="0"
     inkscape:document-units="mm"
     showgrid="false"
     inkscape:zoom="10.618968"
     inkscape:cx="61.823336"
     inkscape:cy="34.137029"
     inkscape:window-width="1920"
     inkscape:window-height="1002"
     inkscape:window-x="-8"
     inkscape:window-y="-8"
     inkscape:window-maximized="1"
     inkscape:current-layer="g34173"
     showguides="true"
     inkscape:guide-bbox="true"
     inkscape:snap-intersection-paths="true"
     fit-margin-top="0"
     fit-margin-left="0"
     fit-margin-right="0"
     fit-margin-bottom="0"
     width="89.69317mm"
     inkscape:snap-global="true"
     inkscape:snap-page="true"
     inkscape:snap-nodes="false">
    <inkscape:grid
       type="xygrid"
       id="grid1345"
       originx="-29.145485"
       originy="-254.79786" />
    <sodipodi:guide
       position="-4.6280354,84.245084"
       orientation="0,-1"
       id="guide18314" />
    <sodipodi:guide
       position="-4.6280364,84.245084"
       orientation="0,-1"
       id="guide18316" />
    <sodipodi:guide
       position="-3.4320624,83.248444"
       orientation="0,-1"
       id="guide18318" />
    <sodipodi:guide
       position="-4.150681,18.796082"
       orientation="0,-1"
       id="guide15724" />
    <sodipodi:guide
       position="-5.1927773,11.115492"
       orientation="1,0"
       id="guide27187" />
    <sodipodi:guide
       position="5.6251683,11.115492"
       orientation="1,0"
       id="guide27218" />
  </sodipodi:namedview>
  <defs
     id="defs2">
    <rect
       x="-43.149693"
       y="-0.93224646"
       width="84.967606"
       height="29.831887"
       id="rect42152" />
    <rect
       x="-97.7527"
       y="5.5934787"
       width="55.402075"
       height="25.303832"
       id="rect29880" />
    <rect
       x="-26.179569"
       y="-10.735507"
       width="65.731438"
       height="17.327484"
       id="rect23418" />
    <rect
       x="-33.148232"
       y="62.71796"
       width="116.20715"
       height="37.10342"
       id="rect5440" />
    <rect
       x="195.23904"
       y="127.58459"
       width="154.48656"
       height="46.079613"
       id="rect12429" />
    <rect
       x="-29.165997"
       y="77.376457"
       width="110.00508"
       height="24.504765"
       id="rect3326" />
    <rect
       x="-446.41287"
       y="894.9566"
       width="292.99176"
       height="114.00043"
       id="rect24794" />
    <rect
       x="41.435291"
       y="613.24231"
       width="296.82736"
       height="92.664375"
       id="rect1789" />
  </defs>
  <g
     inkscape:label="Ebene 1"
     inkscape:groupmode="layer"
     id="layer1"
     transform="translate(-29.145484,-254.79784)">
    <path
       id="circle21184"
       style="display:none;fill:none;fill-opacity:0.619608;fill-rule:evenodd;stroke:#000000;stroke-width:1.22005;stroke-linejoin:round;paint-order:markers stroke fill;stop-color:#000000"
       d="M 8.1325898,221.4849 A 31.234937,31.434266 0.12681495 0 0 39.297876,252.98822 31.234937,31.434266 0.12681495 0 0 70.602303,221.62316 31.234937,31.434266 0.12681495 0 0 39.437018,190.11984 31.234937,31.434266 0.12681495 0 0 8.1325898,221.4849 Z" />
    <path
       style="display:none;fill:none;stroke:#000000;stroke-width:0.393842"
       d="m -11.497295,323.2783 c 1.9071978,-3.97188 7.4792853,-11.75593 10.84707695,-16.05333 7.72528945,-9.85769 15.49438905,-16.20044 22.77919505,-19.71819 4.222078,-2.03879 11.307193,-5.73671 14.695543,-6.91843 1.573464,-0.54875 2.071979,-0.91432 2.085669,-1.52946"
       id="path23815"
       sodipodi:nodetypes="csssc" />
    <g
       id="g34173"
       style="fill:#666666;fill-opacity:1"
       transform="matrix(1.4705882,0,0,1.4705882,-0.36561831,-111.57246)">
      <g
         aria-label="www.isocert.de"
         transform="matrix(0.24210753,0,0,0.24210753,23.630956,184.56599)"
         id="g11569"
         style="font-size:6.35px;line-height:125%;font-family:'Times New Roman';-inkscape-font-specification:'Times New Roman, ';font-variant-ligatures:no-common-ligatures;text-align:center;letter-spacing:0px;word-spacing:0px;text-anchor:middle;white-space:pre;fill:#666666;fill-opacity:1;stroke:#000000;stroke-width:1px" />
      <path
         id="path2716"
         style="color:#000000;fill:none;fill-rule:evenodd;stroke:#333333;stroke-width:0.229762;stroke-linejoin:round;stroke-miterlimit:4;stroke-dasharray:none;stroke-opacity:1;paint-order:markers stroke fill"
         d="m 25.537567,250.51977 c -0.238341,-0.002 -0.480466,0.0204 -0.723676,0.0683 -1.059889,0.20869 -1.91659,0.86145 -2.418641,1.72697 h -1.404553 c 0.713922,-1.7954 2.468861,-3.06835 4.515406,-3.06835 2.046545,0 3.801484,1.27295 4.515406,3.06835 h -1.407401 c -0.628045,-1.09149 -1.796995,-1.78657 -3.076541,-1.79524 z"
         sodipodi:nodetypes="scccsccs" />
      <path
         id="path870"
         style="color:#000000;fill:none;fill-rule:evenodd;stroke:#333333;stroke-width:0.229762;stroke-linejoin:round;stroke-miterlimit:4;stroke-dasharray:none;stroke-opacity:1;paint-order:markers stroke fill"
         d="m 30.021509,255.89273 c -0.713922,1.79539 -2.468861,3.06835 -4.515406,3.06835 -2.046545,0 -3.801484,-1.27296 -4.515406,-3.06835 h 1.408763 c 0.743415,1.29479 2.249964,2.03193 3.798855,1.72696 1.059893,-0.20869 1.916589,-0.86145 2.416089,-1.72696 z"
         sodipodi:nodetypes="csccccc" />
      <g
         aria-label="zertifizierter                     Betrieb"
         id="text5438"
         style="font-size:1.43933px;line-height:125%;font-family:'Times New Roman';-inkscape-font-specification:'Times New Roman, ';font-variant-ligatures:no-common-ligatures;text-align:center;letter-spacing:0px;word-spacing:0px;text-anchor:middle;white-space:pre;fill:#898d8d;fill-opacity:1;stroke:#000000;stroke-width:1px"
         transform="matrix(0.84471273,0,0,0.84471273,8.4309,43.432751)">
        <text
           xml:space="preserve"
           id="text29878"
           style="font-size:1.70393px;line-height:125%;font-family:'Times New Roman';-inkscape-font-specification:'Times New Roman, ';font-variant-ligatures:no-common-ligatures;text-align:center;letter-spacing:0.425983px;word-spacing:0px;writing-mode:lr-tb;text-anchor:middle;white-space:pre;fill:#333333;fill-opacity:1;stroke:#000000;stroke-width:1px;stroke-linecap:butt;stroke-linejoin:miter;stroke-opacity:1"><textPath
             xlink:href="#path32508"
             startOffset="50%"
             id="textPath32608"
             style="font-style:normal;font-variant:normal;font-weight:bold;font-stretch:normal;font-size:1.70393px;font-family:Roboto;-inkscape-font-specification:'Roboto Bold';fill:#333333;fill-opacity:1;stroke:none">Betrieb</textPath></text>
        <path
           id="path32508"
           style="fill:#333333;fill-opacity:1;fill-rule:evenodd;stroke-width:0.322003;stroke-linejoin:round;paint-order:markers stroke fill;stop-color:#000000"
           d="m 2.5885742,229.85522 c -2.41667136,0 -4.3757709,1.9591 -4.375772,4.37577 1.1e-6,2.41667 1.95910064,4.37577 4.375772,4.37577 2.4166714,0 4.3757709,-1.9591 4.375772,-4.37577 -1.1e-6,-2.41667 -1.9591006,-4.37577 -4.375772,-4.37577 z"
           sodipodi:nodetypes="sssss" />
        <g
           aria-label="zertifiziertes            Unternehmen"
           id="text42150"
           style="font-size:1.31939px;line-height:125%;font-family:'Times New Roman';-inkscape-font-specification:'Times New Roman, ';font-variant-ligatures:no-common-ligatures;text-align:center;letter-spacing:0px;word-spacing:0px;text-anchor:middle;white-space:pre;fill:#333333;fill-opacity:1;stroke:#000000;stroke-width:1px"
           transform="matrix(1.1545258,-0.01908827,0.0198865,1.1081837,-14.323585,-31.299902)">
          <path
             d="m 29.102644,257.05604 -0.506167,-0.35425 q -0.126146,-0.0883 -0.144101,-0.21881 -0.01832,-0.12999 0.07735,-0.26669 0.0942,-0.13459 0.220861,-0.16389 0.126664,-0.0293 0.252334,0.0563 l 0.511973,0.35832 -0.11082,0.15834 -0.507222,-0.35499 q -0.07548,-0.0528 -0.135431,-0.0413 -0.0598,0.0124 -0.104494,0.0763 -0.09346,0.13354 0.04546,0.23391 l 0.511444,0.35795 z"
             style="font-weight:bold;font-family:Roboto;-inkscape-font-specification:'Roboto Bold';fill:#333333;fill-opacity:1;stroke:none"
             id="path58669" />
          <path
             d="m 28.57722,257.25452 -0.0588,-0.0553 q 0.0083,0.11935 -0.08416,0.20442 -0.08153,0.075 -0.165414,0.0638 -0.08388,-0.0112 -0.172522,-0.10564 l -0.304955,-0.33134 0.136994,-0.12609 0.301901,0.32803 q 0.04014,0.0436 0.07699,0.0456 0.03729,0.002 0.08137,-0.0381 0.05783,-0.0532 0.04138,-0.12914 l -0.332878,-0.36168 0.136994,-0.12608 0.472049,0.51289 z"
             style="font-weight:bold;font-family:Roboto;-inkscape-font-specification:'Roboto Bold';fill:#333333;fill-opacity:1;stroke:none"
             id="path58671" />
          <path
             d="m 27.96574,257.9559 -0.09457,-0.14291 -0.09939,0.0658 -0.07537,-0.1139 0.09939,-0.0658 -0.191992,-0.29011 q -0.02133,-0.0322 -0.04293,-0.038 -0.0216,-0.006 -0.05652,0.0173 -0.02579,0.0171 -0.04318,0.034 l -0.07786,-0.11765 q 0.03642,-0.0442 0.08477,-0.0762 0.163321,-0.10809 0.275696,0.0547 l 0.207281,0.31321 0.08488,-0.0562 0.07538,0.11389 -0.08488,0.0562 0.09457,0.1429 z"
             style="font-weight:bold;font-family:Roboto;-inkscape-font-specification:'Roboto Bold';fill:#333333;fill-opacity:1;stroke:none"
             id="path58673" />
          <path
             d="m 27.001911,257.47613 q 0.139508,-0.0636 0.266458,-0.0181 0.126363,0.0458 0.191314,0.18819 l 0.0075,0.0164 q 0.04357,0.0955 0.04085,0.18741 -0.0024,0.0925 -0.05141,0.16364 -0.04929,0.072 -0.136038,0.1116 -0.130129,0.0593 -0.241993,0.0112 -0.11245,-0.0478 -0.181144,-0.1985 l -0.03154,-0.0692 0.40387,-0.18416 q -0.03654,-0.0584 -0.09468,-0.0772 -0.05872,-0.0185 -0.12203,0.0103 -0.09789,0.0446 -0.120648,0.14068 l -0.125735,-0.0552 q 0.01351,-0.0713 0.06468,-0.13145 0.05143,-0.0596 0.130565,-0.0956 z m 0.256697,0.5117 q 0.05041,-0.023 0.06656,-0.0714 0.01556,-0.0482 -0.0045,-0.11548 l -0.235639,0.10745 0.0061,0.0135 q 0.02683,0.0557 0.07004,0.0729 0.04348,0.0177 0.0974,-0.007 z"
             style="font-weight:bold;font-family:Roboto;-inkscape-font-specification:'Roboto Bold';fill:#333333;fill-opacity:1;stroke:none"
             id="path58675" />
          <path
             d="m 26.40106,258.23826 q 0.03803,-0.005 0.06601,-0.0126 0.101954,-0.0277 0.114901,-0.10534 l -0.119651,-0.44014 0.179664,-0.0488 0.182855,0.67265 -0.169717,0.0461 -0.02677,-0.0788 q -0.0289,0.10733 -0.124642,0.13336 -0.02984,0.008 -0.05815,0.007 z"
             style="font-weight:bold;font-family:Roboto;-inkscape-font-specification:'Roboto Bold';fill:#333333;fill-opacity:1;stroke:none"
             id="path58677" />
          <path
             d="m 26.075079,258.46725 -0.01381,-0.0795 q -0.06503,0.10041 -0.190029,0.11295 -0.110254,0.0111 -0.170596,-0.0483 -0.06034,-0.0593 -0.07455,-0.18805 l -0.04496,-0.44807 0.185253,-0.0186 0.04451,0.44358 q 0.0059,0.059 0.0342,0.0827 0.02834,0.0243 0.08796,0.0184 0.0782,-0.008 0.110617,-0.0784 l -0.04908,-0.4891 0.185253,-0.0186 0.0696,0.69358 z"
             style="font-weight:bold;font-family:Roboto;-inkscape-font-specification:'Roboto Bold';fill:#333333;fill-opacity:1;stroke:none"
             id="path58679" />
          <path
             d="m 25.11972,257.77202 q 0.152646,0.0145 0.239991,0.11719 0.0867,0.10268 0.07196,0.25853 l -0.0017,0.018 q -0.0099,0.10454 -0.05807,0.18282 -0.04823,0.0789 -0.12618,0.11619 -0.07865,0.0378 -0.173569,0.0289 -0.142384,-0.0135 -0.215342,-0.11097 -0.0736,-0.0976 -0.058,-0.26239 l 0.0072,-0.0757 0.441903,0.0418 q -0.0025,-0.0688 -0.04356,-0.11413 -0.04165,-0.0454 -0.110921,-0.0519 -0.107109,-0.0101 -0.17474,0.0618 l -0.08142,-0.11059 q 0.04727,-0.0551 0.121619,-0.0817 0.07429,-0.026 0.160872,-0.0178 z m -0.03272,0.57154 q 0.05516,0.005 0.09331,-0.0287 0.03751,-0.034 0.05369,-0.10234 l -0.25783,-0.0244 -0.0014,0.0147 q -0.0045,0.0617 0.02437,0.0981 0.02885,0.037 0.08786,0.0426 z"
             style="font-weight:bold;font-family:Roboto;-inkscape-font-specification:'Roboto Bold';fill:#333333;fill-opacity:1;stroke:none"
             id="path58681" />
          <path
             d="m 24.375961,258.27803 q -0.09646,0.0639 -0.203856,0.0318 -0.217251,-0.065 -0.144796,-0.31837 l 0.127994,-0.42771 0.178368,0.0534 -0.126517,0.42278 q -0.01718,0.0574 -6.15e-4,0.0919 0.01638,0.0352 0.07378,0.0523 0.07838,0.0235 0.131663,-0.0265 l 0.142031,-0.47462 0.178368,0.0534 -0.283693,0.948 -0.178368,-0.0534 z"
             style="font-weight:bold;font-family:Roboto;-inkscape-font-specification:'Roboto Bold';fill:#333333;fill-opacity:1;stroke:none"
             id="path58683" />
          <path
             d="m 23.501925,258.0331 0.03553,-0.0696 q -0.110487,0.0392 -0.218394,-0.0264 -0.115065,-0.0699 -0.102803,-0.18686 -0.117966,0.0527 -0.234132,-0.0179 -0.0969,-0.0589 -0.109782,-0.14437 -0.01322,-0.0849 0.0557,-0.19834 l 0.231186,-0.38043 0.159659,0.097 -0.230852,0.37988 q -0.03078,0.0507 -0.02501,0.0858 0.0054,0.0357 0.05553,0.0662 0.07157,0.0435 0.140585,-0.008 l 0.248033,-0.40939 0.159108,0.0967 -0.230517,0.37933 q -0.03145,0.0517 -0.02513,0.0872 0.0063,0.0355 0.05532,0.0653 0.06772,0.0412 0.132123,0.003 l 0.255944,-0.42117 0.159108,0.0967 -0.362002,0.59569 z"
             style="font-weight:bold;font-family:Roboto;-inkscape-font-specification:'Roboto Bold';fill:#333333;fill-opacity:1;stroke:none"
             id="path58685" />
          <path
             d="m 22.845819,256.65851 q 0.107263,0.10956 0.107654,0.24442 -5.9e-5,0.13439 -0.111924,0.2439 l -0.01289,0.0126 q -0.07504,0.0735 -0.162355,0.10215 -0.08778,0.0291 -0.171371,0.007 -0.0845,-0.0218 -0.151205,-0.09 -0.100051,-0.1022 -0.09284,-0.22376 0.0068,-0.12202 0.125071,-0.23785 l 0.05432,-0.0532 0.310521,0.31718 q 0.04249,-0.0542 0.0404,-0.11528 -0.0025,-0.0615 -0.05121,-0.11125 -0.07526,-0.0769 -0.173331,-0.0656 l 0.0092,-0.13702 q 0.07165,-0.0115 0.145611,0.0161 0.0735,0.0281 0.134346,0.0903 z m -0.393917,0.4154 q 0.03876,0.0396 0.0898,0.0383 0.05059,-0.002 0.107064,-0.0435 l -0.181175,-0.18506 -0.01059,0.0104 q -0.04329,0.0442 -0.0447,0.0906 -0.0019,0.0469 0.0396,0.0893 z"
             style="font-weight:bold;font-family:Roboto;-inkscape-font-specification:'Roboto Bold';fill:#333333;fill-opacity:1;stroke:none"
             id="path58687" />
          <path
             d="m 21.893397,256.61574 0.06421,-0.0489 q -0.119086,-0.0114 -0.187878,-0.11649 -0.06068,-0.0927 -0.03587,-0.17363 0.02481,-0.0809 0.132456,-0.1529 l 0.376801,-0.2466 0.101954,0.15579 -0.373028,0.24413 q -0.04959,0.0325 -0.05758,0.0685 -0.0085,0.0364 0.02428,0.0865 0.04304,0.0658 0.120621,0.062 l 0.411301,-0.26917 0.101953,0.15578 -0.58326,0.38171 z"
             style="font-weight:bold;font-family:Roboto;-inkscape-font-specification:'Roboto Bold';fill:#333333;fill-opacity:1;stroke:none"
             id="path58689" />
        </g>
        <g
           aria-label="zertifiziertes            Unternehmen"
           id="g59445"
           style="font-size:1.31939px;line-height:125%;font-family:'Times New Roman';-inkscape-font-specification:'Times New Roman, ';font-variant-ligatures:no-common-ligatures;text-align:center;letter-spacing:0px;word-spacing:0px;text-anchor:middle;white-space:pre;fill:#333333;fill-opacity:1;stroke:#000000;stroke-width:1px"
           transform="matrix(1.1913977,0.05895883,-0.06034433,1.1640433,5.1566193,-48.006781)">
          <path
             d="m 22.317169,251.94355 0.194664,-0.27973 0.12321,0.0857 -0.330451,0.47486 -0.09307,-0.0648 -0.168045,-0.51644 -0.181785,0.26123 -0.123738,-0.0861 0.319043,-0.45847 0.09042,0.0629 z"
             style="font-weight:bold;font-family:Roboto;-inkscape-font-specification:'Roboto Bold';fill:#333333;fill-opacity:1;stroke:none"
             id="path59395" />
          <path
             d="m 22.942938,251.45178 q -0.109221,0.10761 -0.244072,0.10843 -0.134391,3.7e-4 -0.244262,-0.11115 l -0.01266,-0.0129 q -0.0737,-0.0748 -0.102663,-0.16203 -0.02942,-0.0877 -0.0078,-0.17134 0.02158,-0.0846 0.0895,-0.15149 0.101879,-0.10038 0.223461,-0.0935 0.122041,0.006 0.238243,0.12431 l 0.05335,0.0541 -0.316191,0.31153 q 0.05435,0.0423 0.115414,0.04 0.06152,-0.003 0.111082,-0.0516 0.07664,-0.0755 0.06507,-0.17354 l 0.137057,0.009 q 0.01177,0.0716 -0.01566,0.14567 -0.02788,0.0736 -0.08983,0.13463 z m -0.41665,-0.3926 q -0.03947,0.0389 -0.03802,0.0899 0.0019,0.0506 0.04385,0.10693 l 0.184483,-0.18177 -0.0104,-0.0106 q -0.04432,-0.0431 -0.09078,-0.0444 -0.04691,-0.002 -0.08913,0.0399 z"
             style="font-weight:bold;font-family:Roboto;-inkscape-font-specification:'Roboto Bold';fill:#333333;fill-opacity:1;stroke:none"
             id="path59397" />
          <path
             d="m 23.24698,250.52896 q -0.03405,0.0177 -0.05776,0.0343 -0.08641,0.0608 -0.07213,0.13819 l 0.262453,0.37304 -0.152274,0.10713 -0.401093,-0.5701 0.143843,-0.1012 0.05204,0.065 q -0.0094,-0.11076 0.07175,-0.16784 0.02529,-0.0178 0.05224,-0.0265 z"
             style="font-weight:bold;font-family:Roboto;-inkscape-font-specification:'Roboto Bold';fill:#333333;fill-opacity:1;stroke:none"
             id="path59399" />
          <path
             d="m 23.447299,250.0231 0.07968,0.15171 0.105516,-0.0554 0.0635,0.12091 -0.105516,0.0554 0.161758,0.30799 q 0.01797,0.0342 0.03888,0.0422 0.02091,0.008 0.05798,-0.0115 0.02738,-0.0144 0.04638,-0.0295 l 0.0656,0.1249 q -0.04069,0.0403 -0.09202,0.0673 -0.173388,0.0911 -0.268773,-0.0822 l -0.174638,-0.33252 -0.09012,0.0473 -0.0635,-0.12092 0.09012,-0.0473 -0.07968,-0.15171 z"
             style="font-weight:bold;font-family:Roboto;-inkscape-font-specification:'Roboto Bold';fill:#333333;fill-opacity:1;stroke:none"
             id="path59401" />
          <path
             d="m 24.235883,250.62538 -0.1738,0.0685 -0.255738,-0.64846 0.1738,-0.0685 z m -0.505906,-0.74369 q -0.01536,-0.039 4.81e-4,-0.0743 0.01644,-0.0356 0.06139,-0.0533 0.04435,-0.0175 0.08065,-0.003 0.0363,0.0148 0.05166,0.0537 0.0156,0.0395 -0.0014,0.0754 -0.01644,0.0356 -0.06019,0.0528 -0.04375,0.0173 -0.08065,0.003 -0.0363,-0.0148 -0.0519,-0.0543 z"
             style="font-weight:bold;font-family:Roboto;-inkscape-font-specification:'Roboto Bold';fill:#333333;fill-opacity:1;stroke:none"
             id="path59403" />
          <path
             d="m 24.429447,250.56006 -0.146089,-0.54111 -0.100136,0.027 -0.0356,-0.13186 0.100136,-0.027 -0.01545,-0.0572 q -0.03056,-0.11319 0.01733,-0.19285 0.04835,-0.0805 0.165276,-0.11202 0.03732,-0.0101 0.09479,-0.0122 l 0.03575,0.13983 q -0.0239,4.4e-4 -0.05624,0.009 -0.10138,0.0274 -0.07569,0.12253 l 0.01461,0.0541 0.133723,-0.0361 0.0356,0.13185 -0.133722,0.0361 0.146089,0.54111 z"
             style="font-weight:bold;font-family:Roboto;-inkscape-font-specification:'Roboto Bold';fill:#333333;fill-opacity:1;stroke:none"
             id="path59405" />
          <path
             d="m 25.033839,250.43147 -0.184677,0.0283 -0.105463,-0.68903 0.184677,-0.0283 z m -0.328258,-0.83742 q -0.0063,-0.0414 0.01695,-0.0723 0.02393,-0.031 0.07169,-0.0383 0.04712,-0.007 0.07924,0.0152 0.03211,0.0225 0.03845,0.0639 0.0064,0.042 -0.01813,0.0732 -0.02393,0.031 -0.07041,0.0382 -0.04649,0.007 -0.07924,-0.0152 -0.03211,-0.0225 -0.03855,-0.0645 z"
             style="font-weight:bold;font-family:Roboto;-inkscape-font-specification:'Roboto Bold';fill:#333333;fill-opacity:1;stroke:none"
             id="path59407" />
          <path
             d="m 25.397773,250.25391 0.340764,-0.005 0.0022,0.15009 -0.57846,0.008 -0.0017,-0.11338 0.32155,-0.43767 -0.318217,0.005 -0.0022,-0.15073 0.558491,-0.008 0.0016,0.11015 z"
             style="font-weight:bold;font-family:Roboto;-inkscape-font-specification:'Roboto Bold';fill:#333333;fill-opacity:1;stroke:none"
             id="path59409" />
          <path
             d="m 26.052353,250.44184 -0.185444,-0.0227 0.08468,-0.6919 0.185444,0.0227 z m -0.08972,-0.89497 q 0.0051,-0.0416 0.03587,-0.0651 0.03142,-0.0234 0.07938,-0.0175 0.04732,0.006 0.07217,0.0361 0.02485,0.0303 0.01976,0.0719 -0.0052,0.0422 -0.03723,0.0655 -0.03142,0.0234 -0.0781,0.0177 -0.04668,-0.006 -0.07217,-0.0361 -0.02485,-0.0303 -0.01968,-0.0725 z"
             style="font-weight:bold;font-family:Roboto;-inkscape-font-specification:'Roboto Bold';fill:#333333;fill-opacity:1;stroke:none"
             id="path59411" />
          <path
             d="m 26.512273,250.55456 q -0.147942,-0.0403 -0.216471,-0.15642 -0.06791,-0.11597 -0.02678,-0.26702 l 0.0047,-0.0174 q 0.02759,-0.10132 0.08841,-0.17022 0.061,-0.0695 0.144157,-0.093 0.08395,-0.0239 0.175951,10e-4 0.137996,0.0376 0.193244,0.14609 0.05587,0.10869 0.01237,0.26845 l -0.01997,0.0733 -0.428284,-0.11661 q -0.0092,0.0683 0.02344,0.11989 0.0333,0.0518 0.100435,0.0701 0.103807,0.0283 0.182718,-0.031 l 0.06136,0.12287 q -0.05598,0.0462 -0.133775,0.0597 -0.07763,0.0129 -0.161546,-0.01 z m 0.129785,-0.55756 q -0.05346,-0.0146 -0.09684,0.0123 -0.04276,0.0271 -0.07037,0.0917 l 0.249884,0.068 0.0039,-0.0143 q 0.015,-0.06 -0.0073,-0.10079 -0.02211,-0.0414 -0.0793,-0.057 z"
             style="font-weight:bold;font-family:Roboto;-inkscape-font-specification:'Roboto Bold';fill:#333333;fill-opacity:1;stroke:none"
             id="path59413" />
          <path
             d="m 27.463371,250.3547 q -0.03234,-0.0206 -0.05866,-0.0328 -0.09592,-0.0443 -0.155731,0.007 l -0.191274,0.41407 -0.169022,-0.0781 0.292315,-0.6328 0.159664,0.0738 -0.03017,0.0776 q 0.09114,-0.0636 0.181203,-0.022 0.02807,0.013 0.04912,0.0319 z"
             style="font-weight:bold;font-family:Roboto;-inkscape-font-specification:'Roboto Bold';fill:#333333;fill-opacity:1;stroke:none"
             id="path59415" />
          <path
             d="m 28.001727,250.27493 -0.09142,0.14494 0.100805,0.0636 -0.07286,0.11552 -0.100805,-0.0636 -0.185599,0.29424 q -0.02062,0.0327 -0.01703,0.0548 0.0036,0.0221 0.03901,0.0444 0.02615,0.0165 0.04872,0.0254 l -0.07527,0.11933 q -0.05525,-0.0151 -0.104292,-0.046 -0.165647,-0.10449 -0.0634,-0.27383 l 0.200377,-0.31767 -0.08609,-0.0543 0.07287,-0.11551 0.08609,0.0543 0.09143,-0.14494 z"
             style="font-weight:bold;font-family:Roboto;-inkscape-font-specification:'Roboto Bold';fill:#333333;fill-opacity:1;stroke:none"
             id="path59417" />
          <path
             d="m 27.960425,251.35069 q -0.115387,-0.10097 -0.12617,-0.23539 -0.0103,-0.134 0.09279,-0.25181 l 0.01188,-0.0136 q 0.06915,-0.079 0.154,-0.11436 0.08527,-0.0358 0.170299,-0.0205 0.08594,0.0153 0.15769,0.0781 0.10763,0.0942 0.109807,0.21593 0.0027,0.12218 -0.106369,0.24678 l -0.05006,0.0572 -0.334041,-0.29231 q -0.03818,0.0573 -0.0314,0.11806 0.0073,0.0611 0.05963,0.10697 0.08096,0.0709 0.177872,0.0521 l 0.0014,0.13733 q -0.07054,0.017 -0.14642,-0.005 -0.07545,-0.0224 -0.140902,-0.0796 z m 0.360733,-0.44452 q -0.04169,-0.0365 -0.09248,-0.0313 -0.0503,0.006 -0.103393,0.0516 l 0.194898,0.17054 0.0098,-0.0112 q 0.03976,-0.0474 0.03758,-0.0938 -0.0018,-0.0469 -0.04636,-0.0859 z"
             style="font-weight:bold;font-family:Roboto;-inkscape-font-specification:'Roboto Bold';fill:#333333;fill-opacity:1;stroke:none"
             id="path59419" />
          <path
             d="m 28.639249,251.78939 q 0.02687,-0.0211 0.02101,-0.0599 -0.005,-0.0387 -0.0389,-0.10703 -0.112373,-0.2279 0.01285,-0.32608 0.073,-0.0572 0.168977,-0.0351 0.09688,0.0223 0.173597,0.12012 0.08189,0.10444 0.0816,0.20536 1.15e-4,0.10142 -0.07847,0.16303 l -0.11488,-0.14651 q 0.03143,-0.0247 0.03581,-0.0608 0.0049,-0.0366 -0.0289,-0.0797 -0.02902,-0.037 -0.06165,-0.0442 -0.03263,-0.007 -0.05849,0.0131 -0.02434,0.0191 -0.02166,0.0538 0.0036,0.0349 0.03536,0.0983 0.03228,0.0631 0.04801,0.11135 0.04844,0.14949 -0.0565,0.23177 -0.07503,0.0588 -0.172158,0.031 -0.09662,-0.0282 -0.176517,-0.13012 -0.05406,-0.0689 -0.07186,-0.14176 -0.0169,-0.0727 0.0018,-0.13652 0.01924,-0.0642 0.06893,-0.10317 l 0.108917,0.13892 q -0.03745,0.0326 -0.03716,0.0758 2.82e-4,0.0432 0.03566,0.0883 0.03299,0.0421 0.0654,0.0511 0.03332,0.009 0.05917,-0.0112 z"
             style="font-weight:bold;font-family:Roboto;-inkscape-font-specification:'Roboto Bold';fill:#333333;fill-opacity:1;stroke:none"
             id="path59421" />
        </g>
      </g>
      <path
         id="rect20133"
         style="font-variation-settings:normal;opacity:1;vector-effect:none;fill:#333333;fill-opacity:1;fill-rule:evenodd;stroke:none;stroke-width:0.293545;stroke-linecap:butt;stroke-linejoin:miter;stroke-miterlimit:4;stroke-dasharray:none;stroke-dashoffset:0;stroke-opacity:1;stop-color:#000000;stop-opacity:1"
         d="m 20.85831,252.51538 c -0.438012,0 -0.79076,0.31296 -0.79076,0.70192 v 1.77314 c 0,0.38894 0.352748,0.70192 0.79076,0.70192 h 9.295586 c 0.438012,0 0.79076,-0.31298 0.79076,-0.70192 v -1.77314 c 0,-0.38896 -0.352748,-0.70192 -0.79076,-0.70192 z m 9.29e-4,0.24276 h 9.294993 c 0.284665,0 0.516488,0.20683 0.516488,0.45995 v 1.77261 c 0,0.25264 -0.231979,0.45863 -0.516488,0.45863 h -9.295026 c -0.28505,0 -0.518268,-0.20586 -0.518268,-0.45863 v -1.77261 c 0,-0.25326 0.233065,-0.45995 0.518268,-0.45995 z m 0,0.27518 c -0.128263,0 -0.208078,0.0709 -0.208078,0.18477 v 1.77261 c 0,0.11441 0.07749,0.18318 0.208078,0.18318 h 9.294993 c 0.131125,0 0.206298,-0.0667 0.206298,-0.18318 v -1.77261 c 1e-6,-0.11596 -0.07749,-0.18477 -0.206298,-0.18477 z m 1.074235,0.47893 c 0.09261,0 0.175131,0.015 0.247558,0.045 0.07243,0.0295 0.128529,0.0715 0.168304,0.12573 0.04037,0.0542 0.06056,0.11597 0.06056,0.18503 h -0.267149 c 0,-0.0527 -0.0187,-0.0936 -0.0561,-0.12256 -0.0374,-0.0295 -0.08994,-0.0443 -0.157618,-0.0443 -0.0653,0 -0.116061,0.0124 -0.152274,0.0372 -0.03621,0.0242 -0.05432,0.0564 -0.05432,0.0965 0,0.0374 0.02108,0.0688 0.06323,0.0941 0.04274,0.0253 0.105375,0.049 0.187894,0.0712 0.151979,0.0406 0.262697,0.0909 0.332156,0.15104 0.06946,0.0601 0.104187,0.13496 0.104187,0.22458 0,0.0996 -0.04245,0.17792 -0.127341,0.23485 -0.08489,0.0564 -0.199174,0.0846 -0.34284,0.0846 -0.09974,0 -0.190566,-0.0161 -0.272492,-0.0482 -0.08193,-0.0327 -0.144557,-0.0772 -0.187894,-0.13365 -0.04274,-0.0564 -0.06411,-0.12176 -0.06411,-0.1961 h 0.268039 c 0,0.12705 0.08549,0.19058 0.256464,0.19058 0.06352,0 0.113092,-0.0114 0.148712,-0.034 0.03562,-0.0232 0.05343,-0.0554 0.05343,-0.0965 0,-0.0449 -0.01781,-0.0791 -0.05343,-0.1028 -0.03562,-0.0242 -0.09974,-0.0496 -0.192347,-0.0759 -0.09261,-0.0269 -0.165929,-0.0532 -0.219953,-0.0791 -0.147228,-0.0706 -0.220843,-0.16579 -0.220843,-0.28545 0,-0.0623 0.01959,-0.11757 0.05878,-0.16607 0.03978,-0.049 0.09647,-0.0872 0.170084,-0.11466 0.07421,-0.0275 0.157321,-0.0411 0.249339,-0.0411 z m 1.170111,0 c 0.108047,0 0.203924,0.0232 0.28763,0.0696 0.0843,0.0459 0.149307,0.11203 0.195019,0.19849 0.04631,0.0859 0.06946,0.18529 0.06946,0.29811 v 0.0514 c 0,0.11335 -0.02256,0.21272 -0.06768,0.29812 -0.04512,0.0854 -0.109828,0.15129 -0.194127,0.19769 -0.0837,0.0464 -0.17988,0.0696 -0.288521,0.0696 -0.107453,0 -0.203329,-0.023 -0.28763,-0.0688 -0.0843,-0.0459 -0.149604,-0.11122 -0.195909,-0.19611 -0.04631,-0.0854 -0.06976,-0.18345 -0.07035,-0.29415 v -0.057 c 0,-0.11335 0.02286,-0.21298 0.06857,-0.2989 0.04631,-0.0865 0.111312,-0.15263 0.195017,-0.19848 0.0843,-0.0464 0.180474,-0.0696 0.288521,-0.0696 z m 2.652786,0 c 0.141293,0 0.249339,0.0414 0.324141,0.12415 0.0748,0.0823 0.113093,0.20059 0.114874,0.35505 v 0.21192 c 0,0.1592 -0.0371,0.28097 -0.111312,0.36532 -0.07421,0.0844 -0.182848,0.12653 -0.325921,0.12653 -0.141299,0 -0.249345,-0.0414 -0.324147,-0.12415 -0.0748,-0.0828 -0.113093,-0.20138 -0.114874,-0.35584 v -0.21192 c 0,-0.16079 0.0374,-0.28283 0.112202,-0.36612 0.0754,-0.0833 0.183739,-0.12494 0.325031,-0.12494 z m 1.036537,0 c 0.08549,0 0.161477,0.019 0.227967,0.0569 0.06649,0.038 0.11814,0.0925 0.154946,0.16369 0.0368,0.0712 0.05551,0.15262 0.0561,0.24435 v 0.0846 c 0,0.19188 -0.05372,0.34265 -0.16118,0.45231 -0.107453,0.10964 -0.259728,0.16816 -0.456825,0.17554 l -0.06323,7.9e-4 v -0.19057 l 0.05699,-7.9e-4 c 0.223811,-0.009 0.344918,-0.10227 0.363322,-0.27993 -0.06709,0.0585 -0.145448,0.0878 -0.23509,0.0878 -0.114578,0 -0.206298,-0.0348 -0.275164,-0.10438 -0.06886,-0.0701 -0.103297,-0.16448 -0.103297,-0.28309 0,-0.0754 0.01841,-0.14444 0.05521,-0.20717 0.0374,-0.0633 0.08935,-0.1123 0.155837,-0.14708 0.06649,-0.0354 0.141293,-0.053 0.224405,-0.053 z m 1.056128,0 c 0.141292,0 0.249338,0.0414 0.32414,0.12415 0.0748,0.0823 0.113094,0.20059 0.114874,0.35505 v 0.21192 c 0,0.1592 -0.03711,0.28097 -0.111312,0.36532 -0.07421,0.0844 -0.182848,0.12653 -0.325921,0.12653 -0.141292,0 -0.249339,-0.0414 -0.32414,-0.12415 -0.0748,-0.0828 -0.113094,-0.20138 -0.114874,-0.35584 v -0.21192 c 0,-0.16079 0.0374,-0.28283 0.112202,-0.36612 0.0754,-0.0833 0.18374,-0.12494 0.325031,-0.12494 z m 1.744481,0 c 0.133574,0 0.237168,0.0285 0.310783,0.0854 0.07421,0.0569 0.111311,0.13732 0.111311,0.24118 0,0.0569 -0.01662,0.11492 -0.04986,0.17397 -0.03325,0.0591 -0.09024,0.12783 -0.170975,0.20638 l -0.29476,0.27598 h 0.557449 v 0.18425 h -0.888713 v -0.15657 l 0.419422,-0.39696 c 0.05758,-0.0558 0.100033,-0.10465 0.127342,-0.14629 0.0279,-0.0417 0.04186,-0.0812 0.04186,-0.11862 0,-0.0512 -0.01455,-0.0912 -0.04364,-0.12019 -0.02909,-0.0295 -0.07064,-0.0443 -0.124668,-0.0443 -0.05818,0 -0.104189,0.018 -0.138027,0.0538 -0.03325,0.0354 -0.04987,0.0819 -0.04987,0.13997 h -0.258244 c 0,-0.0701 0.0187,-0.13417 0.0561,-0.19216 0.038,-0.058 0.09142,-0.10332 0.16029,-0.136 0.06886,-0.0332 0.146932,-0.0498 0.234201,-0.0498 z m -4.719632,0.0142 h 0.02761 v 1.15292 h -0.257354 v -0.8809 l -0.30722,0.0846 v -0.18582 z m -3.919071,0.002 h 0.267148 v 1.15134 h -0.267181 z m 5.836307,0.16843 c -0.05165,0 -0.0941,0.021 -0.127341,0.0633 -0.03325,0.0416 -0.04987,0.0941 -0.04987,0.15735 0,0.0628 0.01603,0.1144 0.04809,0.15499 0.03265,0.04 0.07836,0.0601 0.137135,0.0601 0.04156,0 0.07717,-0.009 0.10686,-0.0285 0.03027,-0.019 0.05313,-0.0419 0.06856,-0.0688 v -0.0941 c 0,-0.0775 -0.01662,-0.13758 -0.04987,-0.18028 -0.03325,-0.0427 -0.07777,-0.064 -0.133575,-0.064 z m -1.034756,8e-4 c -0.06056,0 -0.105375,0.0208 -0.134465,0.0624 -0.02849,0.0411 -0.04364,0.1057 -0.04541,0.19374 v 0.27993 c 0,0.0938 0.01425,0.16369 0.04274,0.20954 0.02909,0.0454 0.0754,0.068 0.138918,0.068 0.06293,0 0.108343,-0.0219 0.136246,-0.0656 0.0279,-0.0438 0.04245,-0.1107 0.04364,-0.20085 v -0.2736 c 0,-0.0954 -0.01484,-0.16473 -0.04452,-0.20796 -0.02909,-0.0438 -0.0748,-0.0656 -0.137137,-0.0656 z m 2.092664,0 c -0.06055,0 -0.105375,0.0208 -0.134464,0.0624 -0.02849,0.0411 -0.04364,0.1057 -0.04541,0.19374 v 0.27993 c 0,0.0938 0.01425,0.16369 0.04274,0.20954 0.02909,0.0454 0.0754,0.068 0.138918,0.068 0.06293,0 0.108343,-0.0219 0.136245,-0.0656 0.0279,-0.0438 0.04245,-0.1107 0.04364,-0.20085 v -0.2736 c 0,-0.0954 -0.01484,-0.16473 -0.04453,-0.20796 -0.02909,-0.0438 -0.0748,-0.0656 -0.137136,-0.0656 z m -4.74545,0.0111 c -0.08964,0 -0.158805,0.0311 -0.207485,0.0933 -0.04868,0.0617 -0.07332,0.15235 -0.07391,0.27202 v 0.0562 c 0,0.11756 0.02434,0.20875 0.07302,0.2736 0.04868,0.0649 0.118733,0.0973 0.210157,0.0973 0.08964,0 0.158508,-0.0311 0.206595,-0.0933 0.04809,-0.0628 0.07243,-0.15394 0.07302,-0.2736 v -0.0562 c 0,-0.12073 -0.02434,-0.21246 -0.07302,-0.27518 -0.04868,-0.0627 -0.118139,-0.0941 -0.208376,-0.0941 z m 5.367907,0.38589 h 0.501349 v 0.18425 h -0.501349 z" />
      <g
         aria-label="ISO 1090-2"
         transform="matrix(0.17991667,0,0,0.17991667,18.973818,250.18244)"
         id="text23416"
         style="font-size:12px;line-height:125%;font-family:'Times New Roman';-inkscape-font-specification:'Times New Roman, ';font-variant-ligatures:no-common-ligatures;text-align:center;letter-spacing:0px;word-spacing:0px;text-anchor:middle;white-space:pre;shape-inside:url(#rect23418);fill:#ffffff;stroke:#000000;stroke-width:1px" />
    </g>
  </g>
</svg>
