<?xml version="1.0" encoding="UTF-8" standalone="no"?>
<!-- Created with Inkscape (http://www.inkscape.org/) -->

<svg
   width="20mm"
   height="13.6mm"
   viewBox="0 0 20 13.600001"
   version="1.1"
   id="svg5"
   inkscape:version="1.1.1 (3bf5ae0d25, 2021-09-20)"
   sodipodi:docname="isocert-dark-small.svg"
   xmlns:inkscape="http://www.inkscape.org/namespaces/inkscape"
   xmlns:sodipodi="http://sodipodi.sourceforge.net/DTD/sodipodi-0.dtd"
   xmlns="http://www.w3.org/2000/svg"
   xmlns:svg="http://www.w3.org/2000/svg">
  <sodipodi:namedview
     id="namedview7"
     pagecolor="#ffffff"
     bordercolor="#999999"
     borderopacity="1"
     inkscape:pageshadow="0"
     inkscape:pageopacity="0"
     inkscape:pagecheckerboard="0"
     inkscape:document-units="mm"
     showgrid="false"
     inkscape:zoom="15.017488"
     inkscape:cx="98.718241"
     inkscape:cy="50.707549"
     inkscape:window-width="1920"
     inkscape:window-height="1002"
     inkscape:window-x="-8"
     inkscape:window-y="-8"
     inkscape:window-maximized="1"
     inkscape:current-layer="g34173"
     showguides="true"
     inkscape:guide-bbox="true"
     inkscape:snap-intersection-paths="true"
     fit-margin-top="0"
     fit-margin-left="0"
     fit-margin-right="0"
     fit-margin-bottom="0"
     width="89.69317mm"
     inkscape:snap-global="true"
     inkscape:snap-page="true">
    <inkscape:grid
       type="xygrid"
       id="grid1345"
       originx="-27.586079"
       originy="-255.80808" />
    <sodipodi:guide
       position="-3.0686295,84.231554"
       orientation="0,-1"
       id="guide18314" />
    <sodipodi:guide
       position="-3.0686305,84.231554"
       orientation="0,-1"
       id="guide18316" />
    <sodipodi:guide
       position="-1.8726565,83.234914"
       orientation="0,-1"
       id="guide18318" />
  </sodipodi:namedview>
  <defs
     id="defs2">
    <rect
       x="195.23904"
       y="127.58459"
       width="154.48656"
       height="46.079613"
       id="rect12429" />
    <rect
       x="-29.165997"
       y="77.376457"
       width="110.00508"
       height="24.504765"
       id="rect3326" />
    <rect
       x="-446.41287"
       y="894.9566"
       width="292.99176"
       height="114.00043"
       id="rect24794" />
    <rect
       x="41.435291"
       y="613.24231"
       width="296.82736"
       height="92.664375"
       id="rect1789" />
  </defs>
  <g
     inkscape:label="Ebene 1"
     inkscape:groupmode="layer"
     id="layer1"
     transform="translate(-27.586078,-255.80806)">
    <path
       id="circle21184"
       style="display:none;fill:none;fill-opacity:0.619608;fill-rule:evenodd;stroke:#000000;stroke-width:1.22005;stroke-linejoin:round;paint-order:markers stroke fill;stop-color:#000000"
       d="M 8.1325898,221.4849 A 31.234937,31.434266 0.12681495 0 0 39.297876,252.98822 31.234937,31.434266 0.12681495 0 0 70.602303,221.62316 31.234937,31.434266 0.12681495 0 0 39.437018,190.11984 31.234937,31.434266 0.12681495 0 0 8.1325898,221.4849 Z" />
    <path
       style="display:none;fill:none;stroke:#000000;stroke-width:0.393842"
       d="m -11.497295,323.2783 c 1.9071978,-3.97188 7.4792853,-11.75593 10.84707695,-16.05333 7.72528945,-9.85769 15.49438905,-16.20044 22.77919505,-19.71819 4.222078,-2.03879 11.307193,-5.73671 14.695543,-6.91843 1.573464,-0.54875 2.071979,-0.91432 2.085669,-1.52946"
       id="path23815"
       sodipodi:nodetypes="csssc" />
    <g
       id="g34173"
       style="fill:#666666;fill-opacity:1"
       transform="matrix(1.4705882,0,0,1.4705882,-0.36561831,-111.57246)">
      <g
         id="g34141"
         transform="matrix(0.06224709,0.16832229,-0.16832229,0.06224709,44.509151,223.99222)"
         style="fill:#666666;fill-opacity:1">
        <text
           xml:space="preserve"
           transform="matrix(0.34772741,-0.94028932,0.94028932,0.34772741,-11.020208,240.23958)"
           id="text3324"
           style="font-size:14.6667px;line-height:125%;font-family:'Times New Roman';-inkscape-font-specification:'Times New Roman, ';font-variant-ligatures:no-common-ligatures;text-align:center;letter-spacing:0px;word-spacing:0px;writing-mode:lr-tb;white-space:pre;shape-inside:url(#rect3326);fill:none;fill-opacity:1;stroke:#000000;stroke-width:1px;stroke-linecap:butt;stroke-linejoin:miter;stroke-opacity:1" />
        <g
           id="g11729"
           transform="translate(92.546678,-190.97571)">
          <g
             id="g16040"
             transform="matrix(0.877729,0,0,0.877729,1.7312709,56.616676)"
             style="fill:#898d8d;fill-opacity:1">
            <path
               d="m 47.256241,323.5954 -0.747069,2.02015 -9.804464,-3.62578 0.747069,-2.02015 z"
               style="font-weight:bold;font-size:14.7037px;line-height:125%;font-family:Roboto;-inkscape-font-specification:'Roboto Bold';font-variant-ligatures:no-common-ligatures;text-align:center;letter-spacing:0px;word-spacing:0px;text-anchor:middle;white-space:pre;fill:#898d8d;fill-opacity:1;stroke:none;stroke-width:1.00253px"
               id="path11397" />
            <path
               d="m 47.256332,315.68807 q -0.572385,-0.21167 -1.024812,0.0803 -0.459174,0.28949 -1.184342,1.21545 -0.731906,0.92347 -1.288468,1.41423 -1.519915,1.33631 -3.0485,0.77102 -0.794596,-0.29385 -1.249746,-0.96738 -0.459404,-0.68276 -0.500779,-1.64724 -0.03887,-0.97123 0.347114,-2.01498 0.388474,-1.05047 1.076109,-1.73006 0.680907,-0.68207 1.541336,-0.87674 0.862919,-0.20141 1.745051,0.12481 l -0.747069,2.02015 q -0.673379,-0.24902 -1.20063,0.0382 -0.533975,0.28478 -0.817862,1.05244 -0.273926,0.74072 -0.109338,1.26853 0.157851,0.52532 0.669618,0.71458 0.478104,0.1768 0.978138,-0.18177 0.502514,-0.36531 1.131478,-1.19673 1.15601,-1.53211 2.215024,-2.03607 1.059009,-0.50398 2.203769,-0.0806 1.272692,0.47065 1.643844,1.70253 0.364414,1.2294 -0.238223,2.85899 -0.418358,1.13128 -1.172773,1.90865 -0.761146,0.77487 -1.663454,0.99999 -0.899818,0.21838 -1.849293,-0.13274 l 0.749559,-2.02688 q 1.622855,0.60014 2.340043,-1.3392 0.266455,-0.72052 0.126317,-1.23164 -0.146876,-0.5136 -0.672111,-0.70784 z"
               style="font-weight:bold;font-size:14.7037px;line-height:125%;font-family:Roboto;-inkscape-font-specification:'Roboto Bold';font-variant-ligatures:no-common-ligatures;text-align:center;letter-spacing:0px;word-spacing:0px;text-anchor:middle;white-space:pre;fill:#898d8d;fill-opacity:1;stroke:none;stroke-width:1.00253px"
               id="path11399" />
            <path
               d="m 49.382033,303.46111 q 1.447774,0.5354 2.3494,1.45059 0.90162,0.91519 1.140583,2.09054 0.241457,1.1686 -0.214257,2.4009 -0.450729,1.21882 -1.390188,1.95838 -0.939455,0.73955 -2.217846,0.86386 -1.285113,0.12182 -2.701706,-0.39439 l -0.484839,-0.1793 q -1.447773,-0.5354 -2.353647,-1.45981 -0.910104,-0.93364 -1.144827,-2.09976 -0.238963,-1.17535 0.214257,-2.4009 0.453224,-1.22556 1.396922,-1.95589 0.939459,-0.73956 2.23555,-0.84966 1.29186,-0.11934 2.732899,0.41357 z m -1.201464,1.88273 q -1.542053,-0.57027 -2.547573,-0.31443 -1.005532,0.25584 -1.384048,1.27938 -0.376024,1.01681 0.214374,1.86283 0.583664,0.84354 2.109749,1.41555 l 0.478105,0.17681 q 1.501647,0.55532 2.534104,0.30945 1.032457,-0.24588 1.415953,-1.28289 0.376025,-1.01681 -0.216851,-1.8561 -0.599623,-0.84178 -2.125708,-1.41379 z"
               style="font-weight:bold;font-size:14.7037px;line-height:125%;font-family:Roboto;-inkscape-font-specification:'Roboto Bold';font-variant-ligatures:no-common-ligatures;text-align:center;letter-spacing:0px;word-spacing:0px;text-anchor:middle;white-space:pre;fill:#898d8d;fill-opacity:1;stroke:none;stroke-width:1.00253px"
               id="path11401" />
          </g>
          <g
             id="g16035"
             transform="matrix(0.877729,0,0,0.877729,0.71389116,94.147714)"
             style="fill:#898d8d;fill-opacity:1">
            <path
               d="m 57.545885,295.77118 -0.719678,1.94608 -7.501495,-2.77412 -0.13861,2.58963 -1.582449,-0.58521 0.0471,-4.59839 0.0772,-0.20875 z"
               style="font-weight:bold;font-size:14.7037px;line-height:125%;font-family:Roboto;-inkscape-font-specification:'Roboto Bold';font-variant-ligatures:no-common-ligatures;text-align:center;letter-spacing:0px;word-spacing:0px;text-anchor:middle;white-space:pre;fill:#898d8d;fill-opacity:1;stroke:none;stroke-width:1.00253px"
               id="path11403" />
            <path
               d="m 57.110427,284.4878 q 2.033617,0.75205 2.799746,1.99221 0.766136,1.24018 0.165993,2.86302 -0.592679,1.60266 -1.963662,2.06016 -1.370973,0.4575 -3.351462,-0.25194 l -1.804671,-0.66738 q -2.05382,-0.75952 -2.803991,-2.00144 -0.747686,-1.24866 -0.155011,-2.85132 0.592675,-1.60265 1.963658,-2.06014 1.364239,-0.45999 3.344729,0.24945 z m -2.699431,1.21395 q -1.218827,-0.45073 -1.895509,-0.31824 -0.680929,0.12327 -0.942403,0.83032 -0.254006,0.68686 0.155945,1.21353 0.405713,0.51747 1.522789,0.95354 l 2.38378,0.88154 q 1.198625,0.44327 1.904,0.33669 0.701129,-0.11579 0.967587,-0.83632 0.263964,-0.71379 -0.177901,-1.23697 -0.441878,-0.52317 -1.588382,-0.96247 z"
               style="font-weight:bold;font-size:14.7037px;line-height:125%;font-family:Roboto;-inkscape-font-specification:'Roboto Bold';font-variant-ligatures:no-common-ligatures;text-align:center;letter-spacing:0px;word-spacing:0px;text-anchor:middle;white-space:pre;fill:#898d8d;fill-opacity:1;stroke:none;stroke-width:1.00253px"
               id="path11405" />
            <path
               d="m 59.414095,278.67243 q 0.46606,1.03735 0.09004,2.05415 -0.480614,1.29963 -1.658349,1.75205 -1.18447,0.44993 -2.699586,-0.11038 -0.962934,-0.3561 -1.609868,-1.06994 -0.651171,-0.72306 -0.816698,-1.64161 -0.172265,-0.92102 0.176369,-1.86377 0.358593,-0.96966 1.122329,-1.54456 0.763745,-0.57489 1.827209,-0.65621 1.063464,-0.0813 2.237641,0.34525 l 0.72052,0.26646 q 2.451114,0.90644 3.401027,2.64323 0.9499,1.73679 0.217413,4.00729 l -0.170239,0.48053 -1.622855,-0.60015 0.152809,-0.43339 q 0.824342,-2.58099 -1.367757,-3.62895 z m -1.221337,1.02571 q 0.174318,-0.47137 0.0564,-0.89771 -0.115411,-0.43308 -0.394093,-0.73516 l -0.801322,-0.29634 q -0.989871,-0.36606 -1.674774,-0.19067 -0.68489,0.17538 -0.918972,0.80837 -0.216651,0.58584 0.182602,1.16215 0.392523,0.57383 1.200579,0.87266 0.801331,0.29633 1.454306,0.12445 0.648738,-0.1811 0.895272,-0.84775 z"
               style="font-weight:bold;font-size:14.7037px;line-height:125%;font-family:Roboto;-inkscape-font-specification:'Roboto Bold';font-variant-ligatures:no-common-ligatures;text-align:center;letter-spacing:0px;word-spacing:0px;text-anchor:middle;white-space:pre;fill:#898d8d;fill-opacity:1;stroke:none;stroke-width:1.00253px"
               id="path11407" />
            <path
               d="m 62.962473,268.66329 q 2.033618,0.75205 2.799747,1.99221 0.766139,1.24016 0.165993,2.86302 -0.592676,1.60265 -1.963662,2.06016 -1.370973,0.45749 -3.351463,-0.25194 l -1.804671,-0.66739 q -2.05382,-0.75952 -2.803987,-2.00144 -0.747689,-1.24866 -0.155014,-2.85131 0.592675,-1.60265 1.963658,-2.06015 1.364239,-0.45998 3.344729,0.24945 z m -2.69943,1.21395 q -1.218827,-0.45074 -1.895509,-0.31825 -0.680929,0.12327 -0.942403,0.83032 -0.254006,0.68686 0.155945,1.21354 0.405713,0.51747 1.522789,0.95354 l 2.38378,0.88154 q 1.198625,0.44326 1.904,0.33669 0.701132,-0.1158 0.967587,-0.83632 0.263964,-0.71379 -0.177901,-1.23697 -0.441875,-0.52318 -1.588382,-0.96247 z"
               style="font-weight:bold;font-size:14.7037px;line-height:125%;font-family:Roboto;-inkscape-font-specification:'Roboto Bold';font-variant-ligatures:no-common-ligatures;text-align:center;letter-spacing:0px;word-spacing:0px;text-anchor:middle;white-space:pre;fill:#898d8d;fill-opacity:1;stroke:none;stroke-width:1.00253px"
               id="path11409" />
            <path
               d="m 65.517172,263.72153 -1.402001,3.79115 -1.568981,-0.58022 1.402001,-3.79115 z"
               style="font-weight:bold;font-size:14.7037px;line-height:125%;font-family:Roboto;-inkscape-font-specification:'Roboto Bold';font-variant-ligatures:no-common-ligatures;text-align:center;letter-spacing:0px;word-spacing:0px;text-anchor:middle;white-space:pre;fill:#898d8d;fill-opacity:1;stroke:none;stroke-width:1.00253px"
               id="path11411" />
            <path
               d="m 71.964333,256.78227 -2.485255,6.72038 -1.333301,-0.49307 -2.207484,-4.42174 q -0.472235,-0.91714 -0.889653,-1.42362 -0.414938,-0.51323 -0.893033,-0.69003 -0.653186,-0.24155 -1.145575,-0.0486 -0.499109,0.1905 -0.725721,0.80328 -0.244045,0.65992 0.07192,1.21308 0.311713,0.54395 1.052436,0.81787 l -0.722166,1.95281 q -0.895601,-0.3312 -1.479439,-1.02936 -0.581348,-0.70489 -0.709976,-1.64041 -0.135366,-0.938 0.230701,-1.92788 0.5603,-1.51511 1.596345,-2.08117 1.038532,-0.57278 2.365098,-0.0822 0.727254,0.26894 1.34199,0.92495 0.61474,0.656 1.279407,1.94284 l 1.525842,3.098 1.558888,-4.21539 z"
               style="font-weight:bold;font-size:14.7037px;line-height:125%;font-family:Roboto;-inkscape-font-specification:'Roboto Bold';font-variant-ligatures:no-common-ligatures;text-align:center;letter-spacing:0px;word-spacing:0px;text-anchor:middle;white-space:pre;fill:#898d8d;fill-opacity:1;stroke:none;stroke-width:1.00253px"
               id="path11413" />
          </g>
        </g>
      </g>
      <path
         style="fill:#898d8d;fill-opacity:1;stroke-width:0.0586569"
         d="m 23.514314,258.52432 c -0.501023,-0.88616 -0.930659,-1.50266 -1.428282,-2.04949 l -0.470318,-0.51679 0.06978,-0.81704 c 0.03838,-0.44934 0.08771,-0.83959 0.10961,-0.86721 0.07408,-0.0934 0.890767,0.7049 1.264604,1.23612 0.204279,0.29029 0.497539,0.77368 0.651688,1.07419 l 0.28027,0.54641 0.242715,-0.53022 c 0.953076,-2.08205 2.592746,-4.02091 4.584894,-5.42152 0.541879,-0.38097 2.086742,-1.24896 2.351512,-1.32121 l 0.141634,-0.0388 -0.06977,0.85669 c -0.03838,0.47118 -0.0709,0.91401 -0.0723,0.98403 -0.002,0.0969 -0.07212,0.15448 -0.293699,0.24094 -0.477139,0.18613 -1.585191,0.79388 -2.148784,1.17858 -1.14945,0.7846 -2.310692,1.90901 -3.207717,3.10602 -0.493916,0.65908 -1.179502,1.81427 -1.448069,2.43992 -0.105029,0.24465 -0.204857,0.44349 -0.221842,0.44181 -0.01698,-0.002 -0.168143,-0.24583 -0.33591,-0.54256 z"
         id="path11539" />
      <g
         aria-label="www.isocert.de"
         transform="matrix(0.24210753,0,0,0.24210753,23.630956,184.56599)"
         id="g11569"
         style="font-size:6.35px;line-height:125%;font-family:'Times New Roman';-inkscape-font-specification:'Times New Roman, ';font-variant-ligatures:no-common-ligatures;text-align:center;letter-spacing:0px;word-spacing:0px;text-anchor:middle;white-space:pre;fill:#666666;fill-opacity:1;stroke:#000000;stroke-width:1px" />
    </g>
  </g>
</svg>
